{
.appVersion = "3324";
.formatVersion = 3;
axes = (
{
name = Weight;
tag = wght;
}
);
classes = (
{
code = "zero one two three four five six seven eight nine";
name = fig;
},
{
code = "zerosuperior onesuperior twosuperior threesuperior foursuperior fivesuperior sixsuperior sevensuperior eightsuperior ninesuperior
";
name = sups;
},
{
code = "zeroinferior oneinferior twoinferior threeinferior fourinferior fiveinferior sixinferior seveninferior eightinferior nineinferior
";
name = dnom;
}
);
customParameters = (
{
disabled = 1;
name = glyphOrder;
value = (
.notdef,
NULL,
CR,
space,
uni00A0,
A,
B,
C,
D,
E,
F,
G,
H,
I,
J,
K,
L,
M,
N,
O,
P,
Q,
R,
S,
T,
U,
V,
W,
X,
Y,
Z,
Aacute,
Abreve,
Acircumflex,
Adieresis,
AE,
Agrave,
Amacron,
Aogonek,
Aring,
Atilde,
Cacute,
Ccaron,
Ccedilla,
Ccircumflex,
Cdotaccent,
Dcaron,
Dcroat,
Eacute,
Ebreve,
Ecaron,
Ecircumflex,
Edieresis,
Edotaccent,
Egrave,
Emacron,
Eng,
Eogonek,
Eth,
Gbreve,
Gcircumflex,
Gcommaaccent,
Gdotaccent,
Hbar,
Hcircumflex,
Iacute,
Ibreve,
Icircumflex,
Idieresis,
Idotaccent,
Igrave,
IJ,
Imacron,
Iogonek,
Itilde,
Jcircumflex,
Kcommaaccent,
Lacute,
Lcaron,
Lcommaaccent,
Ldot,
Lslash,
Nacute,
Ncaron,
Ncommaaccent,
Ntilde,
Oacute,
Obreve,
Ocircumflex,
Odieresis,
OE,
Ograve,
Ohungarumlaut,
Omacron,
Oslash,
Otilde,
Racute,
Rcaron,
Rcommaaccent,
Sacute,
Scaron,
Scedilla,
Scircumflex,
Scommaaccent,
Tbar,
Tcaron,
Tcedilla,
uni021A,
Thorn,
Uacute,
Ubreve,
Ucircumflex,
Udieresis,
Ugrave,
Uhungarumlaut,
Umacron,
Uogonek,
Uring,
Utilde,
Wacute,
Wdieresis,
Wgrave,
Wcircumflex,
Yacute,
Ycircumflex,
Ydieresis,
Ygrave,
Zacute,
Zcaron,
Zdotaccent,
a,
b,
c,
d,
e,
f,
g,
h,
i,
j,
k,
l,
m,
n,
o,
p,
q,
r,
s,
t,
u,
v,
w,
x,
y,
z,
aacute,
abreve,
acircumflex,
adieresis,
ae,
agrave,
amacron,
aogonek,
aring,
atilde,
cacute,
ccaron,
ccedilla,
ccircumflex,
cdotaccent,
dcaron,
dcroat,
dotlessi,
dotlessj,
eacute,
ebreve,
ecaron,
ecircumflex,
edieresis,
edotaccent,
egrave,
emacron,
eng,
eogonek,
eth,
gbreve,
gcircumflex,
gcommaaccent,
gdotaccent,

glyphs = (
{
glyphname = A;
kernLeft = A;
kernRight = A;
lastChange = "2024-11-12 17:31:02 +0000";
layers = (
{
anchors = (
{
name = bottom;
pos = (651,0);
},
{
name = top;
pos = (332,700);
}
);
guides = (
{
pos = (332,700);
userData = {
UFO.identifier = YDYe6DKRnZ;
};
}
);
layerId = m001;
shapes = (
{
closed = 1;
nodes = (
(90,0,l),
(173,220,l),
(485,220,l),
(568,0,l),
(651,0,l),
(378,700,l),
(286,700,l),
(9,0,l)
);
},
{
closed = 1;
nodes = (
(329,630,l),
(462,281,l),
(197,281,l)
);
}
);
width = 660;
},
{
anchors = (
{
name = bottom;
pos = (740,0);
},
{
name = top;
pos = (372,700);
}
);
layerId = "1A2B284C-0E56-44A1-A1FF-F0AD058F6D22";
shapes = (
{
closed = 1;
nodes = (
(181,0,l),
(240,167,l),
(496,167,l),
(554,0,l),
(740,0,l),
(471,700,l),
(275,700,l),
(2,0,l)
);
},
{
closed = 1;
nodes = (
(369,532,l),
(450,300,l),
(287,300,l)
);
}
);
width = 742;
},
{
anchors = (
{
name = bottom;
pos = (628,0);
},
{
name = top;
pos = (320,700);
}
);
guides = (
{
angle = 90;
pos = (411,717);
userData = {
UFO.identifier = YDYe6DKRnZ;
};
}
);
layerId = "0B743EE9-64DA-4675-B861-51D53379FCF4";
shapes = (
{
closed = 1;
nodes = (
(65,0,l),
(155,234,l),
(483,234,l),
(574,0,l),
(628,0,l),
(352,700,l),
(287,700,l),
(11,0,l)
);
},
{
closed = 1;
nodes = (
(319,656,l),
(467,276,l),
(172,276,l)
);
}
);
width = 639;
}
);
unicode = 65;
},
{
glyphname = Aogonek;
kernLeft = A;
kernRight = A;
lastChange = "2024-11-12 17:31:02 +0000";
layers = (
{
layerId = m001;
shapes = (
{
closed = 1;
nodes = (
(630,-231,o),
(657,-224,o),
(676,-212,c),
(662,-173,l),
(650,-181,o),
(631,-185,o),
(614,-185,cs),
(572,-185,o),
(547,-164,o),
(547,-128,cs),
(547,-87,o),
(579,-47,o),
(651,0,c),
(378,700,l),
(286,700,l),
(9,0,l),
(90,0,l),
(173,220,l),
(485,220,l),
(568,0,l),
(596,0,l),
(526,-50,o),
(497,-91,o),
(497,-140,cs),
(497,-195,o),
(539,-231,o),
(603,-231,cs)
);
},
{
closed = 1;
nodes = (
(329,630,l),
(462,281,l),
(197,281,l)
);
}
);
width = 660;
},
{
layerId = "1A2B284C-0E56-44A1-A1FF-F0AD058F6D22";
shapes = (
{
closed = 1;
nodes = (
(713,-231,o),
(748,-222,o),
(770,-208,c),
(750,-138,l),
(740,-145,o),
(723,-149,o),
(705,-149,cs),
(675,-149,o),
(656,-132,o),
(656,-103,cs),
(656,-67,o),
(682,-35,o),
(740,0,c),
(471,700,l),
(275,700,l),
(2,0,l),
(181,0,l),
(240,167,l),
(496,167,l),
(554,0,l),
(657,0,l),
(596,-41,o),
(569,-82,o),
(569,-132,cs),
(569,-191,o),
(612,-231,o),
(677,-231,cs)
);
},
{
closed = 1;
nodes = (
(369,532,l),
(450,300,l),
(287,300,l)
);
}
);
width = 742;
},
{
layerId = "0B743EE9-64DA-4675-B861-51D53379FCF4";
shapes = (
{
closed = 1;
nodes = (
(610,-231,o),
(634,-224,o),
(651,-213,c),
(639,-182,l),
(626,-190,o),
(607,-195,o),
(590,-195,cs),
(547,-195,o),
(518,-174,o),
(518,-134,cs),
(518,-97,o),
(544,-56,o),
(628,0,c),
(352,700,l),
(287,700,l),
(11,0,l),
(65,0,l),
(155,234,l),
(483,234,l),
(574,0,l),
(579,0,l),
(504,-55,o),
(478,-96,o),
(478,-142,cs),
(478,-193,o),
(516,-231,o),
(584,-231,cs)
);
},
{
closed = 1;
nodes = (
(319,656,l),
(467,276,l),
(172,276,l)
);
}
);
width = 639;
}
);
unicode = 260;
},
{
glyphname = AE;
kernLeft = A;
kernRight = E;
lastChange = "2024-11-12 17:31:02 +0000";
layers = (
{
layerId = m001;
shapes = (
{
closed = 1;
nodes = (
(89,0,l),
(173,220,l),
(484,220,l),
(567,0,l),
(870,0,l),
(870,68,l),
(621,68,l),
(526,320,l),
(738,320,l),
(738,387,l),
(501,387,l),
(409,632,l),
(870,632,l),
(870,700,l),
(286,700,l),
(9,0,l)
);
},
{
closed = 1;
nodes = (
(329,631,l),
(461,281,l),
(196,281,l)
);
}
);
width = 918;
},
{
layerId = "1A2B284C-0E56-44A1-A1FF-F0AD058F6D22";
shapes = (
{
closed = 1;
nodes = (
(181,0,l),
(240,167,l),
(496,167,l),
(554,0,l),
(929,0,l),
(929,149,l),
(680,149,l),
(633,281,l),
(812,281,l),
(812,425,l),
(581,425,l),
(536,551,l),
(929,551,l),
(929,700,l),
(275,700,l),
(2,0,l)
);
},
{
closed = 1;
nodes = (
(369,532,l),
(450,300,l),
(287,300,l)
);
}
);
width = 986;
},
{
layerId = "0B743EE9-64DA-4675-B861-51D53379FCF4";
shapes = (
{
closed = 1;
nodes = (
(65,0,l),
(155,234,l),
(483,234,l),
(574,0,l),
(855,0,l),
(855,47,l),
(609,47,l),
(498,330,l),
(724,330,l),
(724,377,l),
(479,377,l),
(371,653,l),
(851,653,l),
(851,700,l),
(287,700,l),
(11,0,l)
);
},
{
closed = 1;
nodes = (
(319,656,l),
(467,276,l),
(172,276,l)
);
}
);
width = 901;
}
);
unicode = 198;
},
{
glyphname = B;
kernLeft = H;
lastChange = "2024-11-12 17:31:02 +0000";
layers = (
{
layerId = m001;
shapes = (
{
closed = 1;
nodes = (
(383,0,ls),
(520,0,o),
(610,77,o),
(610,194,cs),
(610,280,o),
(552,343,o),
(459,364,c),
(535,387,o),
(583,445,o),
(583,522,cs),
(583,630,o),
(500,700,o),
(372,700,cs),
(89,700,l),
(89,0,l)
);
},
{
closed = 1;
nodes = (
(166,634,l),
(366,634,ls),
(451,634,o),
(506,587,o),
(506,514,cs),
(506,441,o),
(451,394,o),
(366,394,cs),
(166,394,l)
);
},
{
closed = 1;
nodes = (
(166,331,l),
(375,331,ls),
(471,331,o),
(532,279,o),
(532,199,cs),
(532,119,o),
(470,66,o),
(375,66,cs),
(166,66,l)
);
}
);
userData = {
com.typemytype.robofont.guideline.showMeasurements.XMEVKfFA3g = 1;
};
width = 669;
},
{
layerId = "1A2B284C-0E56-44A1-A1FF-F0AD058F6D22";
shapes = (
{
closed = 1;
nodes = (
(440,0,ls),
(579,0,o),
(677,81,o),
(677,196,cs),
(677,268,o),
(628,328,o),
(555,357,c),
(616,389,o),
(657,444,o),
(657,509,cs),
(657,620,o),
(560,700,o),
(424,700,cs),
(78,700,l),
(78,0,l)
);
},
{
closed = 1;
nodes = (
(250,563,l),
(404,563,ls),
(453,563,o),
(484,535,o),
(484,491,cs),
(484,448,o),
(452,419,o),
(404,419,cs),
(250,419,l)
);
},
{
closed = 1;
nodes = (
(250,291,l),
(418,291,ls),
(470,291,o),
(503,261,o),
(503,214,cs),
(503,167,o),
(470,137,o),
(418,137,cs),
(250,137,l)
);
}
);
userData = {
com.typemytype.robofont.guideline.showMeasurements.XMEVKfFA3g = 1;
};
width = 729;
},
{
guides = (
{
angle = 90;
pos = (241,433);
userData = {
UFO.identifier = XMEVKfFA3g;
};
}
);
layerId = "0B743EE9-64DA-4675-B861-51D53379FCF4";
shapes = (
{
closed = 1;
nodes = (
(368,0,ls),
(508,0,o),
(592,79,o),
(592,194,cs),
(592,285,o),
(533,348,o),
(428,365,c),
(515,385,o),
(563,444,o),
(563,525,cs),
(563,630,o),
(487,700,o),
(358,700,cs),
(92,700,l),
(92,0,l)
);
},
{
closed = 1;
nodes = (
(144,653,l),
(356,653,ls),
(453,653,o),
(512,599,o),
(512,520,cs),
(512,441,o),
(454,388,o),
(353,388,cs),
(144,388,l)
);
},
{
closed = 1;
nodes = (
(144,342,l),
(361,342,ls),
(474,342,o),
(540,283,o),
(540,195,cs),
(540,107,o),
(472,47,o),
(364,47,cs),
(144,47,l)
);
}
);
userData = {
com.typemytype.robofont.guideline.showMeasurements.XMEVKfFA3g = 1;
};
width = 653;
}
);
unicode = 66;
},
{
glyphname = C;
kernLeft = O;
kernRight = C;
lastChange = "2024-11-12 17:31:02 +0000";
layers = (
{
anchors = (
{
name = bottom;
pos = (411,0);
},
{
name = top;
pos = (407,700);
}
);
layerId = m001;
shapes = (
{
closed = 1;
nodes = (
(515,-11,o),
(610,30,o),
(676,104,c),
(625,157,l),
(573,95,o),
(493,59,o),
(412,59,cs),
(254,59,o),
(134,186,o),
(134,350,cs),
(134,514,o),
(254,641,o),
(412,641,cs),
(493,641,o),
(573,605,o),
(625,543,c),
(676,596,l),
(610,670,o),
(515,711,o),
(412,711,cs),
(212,711,o),
(56,552,o),
(56,350,cs),
(56,148,o),
(212,-11,o),
(412,-11,cs)
);
}
);
userData = {
com.typemytype.robofont.guideline.magnetic.Xb6nk9FEni = 5;
com.typemytype.robofont.guideline.magnetic.fJyXOYVzbz = 5;
com.typemytype.robofont.guideline.magnetic.vlo5H4bvfx = 5;
};
width = 726;
},
{
anchors = (
{
name = bottom;
pos = (405,0);
},
{
name = top;
pos = (403,700);
}
);
layerId = "1A2B284C-0E56-44A1-A1FF-F0AD058F6D22";
shapes = (
{
closed = 1;
nodes = (
(526,-11,o),
(637,42,o),
(698,125,c),
(582,235,l),
(536,173,o),
(480,142,o),
(414,142,cs),
(305,142,o),
(223,231,o),
(223,350,cs),
(223,469,o),
(305,558,o),
(414,558,cs),
(480,558,o),
(536,527,o),
(582,465,c),
(698,575,l),
(637,658,o),
(526,711,o),
(414,711,cs),
(206,711,o),
(45,554,o),
(45,350,cs),
(45,146,o),
(206,-11,o),
(414,-11,cs)
);
}
);
userData = {
com.typemytype.robofont.guideline.magnetic.Xb6nk9FEni = 5;
com.typemytype.robofont.guideline.magnetic.fJyXOYVzbz = 5;
com.typemytype.robofont.guideline.magnetic.vlo5H4bvfx = 5;
};
width = 720;
},
{
anchors = (
{
name = bottom;
pos = (401,0);
},
{
name = top;
pos = (397,700);
}
);
layerId = "0B743EE9-64DA-4675-B861-51D53379FCF4";
shapes = (
{
closed = 1;
nodes = (
(510,-11,o),
(603,27,o),
(670,98,c),
(636,137,l),
(583,75,o),
(496,37,o),
(406,37,cs),
(239,37,o),
(112,174,o),
(112,350,cs),
(112,526,o),
(239,663,o),
(406,663,cs),
(496,663,o),
(583,625,o),
(636,563,c),
(670,602,l),
(603,673,o),
(510,711,o),
(406,711,cs),
(212,710,o),
(60,552,o),
(60,350,cs),
(60,148,o),
(212,-11,o),
(406,-11,cs)
);
}
);
userData = {
com.typemytype.robofont.guideline.magnetic.Xb6nk9FEni = 5;
com.typemytype.robofont.guideline.magnetic.fJyXOYVzbz = 5;
com.typemytype.robofont.guideline.magnetic.vlo5H4bvfx = 5;
};
width = 728;
}
);
unicode = 67;
},
{
glyphname = Ccedilla;
kernLeft = O;
kernRight = C;
lastChange = "2024-11-12 17:31:02 +0000";
layers = (
{
layerId = m001;
shapes = (
{
closed = 1;
nodes = (
(468,-239,o),
(514,-200,o),
(514,-146,cs),
(514,-99,o),
(476,-69,o),
(417,-66,c),
(430,-11,l),
(526,-6,o),
(614,34,o),
(676,104,c),
(625,157,l),
(573,95,o),
(493,59,o),
(412,59,cs),
(254,59,o),
(134,186,o),
(134,350,cs),
(134,514,o),
(254,641,o),
(412,641,cs),
(493,641,o),
(573,605,o),
(625,543,c),
(676,596,l),
(610,670,o),
(515,711,o),
(412,711,cs),
(212,711,o),
(56,552,o),
(56,350,cs),
(56,156,o),
(199,2,o),
(387,-10,c),
(365,-99,l),
(394,-99,ls),
(439,-99,o),
(465,-117,o),
(465,-148,cs),
(465,-180,o),
(441,-200,o),
(400,-200,cs),
(371,-200,o),
(344,-190,o),
(321,-171,c),
(293,-203,l),
(320,-227,o),
(358,-239,o),
(403,-239,cs)
);
}
);
width = 726;
},
{
layerId = "1A2B284C-0E56-44A1-A1FF-F0AD058F6D22";
shapes = (
{
closed = 1;
nodes = (
(473,-254,o),
(530,-206,o),
(530,-144,cs),
(530,-95,o),
(491,-63,o),
(428,-58,c),
(440,-10,l),
(543,-3,o),
(642,48,o),
(698,125,c),
(582,235,l),
(536,173,o),
(480,142,o),
(414,142,cs),
(305,142,o),
(223,231,o),
(223,350,cs),
(223,469,o),
(305,558,o),
(414,558,cs),
(480,558,o),
(536,527,o),
(582,465,c),
(698,575,l),
(637,658,o),
(526,711,o),
(414,711,cs),
(206,711,o),
(45,554,o),
(45,350,cs),
(45,162,o),
(182,13,o),
(367,-8,c),
(342,-111,l),
(387,-111,ls),
(422,-111,o),
(443,-124,o),
(443,-146,cs),
(443,-170,o),
(424,-183,o),
(389,-183,cs),
(363,-183,o),
(335,-173,o),
(312,-155,c),
(263,-212,l),
(295,-240,o),
(339,-254,o),
(398,-254,cs)
);
}
);
width = 720;
},
{
layerId = "0B743EE9-64DA-4675-B861-51D53379FCF4";
shapes = (
{
closed = 1;
nodes = (
(455,-235,o),
(498,-198,o),
(498,-147,cs),
(498,-100,o),
(460,-70,o),
(402,-68,c),
(415,-11,l),
(515,-9,o),
(605,29,o),
(670,98,c),
(636,137,l),
(583,75,o),
(496,37,o),
(406,37,cs),
(239,37,o),
(112,174,o),
(112,350,cs),
(112,526,o),
(239,663,o),
(406,663,cs),
(496,663,o),
(583,625,o),
(636,563,c),
(670,602,l),
(603,673,o),
(510,711,o),
(406,711,cs),
(212,710,o),
(60,552,o),
(60,350,cs),
(60,157,o),
(199,3,o),
(381,-10,c),
(359,-96,l),
(384,-96,ls),
(432,-96,o),
(460,-115,o),
(460,-149,cs),
(460,-183,o),
(434,-204,o),
(391,-204,cs),
(361,-204,o),
(334,-194,o),
(311,-175,c),
(289,-201,l),
(315,-224,o),
(351,-235,o),
(392,-235,cs)
);
}
);
width = 728;
}
);
unicode = 199;
},
{
glyphname = D;
kernLeft = H;
kernRight = O;
lastChange = "2024-11-12 17:31:02 +0000";
layers = (
{
anchors = (
{
name = top;
pos = (354,700);
}
);
layerId = m001;
shapes = (
{
closed = 1;
nodes = (
(166,631,l),
(326,631,ls),
(477,631,o),
(593,510,o),
(593,350,cs),
(593,190,o),
(477,69,o),
(326,69,cs),
(166,69,l)
);
},
{
closed = 1;
nodes = (
(321,0,ls),
(527,0,o),
(671,151,o),
(671,350,cs),
(671,549,o),
(527,700,o),
(321,700,cs),
(89,700,l),
(89,0,l)
);
}
);
width = 728;
},
{
anchors = (
{
name = top;
pos = (381,700);
}
);
layerId = "1A2B284C-0E56-44A1-A1FF-F0AD058F6D22";
shapes = (
{
closed = 1;
nodes = (
(250,553,l),
(363,553,ls),
(460,553,o),
(537,463,o),
(537,350,cs),
(537,237,o),
(460,147,o),
(363,147,cs),
(250,147,l)
);
},
{
closed = 1;
nodes = (
(363,0,ls),
(559,0,o),
(715,156,o),
(715,350,cs),
(715,544,o),
(559,700,o),
(363,700,cs),
(78,700,l),
(78,0,l)
);
}
);
width = 760;
},
{
anchors = (
{
name = top;
pos = (354,700);
}
);
guides = (
{
angle = 90;
pos = (262,481);
userData = {
UFO.identifier = wg5F9Wpo0A;
};
}
);
layerId = "0B743EE9-64DA-4675-B861-51D53379FCF4";
shapes = (
{
closed = 1;
nodes = (
(144,653,l),
(316,653,ls),
(482,653,o),
(608,523,o),
(608,350,cs),
(608,177,o),
(482,47,o),
(316,47,cs),
(144,47,l)
);
},
{
closed = 1;
nodes = (
(310,0,ls),
(519,0,o),
(660,150,o),
(660,350,cs),
(660,550,o),
(519,700,o),
(310,700,cs),
(92,700,l),
(92,0,l)
);
}
);
width = 720;
}
);
unicode = 68;
},
{
glyphname = Dcroat;
kernLeft = H;
kernRight = O;
lastChange = "2024-11-12 17:31:02 +0000";
layers = (
{
layerId = m001;
shapes = (
{
closed = 1;
nodes = (
(353,0,ls),
(559,0,o),
(703,151,o),
(703,350,cs),
(703,549,o),
(559,700,o),
(353,700,cs),
(121,700,l),
(121,383,l),
(25,383,l),
(25,322,l),
(121,322,l),
(121,0,l)
);
},
{
closed = 1;
nodes = (
(198,322,l),
(364,322,l),
(364,383,l),
(198,383,l),
(198,631,l),
(358,631,ls),
(509,631,o),
(625,510,o),
(625,350,cs),
(625,190,o),
(509,69,o),
(358,69,cs),
(198,69,l)
);
}
);
width = 760;
},
{
layerId = "1A2B284C-0E56-44A1-A1FF-F0AD058F6D22";
shapes = (
{
closed = 1;
nodes = (
(388,0,ls),
(584,0,o),
(740,156,o),
(740,350,cs),
(740,544,o),
(584,700,o),
(388,700,cs),
(103,700,l),
(103,413,l),
(23,413,l),
(23,293,l),
(103,293,l),
(103,0,l)
);
},
{
closed = 1;
nodes = (
(275,293,l),
(416,293,l),
(416,413,l),
(275,413,l),
(275,553,l),
(388,553,ls),
(485,553,o),
(562,463,o),
(562,350,cs),
(562,237,o),
(485,147,o),
(388,147,cs),
(275,147,l)
);
}
);
width = 785;
},
{
layerId = "0B743EE9-64DA-4675-B861-51D53379FCF4";
shapes = (
{
closed = 1;
nodes = (
(310,0,ls),
(519,0,o),
(660,150,o),
(660,350,cs),
(660,550,o),
(519,700,o),
(310,700,cs),
(92,700,l),
(92,373,l),
(26,373,l),
(26,329,l),
(92,329,l),
(92,0,l)
);
},
{
closed = 1;
nodes = (
(144,329,l),
(350,329,l),
(350,373,l),
(144,373,l),
(144,653,l),
(316,653,ls),
(482,653,o),
(608,523,o),
(608,350,cs),
(608,177,o),
(482,47,o),
(316,47,cs),
(144,47,l)
);
}
);
width = 720;
}
);
unicode = 272;
},
{
glyphname = E;
kernLeft = H;
kernRight = E;
lastChange = "2024-11-12 17:31:02 +0000";
layers = (
{
anchors = (
{
name = bottom;
pos = (571,0);
},
{
name = top;
pos = (329,700);
}
);
guides = (
{
pos = (328,700);
userData = {
UFO.identifier = A1odUCKNQQ;
};
}
);
layerId = m001;
shapes = (
{
closed = 1;
nodes = (
(571,0,l),
(571,68,l),
(166,68,l),
(166,320,l),
(444,320,l),
(444,387,l),
(166,387,l),
(166,632,l),
(567,632,l),
(567,700,l),
(89,700,l),
(89,0,l)
);
}
);
userData = {
com.typemytype.robofont.guideline.magnetic.AxLIPzvAEX = 5;
com.typemytype.robofont.guideline.magnetic.lYbvKYqFNg = 5;
com.typemytype.robofont.guideline.showMeasurements.A1odUCKNQQ = 1;
};
width = 619;
},
{
anchors = (
{
name = bottom;
pos = (611,0);
},
{
name = top;
pos = (354,700);
}
);
layerId = "1A2B284C-0E56-44A1-A1FF-F0AD058F6D22";
shapes = (
{
closed = 1;
nodes = (
(611,0,l),
(611,144,l),
(250,144,l),
(250,283,l),
(502,283,l),
(502,423,l),
(250,423,l),
(250,556,l),
(607,556,l),
(607,700,l),
(78,700,l),
(78,0,l)
);
}
);
userData = {
com.typemytype.robofont.guideline.magnetic.AxLIPzvAEX = 5;
com.typemytype.robofont.guideline.magnetic.lYbvKYqFNg = 5;
com.typemytype.robofont.guideline.showMeasurements.A1odUCKNQQ = 1;
};
width = 668;
},
{
anchors = (
{
name = bottom;
pos = (560,0);
},
{
name = top;
pos = (337,700);
}
);
guides = (
{
angle = 90;
pos = (243,539);
userData = {
UFO.identifier = A1odUCKNQQ;
};
}
);
layerId = "0B743EE9-64DA-4675-B861-51D53379FCF4";
shapes = (
{
closed = 1;
nodes = (
(560,0,l),
(560,47,l),
(144,47,l),
(144,330,l),
(429,330,l),
(429,377,l),
(144,377,l),
(144,653,l),
(556,653,l),
(556,700,l),
(92,700,l),
(92,0,l)
);
}
);
userData = {
com.typemytype.robofont.guideline.magnetic.AxLIPzvAEX = 5;
com.typemytype.robofont.guideline.magnetic.lYbvKYqFNg = 5;
com.typemytype.robofont.guideline.showMeasurements.A1odUCKNQQ = 1;
};
width = 606;
}
);
unicode = 69;
},
{
glyphname = Eogonek;
kernLeft = H;
kernRight = E;
lastChange = "2024-11-12 17:31:02 +0000";
layers = (
{
layerId = m001;
shapes = (
{
closed = 1;
nodes = (
(582,-173,l),
(570,-181,o),
(551,-185,o),
(534,-185,cs),
(492,-185,o),
(467,-164,o),
(467,-128,cs),
(467,-87,o),
(499,-47,o),
(571,0,c),
(571,68,l),
(166,68,l),
(166,320,l),
(444,320,l),
(444,387,l),
(166,387,l),
(166,632,l),
(567,632,l),
(567,700,l),
(89,700,l),
(89,0,l),
(516,0,l),
(446,-50,o),
(417,-91,o),
(417,-140,cs),
(417,-195,o),
(459,-231,o),
(523,-231,cs),
(550,-231,o),
(577,-224,o),
(596,-212,c)
);
}
);
width = 619;
},
{
layerId = "1A2B284C-0E56-44A1-A1FF-F0AD058F6D22";
shapes = (
{
closed = 1;
nodes = (
(620,-138,l),
(610,-145,o),
(593,-149,o),
(575,-149,cs),
(545,-149,o),
(526,-132,o),
(526,-103,cs),
(526,-67,o),
(553,-35,o),
(611,0,c),
(611,144,l),
(250,144,l),
(250,283,l),
(502,283,l),
(502,423,l),
(250,423,l),
(250,556,l),
(607,556,l),
(607,700,l),
(78,700,l),
(78,0,l),
(527,0,l),
(466,-41,o),
(439,-82,o),
(439,-132,cs),
(439,-191,o),
(482,-231,o),
(547,-231,cs),
(583,-231,o),
(618,-222,o),
(640,-208,c)
);
}
);
width = 668;
},
{
layerId = "0B743EE9-64DA-4675-B861-51D53379FCF4";
shapes = (
{
closed = 1;
nodes = (
(571,-182,l),
(558,-190,o),
(539,-195,o),
(522,-195,cs),
(479,-195,o),
(450,-174,o),
(450,-134,cs),
(450,-97,o),
(476,-56,o),
(560,0,c),
(560,47,l),
(144,47,l),
(144,330,l),
(429,330,l),
(429,377,l),
(144,377,l),
(144,653,l),
(556,653,l),
(556,700,l),
(92,700,l),
(92,0,l),
(511,0,l),
(436,-55,o),
(410,-96,o),
(410,-142,cs),
(410,-193,o),
(448,-231,o),
(516,-231,cs),
(542,-231,o),
(566,-224,o),
(583,-213,c)
);
}
);
width = 606;
}
);
unicode = 280;
},
{
glyphname = F;
kernLeft = H;
lastChange = "2024-11-12 17:31:02 +0000";
layers = (
{
layerId = m001;
shapes = (
{
closed = 1;
nodes = (
(166,0,l),
(166,315,l),
(440,315,l),
(440,382,l),
(166,382,l),
(166,632,l),
(567,632,l),
(567,700,l),
(89,700,l),
(89,0,l)
);
}
);
userData = {
com.typemytype.robofont.guideline.showMeasurements.btDTIWi0Rf = 1;
};
width = 610;
},
{
layerId = "1A2B284C-0E56-44A1-A1FF-F0AD058F6D22";
shapes = (
{
closed = 1;
nodes = (
(250,0,l),
(250,278,l),
(502,278,l),
(502,418,l),
(250,418,l),
(250,556,l),
(611,556,l),
(611,700,l),
(78,700,l),
(78,0,l)
);
}
);
userData = {
com.typemytype.robofont.guideline.showMeasurements.btDTIWi0Rf = 1;
};
width = 663;
},
{
guides = (
{
angle = 90;
pos = (348,490);
userData = {
UFO.identifier = btDTIWi0Rf;
};
}
);
layerId = "0B743EE9-64DA-4675-B861-51D53379FCF4";
shapes = (
{
closed = 1;
nodes = (
(144,0,l),
(144,325,l),
(424,325,l),
(424,372,l),
(144,372,l),
(144,653,l),
(555,653,l),
(555,700,l),
(92,700,l),
(92,0,l)
);
}
);
userData = {
com.typemytype.robofont.guideline.showMeasurements.btDTIWi0Rf = 1;
};
width = 596;
}
);
unicode = 70;
},
{
glyphname = G;
kernLeft = O;
kernRight = G;
lastChange = "2024-11-12 17:31:02 +0000";
layers = (
{
anchors = (
{
name = bottom;
pos = (414,0);
},
{
name = top;
pos = (409,700);
}
);
layerId = m001;
shapes = (
{
closed = 1;
nodes = (
(600,-11,o),
(744,141,o),
(744,335,cs),
(744,366,l),
(430,366,l),
(430,298,l),
(666,298,l),
(654,161,o),
(549,59,o),
(410,59,cs),
(253,59,o),
(134,187,o),
(134,350,cs),
(134,513,o),
(253,641,o),
(410,641,cs),
(495,641,o),
(579,606,o),
(631,544,c),
(683,596,l),
(616,672,o),
(516,711,o),
(410,711,cs),
(211,711,o),
(56,551,o),
(56,350,cs),
(56,149,o),
(211,-11,o),
(410,-11,cs)
);
}
);
userData = {
SBAlt = left;
com.typemytype.robofont.guideline.magnetic.O9y2xmpz47 = 5;
com.typemytype.robofont.guideline.magnetic.wDGBKmkkfY = 5;
com.typemytype.robofont.guideline.magnetic.xjYjdhFYab = 5;
};
width = 799;
},
{
anchors = (
{
name = bottom;
pos = (405,0);
},
{
name = top;
pos = (401,700);
}
);
layerId = "1A2B284C-0E56-44A1-A1FF-F0AD058F6D22";
shapes = (
{
closed = 1;
nodes = (
(615,-11,o),
(761,143,o),
(761,353,cs),
(761,402,l),
(401,402,l),
(401,257,l),
(576,257,l),
(557,188,o),
(495,140,o),
(416,140,cs),
(305,140,o),
(223,230,o),
(223,350,cs),
(223,469,o),
(302,558,o),
(410,558,cs),
(479,558,o),
(539,529,o),
(583,470,c),
(704,575,l),
(639,662,o),
(527,711,o),
(410,711,cs),
(205,711,o),
(45,553,o),
(45,350,cs),
(45,147,o),
(206,-11,o),
(413,-11,cs)
);
}
);
userData = {
SBAlt = left;
com.typemytype.robofont.guideline.magnetic.O9y2xmpz47 = 5;
com.typemytype.robofont.guideline.magnetic.wDGBKmkkfY = 5;
com.typemytype.robofont.guideline.magnetic.xjYjdhFYab = 5;
};
width = 806;
},
{
anchors = (
{
name = bottom;
pos = (404,0);
},
{
name = top;
pos = (399,700);
}
);
layerId = "0B743EE9-64DA-4675-B861-51D53379FCF4";
shapes = (
{
closed = 1;
nodes = (
(598,-11,o),
(739,140,o),
(739,330,cs),
(739,356,l),
(437,356,l),
(437,309,l),
(688,309,l),
(679,154,o),
(563,37,o),
(406,37,cs),
(239,37,o),
(112,174,o),
(112,350,cs),
(112,526,o),
(239,663,o),
(406,663,cs),
(498,663,o),
(590,626,o),
(644,563,c),
(678,602,l),
(610,674,o),
(512,711,o),
(406,711,cs),
(212,711,o),
(60,552,o),
(60,350,cs),
(60,148,o),
(212,-11,o),
(406,-11,cs)
);
}
);
userData = {
SBAlt = left;
com.typemytype.robofont.guideline.magnetic.O9y2xmpz47 = 5;
com.typemytype.robofont.guideline.magnetic.wDGBKmkkfY = 5;
com.typemytype.robofont.guideline.magnetic.xjYjdhFYab = 5;
};
width = 797;
}
);
unicode = 71;
},
{
glyphname = H;
kernLeft = H;
kernRight = H;
lastChange = "2024-11-12 17:31:02 +0000";
layers = (
{
anchors = (
{
name = top;
pos = (366,700);
}
);
layerId = m001;
shapes = (
{
closed = 1;
nodes = (
(165,0,l),
(165,318,l),
(567,318,l),
(567,0,l),
(644,0,l),
(644,700,l),
(567,700,l),
(567,387,l),
(165,387,l),
(165,700,l),
(88,700,l),
(88,0,l)
);
}
);
width = 732;
},
{
anchors = (
{
name = top;
pos = (382,700);
}
);
layerId = "1A2B284C-0E56-44A1-A1FF-F0AD058F6D22";
shapes = (
{
closed = 1;
nodes = (
(240,0,l),
(240,277,l),
(523,277,l),
(523,0,l),
(695,0,l),
(695,700,l),
(523,700,l),
(523,428,l),
(240,428,l),
(240,700,l),
(68,700,l),
(68,0,l)
);
}
);
width = 763;
},
{
anchors = (
{
name = top;
pos = (361,700);
}
);
layerId = "0B743EE9-64DA-4675-B861-51D53379FCF4";
shapes = (
{
closed = 1;
nodes = (
(144,0,l),
(144,329,l),
(577,329,l),
(577,0,l),
(629,0,l),
(629,700,l),
(577,700,l),
(577,376,l),
(144,376,l),
(144,700,l),
(92,700,l),
(92,0,l)
);
}
);
width = 721;
}
);
unicode = 72;
},
{
glyphname = Hbar;
kernLeft = H;
kernRight = H;
lastChange = "2024-11-12 17:31:02 +0000";
layers = (
{
layerId = m001;
shapes = (
{
closed = 1;
nodes = (
(173,0,l),
(173,318,l),
(575,318,l),
(575,0,l),
(652,0,l),
(652,521,l),
(736,521,l),
(736,582,l),
(652,582,l),
(652,700,l),
(575,700,l),
(575,582,l),
(173,582,l),
(173,700,l),
(96,700,l),
(96,582,l),
(12,582,l),
(12,521,l),
(96,521,l),
(96,0,l)
);
},
{
closed = 1;
nodes = (
(173,521,l),
(575,521,l),
(575,386,l),
(173,386,l)
);
}
);
width = 748;
},
{
layerId = "1A2B284C-0E56-44A1-A1FF-F0AD058F6D22";
shapes = (
{
closed = 1;
nodes = (
(265,0,l),
(265,277,l),
(548,277,l),
(548,0,l),
(720,0,l),
(720,493,l),
(800,493,l),
(800,613,l),
(720,613,l),
(720,700,l),
(548,700,l),
(548,613,l),
(265,613,l),
(265,700,l),
(93,700,l),
(93,613,l),
(13,613,l),
(13,493,l),
(93,493,l),
(93,0,l)
);
},
{
closed = 1;
nodes = (
(265,493,l),
(548,493,l),
(548,417,l),
(265,417,l)
);
}
);
width = 813;
},
{
layerId = "0B743EE9-64DA-4675-B861-51D53379FCF4";
shapes = (
{
closed = 1;
nodes = (
(148,0,l),
(148,329,l),
(581,329,l),
(581,0,l),
(633,0,l),
(633,528,l),
(718,528,l),
(718,572,l),
(633,572,l),
(633,700,l),
(581,700,l),
(581,572,l),
(148,572,l),
(148,700,l),
(96,700,l),
(96,572,l),
(11,572,l),
(11,528,l),
(96,528,l),
(96,0,l)
);
},
{
closed = 1;
nodes = (
(148,528,l),
(581,528,l),
(581,376,l),
(148,376,l)
);
}
);
width = 729;
}
);
unicode = 294;
},
{
glyphname = I;
kernLeft = H;
kernRight = H;
lastChange = "2024-11-12 17:31:02 +0000";
layers = (
{
anchors = (
{
name = bottom;
pos = (165,0);
},
{
name = top;
pos = (126,700);
}
);
layerId = m001;
shapes = (
{
closed = 1;
nodes = (
(165,0,l),
(165,700,l),
(88,700,l),
(88,0,l)
);
}
);
width = 253;
},
{
anchors = (
{
name = bottom;
pos = (240,0);
},
{
name = top;
pos = (154,700);
}
);
layerId = "1A2B284C-0E56-44A1-A1FF-F0AD058F6D22";
shapes = (
{
closed = 1;
nodes = (
(240,0,l),
(240,700,l),
(68,700,l),
(68,0,l)
);
}
);
width = 308;
},
{
anchors = (
{
name = bottom;
pos = (144,0);
},
{
name = top;
pos = (118,700);
}
);
layerId = "0B743EE9-64DA-4675-B861-51D53379FCF4";
shapes = (
{
closed = 1;
nodes = (
(144,0,l),
(144,700,l),
(92,700,l),
(92,0,l)
);
}
);
width = 236;
}
);
unicode = 73;
},
{
glyphname = Iogonek;
kernLeft = H;
kernRight = H;
lastChange = "2024-11-12 17:31:02 +0000";
layers = (
{
layerId = m001;
shapes = (
{
closed = 1;
nodes = (
(144,-231,o),
(171,-224,o),
(190,-212,c),
(176,-173,l),
(164,-181,o),
(145,-185,o),
(128,-185,cs),
(86,-185,o),
(61,-164,o),
(61,-128,cs),
(61,-87,o),
(93,-47,o),
(165,0,c),
(165,700,l),
(88,700,l),
(88,0,l),
(110,0,l),
(40,-50,o),
(11,-91,o),
(11,-140,cs),
(11,-195,o),
(53,-231,o),
(117,-231,cs)
);
}
);
width = 253;
},
{
layerId = "1A2B284C-0E56-44A1-A1FF-F0AD058F6D22";
shapes = (
{
closed = 1;
nodes = (
(212,-231,o),
(247,-222,o),
(269,-208,c),
(249,-138,l),
(239,-145,o),
(222,-149,o),
(204,-149,cs),
(174,-149,o),
(155,-132,o),
(155,-103,cs),
(155,-67,o),
(182,-35,o),
(240,0,c),
(240,700,l),
(68,700,l),
(68,0,l),
(156,0,l),
(95,-41,o),
(68,-82,o),
(68,-132,cs),
(68,-191,o),
(111,-231,o),
(176,-231,cs)
);
}
);
width = 308;
},
{
layerId = "0B743EE9-64DA-4675-B861-51D53379FCF4";
shapes = (
{
closed = 1;
nodes = (
(126,-231,o),
(150,-224,o),
(167,-213,c),
(155,-182,l),
(142,-190,o),
(123,-195,o),
(106,-195,cs),
(63,-195,o),
(34,-174,o),
(34,-134,cs),
(34,-97,o),
(60,-56,o),
(144,0,c),
(144,700,l),
(92,700,l),
(92,0,l),
(95,0,l),
(20,-55,o),
(-6,-96,o),
(-6,-142,cs),
(-6,-193,o),
(32,-231,o),
(100,-231,cs)
);
}
);
width = 236;
}
);
unicode = 302;
},
{
glyphname = J;
kernLeft = J;
kernRight = U;
lastChange = "2024-11-12 17:31:02 +0000";
layers = (
{
anchors = (
{
name = top;
pos = (486,700);
}
);
layerId = m001;
shapes = (
{
closed = 1;
nodes = (
(425,-11,o),
(525,95,o),
(525,264,cs),
(525,700,l),
(448,700,l),
(448,265,ls),
(448,139,o),
(377,59,o),
(268,59,cs),
(181,59,o),
(121,106,o),
(88,196,c),
(18,168,l),
(57,55,o),
(148,-11,o),
(267,-11,cs)
);
}
);
width = 600;
},
{
anchors = (
{
name = top;
pos = (513,700);
}
);
layerId = "1A2B284C-0E56-44A1-A1FF-F0AD058F6D22";
shapes = (
{
closed = 1;
nodes = (
(489,-10,o),
(606,104,o),
(606,274,cs),
(606,700,l),
(434,700,l),
(434,279,ls),
(434,197,o),
(386,141,o),
(315,141,cs),
(251,141,o),
(209,179,o),
(185,261,c),
(26,204,l),
(66,65,o),
(169,-10,o),
(314,-10,cs)
);
}
);
width = 670;
},
{
anchors = (
{
name = top;
pos = (476,700);
}
);
layerId = "0B743EE9-64DA-4675-B861-51D53379FCF4";
shapes = (
{
closed = 1;
nodes = (
(408,-11,o),
(504,93,o),
(504,261,cs),
(504,700,l),
(452,700,l),
(452,261,ls),
(452,124,o),
(375,37,o),
(255,37,cs),
(163,37,o),
(98,87,o),
(62,179,c),
(16,158,l),
(55,52,o),
(143,-11,o),
(254,-11,cs)
);
}
);
width = 582;
}
);
unicode = 74;
},
{
glyphname = K;
kernLeft = H;
kernRight = K;
lastChange = "2024-11-12 17:31:02 +0000";
layers = (
{
anchors = (
{
name = bottom;
pos = (330,0);
}
);
layerId = m001;
shapes = (
{
closed = 1;
nodes = (
(166,0,l),
(166,335,l),
(507,0,l),
(612,0,l),
(247,356,l),
(604,700,l),
(506,700,l),
(166,368,l),
(166,700,l),
(89,700,l),
(89,0,l)
);
}
);
width = 610;
},
{
anchors = (
{
name = bottom;
pos = (390,0);
}
);
layerId = "1A2B284C-0E56-44A1-A1FF-F0AD058F6D22";
shapes = (
{
closed = 1;
nodes = (
(250,0,l),
(250,318,l),
(509,0,l),
(734,0,l),
(410,371,l),
(716,700,l),
(511,700,l),
(250,396,l),
(250,700,l),
(78,700,l),
(78,0,l)
);
}
);
width = 738;
},
{
anchors = (
{
name = bottom;
pos = (330,0);
}
);
layerId = "0B743EE9-64DA-4675-B861-51D53379FCF4";
shapes = (
{
closed = 1;
nodes = (
(144,0,l),
(144,339,l),
(501,0,l),
(580,0,l),
(203,352,l),
(574,700,l),
(501,700,l),
(144,361,l),
(144,700,l),
(92,700,l),
(92,0,l)
);
}
);
width = 576;
}
);
unicode = 75;
},
{
glyphname = L;
kernLeft = H;
kernRight = L;
lastChange = "2024-11-15 13:12:46 +0000";
layers = (
{
anchors = (
{
name = bottom;
pos = (326,0);
},
{
name = top;
pos = (118,700);
}
);
layerId = m001;
shapes = (
{
closed = 1;
nodes = (
(561,0,l),
(561,68,l),
(166,68,l),
(166,700,l),
(89,700,l),
(89,0,l)
);
}
);
width = 607;
},
{
anchors = (
{
name = bottom;
pos = (360,0);
},
{
name = top;
pos = (163,700);
}
);
layerId = "1A2B284C-0E56-44A1-A1FF-F0AD058F6D22";
shapes = (
{
closed = 1;
nodes = (
(597,0,l),
(597,147,l),
(250,147,l),
(250,700,l),
(78,700,l),
(78,0,l)
);
}
);
width = 648;
},
{
anchors = (
{
name = bottom;
pos = (338,0);
},
{
name = top;
pos = (118,700);
}
);
layerId = "0B743EE9-64DA-4675-B861-51D53379FCF4";
shapes = (
{
closed = 1;
nodes = (
(551,0,l),
(551,47,l),
(144,47,l),
(144,700,l),
(92,700,l),
(92,0,l)
);
}
);
width = 596;
}
);
unicode = 76;
},
{
glyphname = Lslash;
kernLeft = H;
kernRight = L;
lastChange = "2024-11-12 17:31:02 +0000";
layers = (
{
layerId = m001;
shapes = (
{
closed = 1;
nodes = (
(579,0,l),
(579,68,l),
(184,68,l),
(184,304,l),
(360,441,l),
(360,515,l),
(184,378,l),
(184,700,l),
(107,700,l),
(107,318,l),
(14,245,l),
(14,171,l),
(107,244,l),
(107,0,l)
);
}
);
width = 625;
},
{
layerId = "1A2B284C-0E56-44A1-A1FF-F0AD058F6D22";
shapes = (
{
closed = 1;
nodes = (
(626,0,l),
(626,147,l),
(279,147,l),
(279,311,l),
(432,401,l),
(432,543,l),
(279,453,l),
(279,700,l),
(107,700,l),
(107,353,l),
(10,296,l),
(10,154,l),
(107,211,l),
(107,0,l)
);
}
);
width = 677;
},
{
layerId = "0B743EE9-64DA-4675-B861-51D53379FCF4";
shapes = (
{
closed = 1;
nodes = (
(566,0,l),
(566,47,l),
(159,47,l),
(159,276,l),
(341,430,l),
(341,489,l),
(159,335,l),
(159,700,l),
(107,700,l),
(107,297,l),
(15,220,l),
(15,161,l),
(107,238,l),
(107,0,l)
);
}
);
width = 611;
}
);
unicode = 321;
},
{
glyphname = M;
kernLeft = H;
kernRight = H;
lastChange = "2024-11-12 17:31:02 +0000";
layers = (
{
layerId = m001;
shapes = (
{
closed = 1;
nodes = (
(161,0,l),
(161,611,l),
(430,50,l),
(698,609,l),
(698,0,l),
(771,0,l),
(771,700,l),
(664,700,l),
(430,202,l),
(196,700,l),
(89,700,l),
(89,0,l)
);
}
);
width = 860;
},
{
layerId = "1A2B284C-0E56-44A1-A1FF-F0AD058F6D22";
shapes = (
{
closed = 1;
nodes = (
(236,0,l),
(236,479,l),
(461,50,l),
(685,475,l),
(685,0,l),
(847,0,l),
(847,700,l),
(631,700,l),
(463,364,l),
(294,700,l),
(78,700,l),
(78,0,l)
);
}
);
width = 925;
},
{
layerId = "0B743EE9-64DA-4675-B861-51D53379FCF4";
shapes = (
{
closed = 1;
nodes = (
(141,0,l),
(141,653,l),
(422,50,l),
(702,653,l),
(702,0,l),
(751,0,l),
(751,700,l),
(673,700,l),
(422,165,l),
(170,700,l),
(92,700,l),
(92,0,l)
);
}
);
width = 843;
}
);
unicode = 77;
},
{
glyphname = N;
kernLeft = H;
kernRight = H;
lastChange = "2024-11-12 17:31:02 +0000";
layers = (
{
anchors = (
{
name = bottom;
pos = (373,0);
},
{
name = top;
pos = (373,700);
}
);
layerId = m001;
shapes = (
{
closed = 1;
nodes = (
(162,0,l),
(160,593,l),
(580,0,l),
(650,0,l),
(650,700,l),
(577,700,l),
(579,120,l),
(169,700,l),
(89,700,l),
(89,0,l)
);
}
);
width = 739;
},
{
anchors = (
{
name = bottom;
pos = (387,0);
},
{
name = top;
pos = (387,700);
}
);
layerId = "1A2B284C-0E56-44A1-A1FF-F0AD058F6D22";
shapes = (
{
closed = 1;
nodes = (
(240,0,l),
(237,438,l),
(558,0,l),
(710,0,l),
(710,700,l),
(548,700,l),
(551,276,l),
(240,700,l),
(78,700,l),
(78,0,l)
);
}
);
width = 788;
},
{
anchors = (
{
name = bottom;
pos = (356,0);
},
{
name = top;
pos = (356,700);
}
);
layerId = "0B743EE9-64DA-4675-B861-51D53379FCF4";
shapes = (
{
closed = 1;
nodes = (
(141,0,l),
(141,631,l),
(586,0,l),
(634,0,l),
(634,700,l),
(585,700,l),
(585,83,l),
(150,700,l),
(92,700,l),
(92,0,l)
);
}
);
width = 726;
}
);
unicode = 78;
},
{
glyphname = Eng;
kernLeft = H;
kernRight = H;
lastChange = "2024-11-12 17:31:02 +0000";
layers = (
{
layerId = m001;
shapes = (
{
closed = 1;
nodes = (
(607,-219,o),
(650,-173,o),
(650,-94,cs),
(650,700,l),
(577,700,l),
(578,123,l),
(169,700,l),
(89,700,l),
(89,0,l),
(162,0,l),
(161,590,l),
(579,1,l),
(579,-87,ls),
(579,-135,o),
(561,-155,o),
(518,-155,cs),
(503,-155,o),
(493,-154,o),
(482,-151,c),
(482,-213,l),
(495,-216,o),
(511,-219,o),
(527,-219,cs)
);
}
);
width = 739;
},
{
layerId = "1A2B284C-0E56-44A1-A1FF-F0AD058F6D22";
shapes = (
{
closed = 1;
nodes = (
(647,-219,o),
(710,-159,o),
(710,-53,cs),
(710,700,l),
(548,700,l),
(548,286,l),
(240,700,l),
(78,700,l),
(78,0,l),
(240,0,l),
(240,428,l),
(556,3,l),
(556,-43,ls),
(556,-76,o),
(539,-91,o),
(503,-91,cs),
(485,-91,o),
(472,-90,o),
(457,-87,c),
(457,-209,l),
(475,-215,o),
(510,-219,o),
(535,-219,cs)
);
}
);
width = 788;
},
{
layerId = "0B743EE9-64DA-4675-B861-51D53379FCF4";
shapes = (
{
closed = 1;
nodes = (
(596,-219,o),
(634,-177,o),
(634,-105,cs),
(634,700,l),
(585,700,l),
(585,83,l),
(150,700,l),
(92,700,l),
(92,0,l),
(141,0,l),
(141,631,l),
(585,1,l),
(585,-102,ls),
(585,-151,o),
(568,-173,o),
(523,-173,cs),
(510,-173,o),
(500,-171,o),
(490,-167,c),
(490,-215,l),
(501,-217,o),
(512,-219,o),
(526,-219,cs)
);
}
);
width = 726;
}
);
unicode = 330;
},
{
glyphname = O;
kernLeft = O;
kernRight = O;
lastChange = "2024-11-12 17:31:02 +0000";
layers = (
{
anchors = (
{
name = top;
pos = (404,700);
}
);
layerId = m001;
shapes = (
{
closed = 1;
nodes = (
(599,-11,o),
(753,148,o),
(753,350,cs),
(753,552,o),
(599,711,o),
(405,711,cs),
(211,711,o),
(57,552,o),
(57,350,cs),
(57,148,o),
(211,-11,o),
(405,-11,cs)
);
},
{
closed = 1;
nodes = (
(253,59,o),
(135,186,o),
(135,350,cs),
(135,514,o),
(253,641,o),
(405,641,cs),
(557,641,o),
(675,514,o),
(675,350,cs),
(675,186,o),
(557,59,o),
(405,59,cs)
);
}
);
userData = {
SBAlt = right;
com.typemytype.robofont.guideline.magnetic.XeeoA2UKjG = 5;
com.typemytype.robofont.guideline.magnetic.oAYbrrMruX = 5;
com.typemytype.robofont.guideline.magnetic.ykhuxi90vV = 5;
};
width = 810;
},
{
anchors = (
{
name = top;
pos = (407,700);
}
);
layerId = "1A2B284C-0E56-44A1-A1FF-F0AD058F6D22";
shapes = (
{
closed = 1;
nodes = (
(610,-11,o),
(769,148,o),
(769,350,cs),
(769,552,o),
(610,711,o),
(407,711,cs),
(204,711,o),
(45,552,o),
(45,350,cs),
(45,148,o),
(204,-11,o),
(407,-11,cs)
);
},
{
closed = 1;
nodes = (
(302,142,o),
(222,231,o),
(222,350,cs),
(222,469,o),
(302,558,o),
(407,558,cs),
(512,558,o),
(592,469,o),
(592,350,cs),
(592,231,o),
(512,142,o),
(407,142,cs)
);
}
);
userData = {
SBAlt = right;
com.typemytype.robofont.guideline.magnetic.XeeoA2UKjG = 5;
com.typemytype.robofont.guideline.magnetic.oAYbrrMruX = 5;
com.typemytype.robofont.guideline.magnetic.ykhuxi90vV = 5;
};
width = 814;
},
{
anchors = (
{
name = top;
pos = (404,700);
}
);
layerId = "0B743EE9-64DA-4675-B861-51D53379FCF4";
shapes = (
{
closed = 1;
nodes = (
(596,-11,o),
(748,148,o),
(748,350,cs),
(748,552,o),
(596,711,o),
(404,711,cs),
(212,711,o),
(60,552,o),
(60,350,cs),
(60,148,o),
(212,-11,o),
(404,-11,cs)
);
},
{
closed = 1;
nodes = (
(239,37,o),
(112,174,o),
(112,350,cs),
(112,526,o),
(239,663,o),
(404,663,cs),
(569,663,o),
(696,526,o),
(696,350,cs),
(696,174,o),
(569,37,o),
(404,37,cs)
);
}
);
userData = {
SBAlt = right;
com.typemytype.robofont.guideline.magnetic.XeeoA2UKjG = 5;
com.typemytype.robofont.guideline.magnetic.oAYbrrMruX = 5;
com.typemytype.robofont.guideline.magnetic.ykhuxi90vV = 5;
};
width = 808;
}
);
unicode = 79;
},
{
glyphname = Oslash;
kernLeft = O;
kernRight = O;
lastChange = "2024-11-12 17:31:02 +0000";
layers = (
{
layerId = m001;
shapes = (
{
closed = 1;
nodes = (
(600,-11,o),
(753,148,o),
(753,350,cs),
(753,451,o),
(715,542,o),
(652,607,c),
(732,705,l),
(657,705,l),
(608,645,l),
(551,687,o),
(481,711,o),
(405,711,cs),
(211,711,o),
(57,552,o),
(57,350,cs),
(57,249,o),
(95,159,o),
(158,94,c),
(77,-5,l),
(150,-5,l),
(200,57,l),
(258,14,o),
(328,-11,o),
(405,-11,cs)
);
},
{
closed = 1;
nodes = (
(161,203,o),
(135,273,o),
(135,350,cs),
(135,514,o),
(253,641,o),
(405,641,cs),
(464,641,o),
(518,622,o),
(562,589,c),
(205,152,l)
);
},
{
closed = 1;
nodes = (
(345,59,o),
(291,79,o),
(246,113,c),
(604,549,l),
(649,498,o),
(675,428,o),
(675,350,cs),
(675,186,o),
(558,59,o),
(405,59,cs)
);
}
);
width = 810;
},
{
layerId = "1A2B284C-0E56-44A1-A1FF-F0AD058F6D22";
shapes = (
{
closed = 1;
nodes = (
(610,-11,o),
(769,148,o),
(769,350,cs),
(769,442,o),
(736,525,o),
(681,588,c),
(776,700,l),
(636,700,l),
(599,657,l),
(544,691,o),
(478,711,o),
(407,711,cs),
(204,711,o),
(45,552,o),
(45,350,cs),
(45,258,o),
(78,175,o),
(133,112,c),
(38,0,l),
(178,0,l),
(215,43,l),
(270,9,o),
(336,-11,o),
(407,-11,cs)
);
},
{
closed = 1;
nodes = (
(231,274,o),
(222,311,o),
(222,350,cs),
(222,469,o),
(302,558,o),
(407,558,cs),
(439,558,o),
(469,550,o),
(495,535,c),
(246,244,l)
);
},
{
closed = 1;
nodes = (
(375,142,o),
(345,150,o),
(319,165,c),
(568,456,l),
(583,426,o),
(592,389,o),
(592,350,cs),
(592,231,o),
(512,142,o),
(407,142,cs)
);
}
);
width = 814;
},
{
layerId = "0B743EE9-64DA-4675-B861-51D53379FCF4";
shapes = (
{
closed = 1;
nodes = (
(596,-11,o),
(748,148,o),
(748,350,cs),
(748,452,o),
(709,544,o),
(645,609,c),
(720,700,l),
(663,700,l),
(613,639,l),
(555,684,o),
(483,711,o),
(404,711,cs),
(212,711,o),
(60,552,o),
(60,350,cs),
(60,248,o),
(99,156,o),
(163,91,c),
(88,0,l),
(145,0,l),
(195,61,l),
(253,16,o),
(325,-11,o),
(404,-11,cs)
);
},
{
closed = 1;
nodes = (
(143,186,o),
(112,263,o),
(112,350,cs),
(112,526,o),
(239,663,o),
(404,663,cs),
(472,663,o),
(533,640,o),
(581,601,c),
(194,129,l)
);
},
{
closed = 1;
nodes = (
(336,37,o),
(275,60,o),
(227,99,c),
(614,571,l),
(665,514,o),
(696,437,o),
(696,350,cs),
(696,174,o),
(569,37,o),
(404,37,cs)
);
}
);
width = 808;
}
);
unicode = 216;
},
{
glyphname = OE;
kernLeft = O;
kernRight = E;
lastChange = "2024-11-12 17:31:02 +0000";
layers = (
{
layerId = m001;
shapes = (
{
closed = 1;
nodes = (
(1012,0,l),
(1012,68,l),
(579,68,l),
(657,124,o),
(708,216,o),
(717,320,c),
(890,320,l),
(890,387,l),
(716,387,l),
(706,489,o),
(655,578,o),
(578,632,c),
(1012,632,l),
(1012,700,l),
(399,700,ls),
(204,700,o),
(56,549,o),
(56,350,cs),
(56,151,o),
(204,0,o),
(399,0,cs)
);
},
{
closed = 1;
nodes = (
(244,69,o),
(133,191,o),
(133,350,cs),
(133,509,o),
(244,631,o),
(389,631,cs),
(534,631,o),
(645,509,o),
(645,350,cs),
(645,191,o),
(534,69,o),
(389,69,cs)
);
}
);
width = 1060;
},
{
layerId = "1A2B284C-0E56-44A1-A1FF-F0AD058F6D22";
shapes = (
{
closed = 1;
nodes = (
(1019,0,l),
(1019,149,l),
(667,149,l),
(695,188,o),
(715,233,o),
(724,281,c),
(902,281,l),
(902,425,l),
(723,425,l),
(713,471,o),
(694,513,o),
(668,551,c),
(1019,551,l),
(1019,700,l),
(401,700,ls),
(196,700,o),
(45,551,o),
(45,350,cs),
(45,149,o),
(196,0,o),
(401,0,cs)
);
},
{
closed = 1;
nodes = (
(291,147,o),
(214,235,o),
(214,350,cs),
(214,465,o),
(291,553,o),
(391,553,cs),
(491,553,o),
(568,465,o),
(568,350,cs),
(568,235,o),
(491,147,o),
(391,147,cs)
);
}
);
width = 1076;
},
{
layerId = "0B743EE9-64DA-4675-B861-51D53379FCF4";
shapes = (
{
closed = 1;
nodes = (
(1010,0,l),
(1010,47,l),
(550,47,l),
(645,103,o),
(711,206,o),
(717,330,c),
(887,330,l),
(887,377,l),
(717,377,l),
(709,498,o),
(643,598,o),
(550,653,c),
(1006,653,l),
(1006,700,l),
(389,700,ls),
(206,700,o),
(60,546,o),
(60,350,cs),
(60,154,o),
(206,0,o),
(389,0,cs)
);
},
{
closed = 1;
nodes = (
(233,48,o),
(112,180,o),
(112,350,cs),
(112,520,o),
(233,652,o),
(389,652,cs),
(545,652,o),
(666,520,o),
(666,350,cs),
(666,180,o),
(545,48,o),
(389,48,cs)
);
}
);
width = 1056;
}
);
unicode = 338;
},
{
glyphname = P;
kernLeft = H;
lastChange = "2024-11-12 17:31:02 +0000";
layers = (
{
layerId = m001;
shapes = (
{
closed = 1;
nodes = (
(166,0,l),
(166,286,l),
(378,286,ls),
(514,286,o),
(601,368,o),
(601,493,cs),
(601,618,o),
(514,700,o),
(378,700,cs),
(89,700,l),
(89,0,l)
);
},
{
closed = 1;
nodes = (
(166,632,l),
(369,632,ls),
(466,632,o),
(524,579,o),
(524,493,cs),
(524,406,o),
(466,352,o),
(369,352,cs),
(166,352,l)
);
}
);
width = 654;
},
{
layerId = "1A2B284C-0E56-44A1-A1FF-F0AD058F6D22";
shapes = (
{
closed = 1;
nodes = (
(250,0,l),
(250,244,l),
(420,244,ls),
(569,244,o),
(667,342,o),
(667,469,cs),
(667,603,o),
(569,700,o),
(420,700,cs),
(78,700,l),
(78,0,l)
);
},
{
closed = 1;
nodes = (
(250,558,l),
(390,558,ls),
(459,558,o),
(493,520,o),
(493,470,cs),
(493,419,o),
(459,381,o),
(389,381,cs),
(250,381,l)
);
}
);
width = 710;
},
{
layerId = "0B743EE9-64DA-4675-B861-51D53379FCF4";
shapes = (
{
closed = 1;
nodes = (
(144,0,l),
(144,298,l),
(367,298,ls),
(501,298,o),
(584,378,o),
(584,499,cs),
(584,620,o),
(501,700,o),
(367,700,cs),
(92,700,l),
(92,0,l)
);
},
{
closed = 1;
nodes = (
(144,653,l),
(364,653,ls),
(471,653,o),
(532,592,o),
(532,499,cs),
(532,406,o),
(471,345,o),
(364,345,cs),
(144,345,l)
);
}
);
width = 639;
}
);
unicode = 80;
},
{
glyphname = Thorn;
kernLeft = H;
lastChange = "2024-11-12 17:31:02 +0000";
layers = (
{
layerId = m001;
shapes = (
{
closed = 1;
nodes = (
(166,0,l),
(166,143,l),
(378,143,ls),
(514,143,o),
(601,225,o),
(601,350,cs),
(601,475,o),
(514,557,o),
(378,557,cs),
(166,557,l),
(166,700,l),
(89,700,l),
(89,0,l)
);
},
{
closed = 1;
nodes = (
(166,490,l),
(369,490,ls),
(466,490,o),
(524,436,o),
(524,350,cs),
(524,264,o),
(466,209,o),
(369,209,cs),
(166,209,l)
);
}
);
width = 654;
},
{
layerId = "1A2B284C-0E56-44A1-A1FF-F0AD058F6D22";
shapes = (
{
closed = 1;
nodes = (
(250,0,l),
(250,122,l),
(420,122,ls),
(569,122,o),
(667,220,o),
(667,347,cs),
(667,481,o),
(569,578,o),
(420,578,cs),
(250,578,l),
(250,700,l),
(78,700,l),
(78,0,l)
);
},
{
closed = 1;
nodes = (
(250,436,l),
(390,436,ls),
(459,436,o),
(493,398,o),
(493,348,cs),
(493,297,o),
(459,259,o),
(389,259,cs),
(250,259,l)
);
}
);
width = 710;
},
{
layerId = "0B743EE9-64DA-4675-B861-51D53379FCF4";
shapes = (
{
closed = 1;
nodes = (
(144,0,l),
(144,150,l),
(367,150,ls),
(501,150,o),
(584,230,o),
(584,351,cs),
(584,472,o),
(501,552,o),
(367,552,cs),
(144,552,l),
(144,700,l),
(92,700,l),
(92,0,l)
);
},
{
closed = 1;
nodes = (
(144,505,l),
(364,505,ls),
(471,505,o),
(532,444,o),
(532,351,cs),
(532,258,o),
(471,197,o),
(364,197,cs),
(144,197,l)
);
}
);
width = 639;
}
);
unicode = 222;
},
{
glyphname = Q;
kernLeft = O;
kernRight = O;
lastChange = "2024-11-12 17:31:02 +0000";
layers = (
{
layerId = m001;
shapes = (
{
closed = 1;
nodes = (
(722,-13,l),
(642,84,l),
(710,149,o),
(753,244,o),
(753,350,cs),
(753,552,o),
(599,711,o),
(405,711,cs),
(211,711,o),
(57,552,o),
(57,350,cs),
(57,148,o),
(211,-11,o),
(405,-11,cs),
(473,-11,o),
(535,8,o),
(588,42,c),
(643,-24,l)
);
},
{
closed = 1;
nodes = (
(253,59,o),
(135,186,o),
(135,350,cs),
(135,514,o),
(253,641,o),
(405,641,cs),
(557,641,o),
(675,514,o),
(675,350,cs),
(675,266,o),
(644,193,o),
(594,140,c),
(519,230,l),
(440,218,l),
(542,97,l),
(502,73,o),
(455,59,o),
(405,59,cs)
);
}
);
userData = {
com.typemytype.robofont.guideline.magnetic.JHV6wmzxTE = 5;
com.typemytype.robofont.guideline.magnetic.bVqK8jFN2d = 5;
com.typemytype.robofont.guideline.magnetic.eQKCL0QlCw = 5;
};
width = 810;
},
{
layerId = "1A2B284C-0E56-44A1-A1FF-F0AD058F6D22";
shapes = (
{
closed = 1;
nodes = (
(740,2,l),
(665,95,l),
(730,160,o),
(769,250,o),
(769,350,cs),
(769,552,o),
(610,711,o),
(407,711,cs),
(204,711,o),
(45,552,o),
(45,350,cs),
(45,148,o),
(204,-11,o),
(407,-11,cs),
(455,-11,o),
(500,-2,o),
(541,14,c),
(594,-52,l)
);
},
{
closed = 1;
nodes = (
(302,142,o),
(222,231,o),
(222,350,cs),
(222,469,o),
(302,558,o),
(407,558,cs),
(512,558,o),
(592,469,o),
(592,350,cs),
(592,304,o),
(580,263,o),
(560,230,c),
(513,289,l),
(367,235,l),
(438,145,l),
(428,143,o),
(418,142,o),
(407,142,cs)
);
}
);
userData = {
com.typemytype.robofont.guideline.magnetic.JHV6wmzxTE = 5;
com.typemytype.robofont.guideline.magnetic.bVqK8jFN2d = 5;
com.typemytype.robofont.guideline.magnetic.eQKCL0QlCw = 5;
};
width = 814;
},
{
layerId = "0B743EE9-64DA-4675-B861-51D53379FCF4";
shapes = (
{
closed = 1;
nodes = (
(712,-11,l),
(633,79,l),
(704,145,o),
(748,241,o),
(748,350,cs),
(748,552,o),
(596,711,o),
(404,711,cs),
(212,711,o),
(60,552,o),
(60,350,cs),
(60,148,o),
(212,-11,o),
(404,-11,cs),
(476,-11,o),
(542,11,o),
(596,49,c),
(656,-19,l)
);
},
{
closed = 1;
nodes = (
(239,37,o),
(112,174,o),
(112,350,cs),
(112,526,o),
(239,663,o),
(404,663,cs),
(569,663,o),
(696,526,o),
(696,350,cs),
(696,256,o),
(660,173,o),
(601,117,c),
(511,221,l),
(455,213,l),
(564,86,l),
(519,55,o),
(464,37,o),
(404,37,cs)
);
}
);
userData = {
com.typemytype.robofont.guideline.magnetic.JHV6wmzxTE = 5;
com.typemytype.robofont.guideline.magnetic.bVqK8jFN2d = 5;
com.typemytype.robofont.guideline.magnetic.eQKCL0QlCw = 5;
};
width = 808;
}
);
unicode = 81;
},
{
glyphname = R;
kernLeft = H;
kernRight = R;
lastChange = "2024-11-12 17:31:02 +0000";
layers = (
{
anchors = (
{
name = bottom;
pos = (325,0);
},
{
name = top;
pos = (325,700);
}
);
layerId = m001;
shapes = (
{
closed = 1;
nodes = (
(166,0,l),
(166,299,l),
(375,299,l),
(517,0,l),
(602,0,l),
(453,309,l),
(543,335,o),
(599,405,o),
(599,498,cs),
(599,619,o),
(510,700,o),
(376,700,cs),
(89,700,l),
(89,0,l)
);
},
{
closed = 1;
nodes = (
(166,632,l),
(370,632,ls),
(462,632,o),
(522,579,o),
(522,497,cs),
(522,416,o),
(462,363,o),
(370,363,cs),
(166,363,l)
);
}
);
width = 647;
},
{
anchors = (
{
name = bottom;
pos = (355,0);
},
{
name = top;
pos = (349,700);
}
);
layerId = "1A2B284C-0E56-44A1-A1FF-F0AD058F6D22";
shapes = (
{
closed = 1;
nodes = (
(250,0,l),
(250,257,l),
(363,257,l),
(490,0,l),
(682,0,l),
(535,281,l),
(614,316,o),
(665,388,o),
(665,477,cs),
(665,607,o),
(562,700,o),
(418,700,cs),
(78,700,l),
(78,0,l)
);
},
{
closed = 1;
nodes = (
(250,558,l),
(402,558,ls),
(455,558,o),
(491,525,o),
(491,475,cs),
(491,425,o),
(455,392,o),
(402,392,cs),
(250,392,l)
);
}
);
width = 703;
},
{
anchors = (
{
name = bottom;
pos = (309,0);
},
{
name = top;
pos = (309,700);
}
);
layerId = "0B743EE9-64DA-4675-B861-51D53379FCF4";
shapes = (
{
closed = 1;
nodes = (
(144,0,l),
(144,308,l),
(380,308,l),
(524,0,l),
(581,0,l),
(434,316,l),
(528,339,o),
(582,412,o),
(582,503,cs),
(582,615,o),
(504,700,o),
(365,700,cs),
(92,700,l),
(92,0,l)
);
},
{
closed = 1;
nodes = (
(144,653,l),
(362,653,ls),
(471,653,o),
(530,588,o),
(530,503,cs),
(530,419,o),
(471,355,o),
(362,355,cs),
(144,355,l)
);
}
);
width = 632;
}
);
unicode = 82;
},
{
glyphname = S;
kernLeft = S;
kernRight = S;
lastChange = "2024-11-15 12:48:35 +0000";
layers = (
{
anchors = (
{
name = bottom;
pos = (314,2);
},
{
name = top;
pos = (290,702);
}
);
layerId = m001;
shapes = (
{
closed = 1;
nodes = (
(469,-11,o),
(581,79,o),
(581,201,c),
(581,306,o),
(517,362,o),
(368,389,cs),
(256,408,ls),
(162,423,o),
(124,455,o),
(124,517,cs),
(124,590,o),
(193,646,o),
(291,646,cs),
(373,646,o),
(455,616,o),
(527,562,c),
(567,622,l),
(480,683,o),
(394,711,o),
(290,711,c),
(148,711,o),
(50,627,o),
(50,509,c),
(50,415,o),
(107,362,o),
(235,339,cs),
(348,320,ls),
(462,300,o),
(504,267,o),
(504,197,cs),
(504,115,o),
(425,55,o),
(317,55,cs),
(226,55,o),
(159,85,o),
(75,164,c),
(28,108,l),
(114,28,o),
(205,-11,o),
(315,-11,c)
);
}
);
userData = {
SBAlt = right;
};
width = 623;
},
{
anchors = (
{
name = bottom;
pos = (319,0);
},
{
name = top;
pos = (320,700);
}
);
layerId = "1A2B284C-0E56-44A1-A1FF-F0AD058F6D22";
shapes = (
{
closed = 1;
nodes = (
(505,-11,o),
(621,82,o),
(621,219,c),
(621,326,o),
(552,395,o),
(421,417,cs),
(281,441,ls),
(225,451,o),
(202,469,o),
(202,505,cs),
(202,543,o),
(241,571,o),
(309,571,cs),
(383,571,o),
(450,546,o),
(518,494,c),
(605,619,l),
(533,676,o),
(426,711,o),
(318,711,c),
(144,711,o),
(40,626,o),
(40,490,c),
(40,391,o),
(101,321,o),
(212,302,cs),
(361,276,ls),
(429,264,o),
(453,244,o),
(453,203,cs),
(453,159,o),
(408,129,o),
(334,129,cs),
(265,129,o),
(204,154,o),
(107,222,c),
(19,95,l),
(112,26,o),
(211,-11,o),
(322,-11,c)
);
}
);
userData = {
SBAlt = right;
};
width = 655;
},
{
anchors = (
{
name = bottom;
pos = (302,2);
},
{
name = top;
pos = (293,702);
}
);
layerId = "0B743EE9-64DA-4675-B861-51D53379FCF4";
shapes = (
{
closed = 1;
nodes = (
(459,-11,o),
(569,76,o),
(569,195,c),
(569,299,o),
(505,355,o),
(354,381,cs),
(250,399,ls),
(145,418,o),
(104,452,o),
(104,520,cs),
(104,603,o),
(181,663,o),
(286,663,cs),
(370,663,o),
(458,632,o),
(529,577,c),
(558,621,l),
(465,685,o),
(380,711,o),
(285,711,c),
(148,711,o),
(52,631,o),
(52,516,c),
(52,424,o),
(111,372,o),
(241,349,cs),
(345,331,ls),
(471,309,o),
(517,272,o),
(517,196,cs),
(517,106,o),
(428,37,o),
(311,37,cs),
(213,37,o),
(147,67,o),
(65,150,c),
(30,114,l),
(106,33,o),
(198,-11,o),
(310,-11,c)
);
}
);
userData = {
SBAlt = right;
};
width = 614;
}
);
note = "Version created Fri Aug  3 17:49:29 2018";
unicode = 83;
},
{
glyphname = Scedilla;
kernLeft = S;
kernRight = S;
lastChange = "2024-11-12 17:31:02 +0000";
layers = (
{
layerId = m001;
shapes = (
{
closed = 1;
nodes = (
(371,-237,o),
(417,-198,o),
(417,-144,cs),
(417,-97,o),
(379,-67,o),
(320,-64,c),
(332,-11,l),
(477,-4,o),
(581,84,o),
(581,201,cs),
(581,306,o),
(517,362,o),
(368,389,cs),
(256,408,ls),
(162,423,o),
(124,455,o),
(124,517,cs),
(124,590,o),
(193,646,o),
(291,646,cs),
(373,646,o),
(455,616,o),
(527,562,c),
(567,622,l),
(480,683,o),
(394,711,o),
(290,711,cs),
(148,711,o),
(50,627,o),
(50,509,cs),
(50,415,o),
(107,362,o),
(235,339,cs),
(348,320,ls),
(462,300,o),
(504,267,o),
(504,197,cs),
(504,115,o),
(425,55,o),
(317,55,cs),
(226,55,o),
(159,85,o),
(75,164,c),
(28,108,l),
(107,34,o),
(191,-5,o),
(290,-10,c),
(268,-97,l),
(297,-97,ls),
(342,-97,o),
(368,-115,o),
(368,-146,cs),
(368,-178,o),
(344,-198,o),
(303,-198,cs),
(274,-198,o),
(247,-188,o),
(224,-169,c),
(196,-201,l),
(223,-225,o),
(261,-237,o),
(306,-237,cs)
);
}
);
width = 623;
},
{
layerId = "1A2B284C-0E56-44A1-A1FF-F0AD058F6D22";
shapes = (
{
closed = 1;
nodes = (
(387,-254,o),
(444,-206,o),
(444,-144,cs),
(444,-95,o),
(405,-63,o),
(342,-58,c),
(354,-10,l),
(518,0,o),
(621,90,o),
(621,219,cs),
(621,326,o),
(552,395,o),
(421,417,cs),
(281,441,ls),
(225,451,o),
(202,469,o),
(202,505,cs),
(202,543,o),
(241,571,o),
(309,571,cs),
(383,571,o),
(450,546,o),
(518,494,c),
(605,619,l),
(533,676,o),
(426,711,o),
(318,711,cs),
(144,711,o),
(40,626,o),
(40,490,cs),
(40,391,o),
(101,321,o),
(212,302,cs),
(361,276,ls),
(429,264,o),
(453,244,o),
(453,203,cs),
(453,159,o),
(408,129,o),
(334,129,cs),
(265,129,o),
(204,154,o),
(107,222,c),
(19,95,l),
(100,35,o),
(186,-1,o),
(281,-9,c),
(256,-111,l),
(301,-111,ls),
(336,-111,o),
(357,-124,o),
(357,-146,cs),
(357,-170,o),
(338,-183,o),
(303,-183,cs),
(277,-183,o),
(249,-173,o),
(226,-155,c),
(177,-212,l),
(209,-240,o),
(253,-254,o),
(312,-254,cs)
);
}
);
width = 655;
},
{
layerId = "0B743EE9-64DA-4675-B861-51D53379FCF4";
shapes = (
{
closed = 1;
nodes = (
(356,-233,o),
(399,-196,o),
(399,-145,cs),
(399,-98,o),
(361,-68,o),
(303,-66,c),
(315,-11,l),
(460,-11,o),
(570,76,o),
(570,192,cs),
(570,299,o),
(506,354,o),
(354,381,cs),
(250,399,ls),
(145,418,o),
(104,452,o),
(104,520,cs),
(104,603,o),
(181,663,o),
(286,663,cs),
(370,663,o),
(458,632,o),
(529,577,c),
(557,621,l),
(464,684,o),
(380,711,o),
(283,711,cs),
(148,711,o),
(52,631,o),
(52,519,cs),
(52,424,o),
(111,372,o),
(241,349,cs),
(345,331,ls),
(472,309,o),
(518,272,o),
(518,196,cs),
(518,106,o),
(429,37,o),
(312,37,cs),
(214,37,o),
(148,67,o),
(66,150,c),
(30,113,l),
(104,35,o),
(183,-4,o),
(282,-10,c),
(260,-94,l),
(285,-94,ls),
(333,-94,o),
(361,-113,o),
(361,-147,cs),
(361,-181,o),
(335,-202,o),
(292,-202,cs),
(262,-202,o),
(235,-192,o),
(212,-173,c),
(190,-199,l),
(216,-222,o),
(252,-233,o),
(293,-233,cs)
);
}
);
width = 614;
}
);
unicode = 350;
},
{
color = 5;
glyphname = Germandbls;
lastChange = "2024-11-12 19:33:27 +0000";
layers = (
{
anchors = (
{
name = bottom;
pos = (313,0);
},
{
name = top;
pos = (313,700);
}
);
layerId = "0B743EE9-64DA-4675-B861-51D53379FCF4";
shapes = (
{
closed = 1;
nodes = (
(499,-11,o),
(581,63,o),
(581,154,cs),
(581,230,o),
(540,287,o),
(457,327,cs),
(385,362,o),
(365,379,o),
(365,403,cs),
(365,416,o),
(376,433,o),
(412,478,cs),
(543,641,l),
(543,700,l),
(92,700,l),
(92,0,l),
(144,0,l),
(144,653,l),
(489,653,l),
(360,485,ls),
(323,436,o),
(314,420,o),
(314,400,cs),
(314,359,o),
(340,333,o),
(428,287,cs),
(503,247,o),
(530,212,o),
(530,154,cs),
(530,87,o),
(472,33,o),
(399,33,cs),
(346,33,o),
(290,57,o),
(254,96,c),
(225,53,l),
(272,7,o),
(322,-11,o),
(400,-11,cs)
);
}
);
width = 641;
},
{
anchors = (
{
name = bottom;
pos = (316,0);
},
{
name = top;
pos = (316,700);
}
);
layerId = m001;
shapes = (
{
closed = 1;
nodes = (
(521,-11,o),
(607,64,o),
(607,154,cs),
(607,229,o),
(568,286,o),
(489,324,cs),
(418,359,o),
(401,372,o),
(401,393,cs),
(401,408,o),
(411,427,o),
(436,458,cs),
(559,611,l),
(559,700,l),
(88,700,l),
(88,0,l),
(165,0,l),
(165,636,l),
(488,636,l),
(372,485,ls),
(335,437,o),
(326,419,o),
(326,390,cs),
(326,348,o),
(351,323,o),
(436,278,cs),
(510,239,o),
(529,214,o),
(529,154,cs),
(529,100,o),
(478,55,o),
(415,55,cs),
(368,55,o),
(319,75,o),
(279,110,c),
(239,51,l),
(287,12,o),
(353,-11,o),
(416,-11,cs)
);
}
);
width = 664;
},
{
anchors = (
{
name = bottom;
pos = (322,0);
},
{
name = top;
pos = (322,700);
}
);
layerId = "1A2B284C-0E56-44A1-A1FF-F0AD058F6D22";
shapes = (
{
closed = 1;
nodes = (
(581,-11,o),
(660,61,o),
(660,178,cs),
(660,255,o),
(626,310,o),
(564,337,cs),
(518,357,o),
(496,373,o),
(496,393,cs),
(496,413,o),
(505,430,o),
(518,448,cs),
(631,602,l),
(631,700,l),
(68,700,l),
(68,0,l),
(236,0,l),
(236,566,l),
(426,566,l),
(364,475,ls),
(340,440,o),
(324,400,o),
(324,365,cs),
(324,314,o),
(357,272,o),
(408,249,cs),
(477,218,o),
(493,204,o),
(493,175,cs),
(493,146,o),
(477,132,o),
(442,132,cs),
(415,132,o),
(396,140,o),
(356,171,c),
(288,42,l),
(337,7,o),
(393,-11,o),
(456,-11,cs)
);
}
);
width = 705;
}
);
metricLeft = H;
metricRight = O;
unicode = 7838;
},
{
glyphname = T;
kernLeft = T;
kernRight = T;
lastChange = "2024-11-12 17:31:02 +0000";
layers = (
{
anchors = (
{
name = bottom;
pos = (308,0);
},
{
name = top;
pos = (308,700);
}
);
layerId = m001;
shapes = (
{
closed = 1;
nodes = (
(347,0,l),
(347,632,l),
(589,632,l),
(589,700,l),
(28,700,l),
(28,632,l),
(270,632,l),
(270,0,l)
);
}
);
width = 617;
},
{
anchors = (
{
name = bottom;
pos = (332,0);
},
{
name = top;
pos = (332,700);
}
);
layerId = "1A2B284C-0E56-44A1-A1FF-F0AD058F6D22";
shapes = (
{
closed = 1;
nodes = (
(418,0,l),
(418,553,l),
(643,553,l),
(643,700,l),
(21,700,l),
(21,553,l),
(246,553,l),
(246,0,l)
);
}
);
width = 664;
},
{
anchors = (
{
name = bottom;
pos = (302,0);
},
{
name = top;
pos = (302,700);
}
);
layerId = "0B743EE9-64DA-4675-B861-51D53379FCF4";
shapes = (
{
closed = 1;
nodes = (
(328,0,l),
(328,653,l),
(574,653,l),
(574,700,l),
(30,700,l),
(30,653,l),
(276,653,l),
(276,0,l)
);
}
);
width = 604;
}
);
unicode = 84;
},
{
glyphname = Tbar;
kernLeft = T;
kernRight = T;
lastChange = "2024-11-12 17:31:02 +0000";
layers = (
{
layerId = m001;
shapes = (
{
closed = 1;
nodes = (
(347,0,l),
(347,312,l),
(501,312,l),
(501,373,l),
(347,373,l),
(347,632,l),
(589,632,l),
(589,700,l),
(28,700,l),
(28,632,l),
(270,632,l),
(270,373,l),
(116,373,l),
(116,312,l),
(270,312,l),
(270,0,l)
);
}
);
width = 617;
},
{
layerId = "1A2B284C-0E56-44A1-A1FF-F0AD058F6D22";
shapes = (
{
closed = 1;
nodes = (
(418,0,l),
(418,259,l),
(540,259,l),
(540,379,l),
(418,379,l),
(418,553,l),
(643,553,l),
(643,700,l),
(21,700,l),
(21,553,l),
(246,553,l),
(246,379,l),
(124,379,l),
(124,259,l),
(246,259,l),
(246,0,l)
);
}
);
width = 664;
},
{
layerId = "0B743EE9-64DA-4675-B861-51D53379FCF4";
shapes = (
{
closed = 1;
nodes = (
(328,0,l),
(328,329,l),
(490,329,l),
(490,373,l),
(328,373,l),
(328,653,l),
(574,653,l),
(574,700,l),
(30,700,l),
(30,653,l),
(276,653,l),
(276,373,l),
(114,373,l),
(114,329,l),
(276,329,l),
(276,0,l)
);
}
);
width = 604;
}
);
unicode = 358;
},
{
glyphname = Tcedilla;
kernLeft = T;
kernRight = T;
lastChange = "2024-11-12 17:31:02 +0000";
layers = (
{
layerId = m001;
shapes = (
{
closed = 1;
nodes = (
(365,-239,o),
(411,-200,o),
(411,-146,cs),
(411,-99,o),
(373,-69,o),
(314,-66,c),
(329,0,l),
(347,0,l),
(347,632,l),
(589,632,l),
(589,700,l),
(28,700,l),
(28,632,l),
(270,632,l),
(270,0,l),
(287,0,l),
(262,-99,l),
(291,-99,ls),
(336,-99,o),
(362,-117,o),
(362,-148,cs),
(362,-180,o),
(338,-200,o),
(297,-200,cs),
(268,-200,o),
(241,-190,o),
(218,-171,c),
(190,-203,l),
(217,-227,o),
(255,-239,o),
(300,-239,cs)
);
}
);
width = 617;
},
{
layerId = "1A2B284C-0E56-44A1-A1FF-F0AD058F6D22";
shapes = (
{
closed = 1;
nodes = (
(400,-254,o),
(457,-206,o),
(457,-144,cs),
(457,-95,o),
(418,-63,o),
(355,-58,c),
(369,0,l),
(418,0,l),
(418,553,l),
(643,553,l),
(643,700,l),
(21,700,l),
(21,553,l),
(246,553,l),
(246,0,l),
(296,0,l),
(269,-111,l),
(314,-111,ls),
(349,-111,o),
(370,-124,o),
(370,-146,cs),
(370,-170,o),
(351,-183,o),
(316,-183,cs),
(290,-183,o),
(262,-173,o),
(239,-155,c),
(190,-212,l),
(222,-240,o),
(266,-254,o),
(325,-254,cs)
);
}
);
width = 664;
},
{
layerId = "0B743EE9-64DA-4675-B861-51D53379FCF4";
shapes = (
{
closed = 1;
nodes = (
(356,-235,o),
(399,-198,o),
(399,-147,cs),
(399,-100,o),
(361,-70,o),
(303,-68,c),
(318,0,l),
(328,0,l),
(328,653,l),
(574,653,l),
(574,700,l),
(30,700,l),
(30,653,l),
(276,653,l),
(276,0,l),
(285,0,l),
(260,-96,l),
(285,-96,ls),
(333,-96,o),
(361,-115,o),
(361,-149,cs),
(361,-183,o),
(335,-204,o),
(292,-204,cs),
(262,-204,o),
(235,-194,o),
(212,-175,c),
(190,-201,l),
(216,-224,o),
(252,-235,o),
(293,-235,cs)
);
}
);
width = 604;
}
);
unicode = 354;
},
{
glyphname = U;
kernLeft = U;
kernRight = U;
lastChange = "2024-11-12 17:31:02 +0000";
layers = (
{
anchors = (
{
name = bottom;
pos = (442,0);
},
{
name = top;
pos = (356,700);
}
);
layerId = m001;
shapes = (
{
closed = 1;
nodes = (
(529,-11,o),
(637,107,o),
(637,296,cs),
(637,700,l),
(560,700,l),
(560,296,ls),
(560,152,o),
(480,59,o),
(356,59,cs),
(232,59,o),
(152,152,o),
(152,296,cs),
(152,700,l),
(75,700,l),
(75,296,ls),
(75,107,o),
(183,-11,o),
(356,-11,cs)
);
}
);
width = 712;
},
{
anchors = (
{
name = bottom;
pos = (463,0);
},
{
name = top;
pos = (370,700);
}
);
layerId = "1A2B284C-0E56-44A1-A1FF-F0AD058F6D22";
shapes = (
{
closed = 1;
nodes = (
(563,-10,o),
(684,112,o),
(684,304,cs),
(684,700,l),
(512,700,l),
(512,304,ls),
(512,207,o),
(458,144,o),
(374,144,cs),
(290,144,o),
(236,207,o),
(236,304,cs),
(236,700,l),
(64,700,l),
(64,304,ls),
(64,112,o),
(185,-10,o),
(374,-10,cs)
);
}
);
width = 748;
},
{
anchors = (
{
name = bottom;
pos = (433,0);
},
{
name = top;
pos = (346,700);
}
);
layerId = "0B743EE9-64DA-4675-B861-51D53379FCF4";
shapes = (
{
closed = 1;
nodes = (
(513,-11,o),
(624,99,o),
(624,294,cs),
(624,700,l),
(572,700,l),
(572,294,ls),
(572,130,o),
(480,37,o),
(351,37,cs),
(222,37,o),
(130,130,o),
(130,294,cs),
(130,700,l),
(78,700,l),
(78,294,ls),
(78,99,o),
(189,-11,o),
(351,-11,cs)
);
}
);
width = 702;
}
);
unicode = 85;
},
{
glyphname = Uogonek;
kernLeft = U;
kernRight = U;
lastChange = "2024-11-12 17:31:02 +0000";
layers = (
{
layerId = m001;
shapes = (
{
closed = 1;
nodes = (
(421,-231,o),
(448,-224,o),
(467,-212,c),
(453,-173,l),
(441,-181,o),
(422,-185,o),
(405,-185,cs),
(363,-185,o),
(338,-164,o),
(338,-128,cs),
(338,-87,o),
(370,-47,o),
(442,0,c),
(564,33,o),
(637,141,o),
(637,296,cs),
(637,700,l),
(560,700,l),
(560,296,ls),
(560,152,o),
(480,59,o),
(356,59,cs),
(232,59,o),
(152,152,o),
(152,296,cs),
(152,700,l),
(75,700,l),
(75,296,ls),
(75,100,o),
(192,-19,o),
(373,-11,c),
(313,-56,o),
(288,-95,o),
(288,-140,cs),
(288,-195,o),
(330,-231,o),
(394,-231,cs)
);
}
);
width = 712;
},
{
layerId = "1A2B284C-0E56-44A1-A1FF-F0AD058F6D22";
shapes = (
{
closed = 1;
nodes = (
(435,-231,o),
(470,-222,o),
(492,-208,c),
(472,-138,l),
(462,-145,o),
(445,-149,o),
(427,-149,cs),
(397,-149,o),
(378,-132,o),
(378,-103,cs),
(378,-67,o),
(405,-35,o),
(463,0,c),
(600,33,o),
(684,144,o),
(684,304,cs),
(684,700,l),
(512,700,l),
(512,304,ls),
(512,207,o),
(458,144,o),
(374,144,cs),
(290,144,o),
(236,207,o),
(236,304,cs),
(236,700,l),
(64,700,l),
(64,304,ls),
(64,114,o),
(182,-7,o),
(366,-10,c),
(314,-47,o),
(291,-86,o),
(291,-132,cs),
(291,-191,o),
(334,-231,o),
(399,-231,cs)
);
}
);
width = 748;
},
{
layerId = "0B743EE9-64DA-4675-B861-51D53379FCF4";
shapes = (
{
closed = 1;
nodes = (
(415,-231,o),
(439,-224,o),
(456,-213,c),
(444,-182,l),
(431,-190,o),
(412,-195,o),
(395,-195,cs),
(352,-195,o),
(323,-174,o),
(323,-134,cs),
(323,-97,o),
(349,-56,o),
(432,-1,c),
(549,31,o),
(624,133,o),
(624,294,cs),
(624,700,l),
(572,700,l),
(572,294,ls),
(572,130,o),
(480,37,o),
(351,37,cs),
(222,37,o),
(130,130,o),
(130,294,cs),
(130,700,l),
(78,700,l),
(78,294,ls),
(78,86,o),
(204,-20,o),
(371,-10,c),
(306,-60,o),
(283,-99,o),
(283,-142,cs),
(283,-193,o),
(321,-231,o),
(389,-231,cs)
);
}
);
width = 702;
}
);
unicode = 370;
},
{
glyphname = V;
lastChange = "2024-11-12 17:31:02 +0000";
layers = (
{
layerId = m001;
shapes = (
{
closed = 1;
nodes = (
(375,0,l),
(651,700,l),
(572,700,l),
(331,74,l),
(91,700,l),
(9,700,l),
(283,0,l)
);
}
);
width = 660;
},
{
layerId = "1A2B284C-0E56-44A1-A1FF-F0AD058F6D22";
shapes = (
{
closed = 1;
nodes = (
(467,0,l),
(740,700,l),
(561,700,l),
(373,179,l),
(188,700,l),
(2,700,l),
(271,0,l)
);
}
);
width = 742;
},
{
layerId = "0B743EE9-64DA-4675-B861-51D53379FCF4";
shapes = (
{
closed = 1;
nodes = (
(352,0,l),
(628,700,l),
(575,700,l),
(320,45,l),
(65,700,l),
(11,700,l),
(287,0,l)
);
}
);
width = 639;
}
);
unicode = 86;
},
{
glyphname = W;
kernLeft = W;
kernRight = W;
lastChange = "2024-11-12 17:31:02 +0000";
layers = (
{
anchors = (
{
name = top;
pos = (450,700);
}
);
guides = (
{
pos = (449,700);
userData = {
UFO.identifier = xVZBJ1giCn;
};
}
);
layerId = m001;
shapes = (
{
closed = 1;
nodes = (
(271,0,l),
(449,594,l),
(626,0,l),
(704,0,l),
(855,700,l),
(780,700,l),
(660,123,l),
(487,700,l),
(412,700,l),
(239,121,l),
(120,700,l),
(42,700,l),
(193,0,l)
);
}
);
width = 897;
},
{
anchors = (
{
name = top;
pos = (490,700);
}
);
layerId = "1A2B284C-0E56-44A1-A1FF-F0AD058F6D22";
shapes = (
{
closed = 1;
nodes = (
(368,0,l),
(492,451,l),
(615,0,l),
(797,0,l),
(953,700,l),
(782,700,l),
(697,266,l),
(575,700,l),
(414,700,l),
(292,266,l),
(207,700,l),
(30,700,l),
(186,0,l)
);
}
);
width = 983;
},
{
anchors = (
{
name = top;
pos = (438,700);
}
);
guides = (
{
pos = (438,700);
userData = {
UFO.identifier = xVZBJ1giCn;
};
}
);
layerId = "0B743EE9-64DA-4675-B861-51D53379FCF4";
shapes = (
{
closed = 1;
nodes = (
(266,0,l),
(437,626,l),
(608,0,l),
(658,0,l),
(829,700,l),
(779,700,l),
(631,87,l),
(464,700,l),
(412,700,l),
(245,87,l),
(97,700,l),
(45,700,l),
(216,0,l)
);
}
);
width = 874;
}
);
unicode = 87;
},
{
glyphname = X;
kernRight = K;
lastChange = "2024-11-12 17:31:02 +0000";
layers = (
{
layerId = m001;
shapes = (
{
closed = 1;
nodes = (
(101,0,l),
(326,305,l),
(550,0,l),
(643,0,l),
(373,361,l),
(626,700,l),
(536,700,l),
(329,419,l),
(120,700,l),
(28,700,l),
(281,362,l),
(11,0,l)
);
}
);
userData = {
SBAlt = left;
};
width = 654;
},
{
layerId = "1A2B284C-0E56-44A1-A1FF-F0AD058F6D22";
shapes = (
{
closed = 1;
nodes = (
(207,0,l),
(374,236,l),
(540,0,l),
(745,0,l),
(477,358,l),
(729,700,l),
(532,700,l),
(382,488,l),
(231,700,l),
(26,700,l),
(279,364,l),
(10,0,l)
);
}
);
userData = {
SBAlt = left;
};
width = 755;
},
{
layerId = "0B743EE9-64DA-4675-B861-51D53379FCF4";
shapes = (
{
closed = 1;
nodes = (
(73,0,l),
(312,323,l),
(553,0,l),
(616,0,l),
(344,364,l),
(595,700,l),
(533,700,l),
(313,404,l),
(92,700,l),
(30,700,l),
(283,363,l),
(11,0,l)
);
}
);
userData = {
SBAlt = left;
};
width = 627;
}
);
unicode = 88;
},
{
glyphname = Y;
kernLeft = Y;
kernRight = Y;
lastChange = "2024-11-12 17:31:02 +0000";
layers = (
{
anchors = (
{
name = top;
pos = (326,700);
}
);
guides = (
{
pos = (325,700);
userData = {
UFO.identifier = qb5EYBX0Za;
};
}
);
layerId = m001;
shapes = (
{
closed = 1;
nodes = (
(361,0,l),
(361,284,l),
(634,700,l),
(549,700,l),
(325,353,l),
(102,700,l),
(12,700,l),
(284,286,l),
(284,0,l)
);
}
);
userData = {
SBAlt = right;
};
width = 646;
},
{
anchors = (
{
name = top;
pos = (366,700);
}
);
guides = (
{
pos = (375,700);
userData = {
UFO.identifier = qb5EYBX0Za;
};
}
);
layerId = "1A2B284C-0E56-44A1-A1FF-F0AD058F6D22";
shapes = (
{
closed = 1;
nodes = (
(455,0,l),
(455,266,l),
(740,700,l),
(553,700,l),
(374,413,l),
(197,700,l),
(-1,700,l),
(283,265,l),
(283,0,l)
);
}
);
userData = {
SBAlt = right;
};
width = 739;
},
{
anchors = (
{
name = top;
pos = (310,700);
}
);
guides = (
{
angle = 90;
pos = (310,0);
userData = {
UFO.identifier = qb5EYBX0Za;
};
}
);
layerId = "0B743EE9-64DA-4675-B861-51D53379FCF4";
shapes = (
{
closed = 1;
nodes = (
(336,0,l),
(336,289,l),
(606,700,l),
(548,700,l),
(312,336,l),
(76,700,l),
(15,700,l),
(284,291,l),
(284,0,l)
);
}
);
userData = {
SBAlt = right;
};
width = 621;
}
);
unicode = 89;
},
{
glyphname = Z;
kernLeft = Z;
kernRight = Z;
lastChange = "2024-11-12 17:31:02 +0000";
layers = (
{
anchors = (
{
name = top;
pos = (305,700);
}
);
layerId = m001;
shapes = (
{
closed = 1;
nodes = (
(572,0,l),
(572,67,l),
(133,65,l),
(564,646,l),
(564,700,l),
(40,700,l),
(40,633,l),
(467,635,l),
(37,54,l),
(37,0,l)
);
}
);
width = 605;
},
{
anchors = (
{
name = top;
pos = (315,700);
}
);
layerId = "1A2B284C-0E56-44A1-A1FF-F0AD058F6D22";
shapes = (
{
closed = 1;
nodes = (
(599,0,l),
(599,144,l),
(251,141,l),
(596,588,l),
(596,700,l),
(31,700,l),
(31,556,l),
(376,559,l),
(29,112,l),
(29,0,l)
);
}
);
width = 623;
},
{
anchors = (
{
name = top;
pos = (305,700);
}
);
layerId = "0B743EE9-64DA-4675-B861-51D53379FCF4";
shapes = (
{
closed = 1;
nodes = (
(565,0,l),
(565,47,l),
(106,47,l),
(555,661,l),
(555,700,l),
(42,700,l),
(42,653,l),
(488,653,l),
(39,39,l),
(39,0,l)
);
}
);
width = 600;
}
);
unicode = 90;
},
{
glyphname = a;
kernLeft = a;
kernRight = n;
lastChange = "2024-11-12 17:31:02 +0000";
layers = (
{
anchors = (
{
name = bottom;
pos = (453,0);
},
{
name = top;
pos = (264,488);
}
);
layerId = m001;
shapes = (
{
closed = 1;
nodes = (
(286,-9,o),
(338,13,o),
(381,57,c),
(381,0,l),
(453,0,l),
(453,324,ls),
(453,435,o),
(385,496,o),
(264,496,cs),
(205,496,o),
(147,481,o),
(80,449,c),
(107,393,l),
(164,422,o),
(210,435,o),
(255,435,cs),
(338,435,o),
(381,394,o),
(381,314,cs),
(381,247,l),
(338,273,o),
(288,285,o),
(232,285,cs),
(122,285,o),
(49,227,o),
(49,140,cs),
(49,52,o),
(122,-9,o),
(226,-9,cs)
);
},
{
closed = 1;
nodes = (
(119,196,o),
(168,232,o),
(243,232,cs),
(298,232,o),
(340,221,o),
(381,197,c),
(381,103,l),
(341,65,o),
(296,47,o),
(241,47,cs),
(168,47,o),
(119,85,o),
(119,142,cs)
);
}
);
width = 526;
},
{
anchors = (
{
name = bottom;
pos = (520,0);
},
{
name = top;
pos = (294,516);
}
);
layerId = "1A2B284C-0E56-44A1-A1FF-F0AD058F6D22";
shapes = (
{
closed = 1;
nodes = (
(272,-8,o),
(315,7,o),
(360,45,c),
(360,0,l),
(520,0,l),
(520,330,ls),
(520,453,o),
(437,524,o),
(294,524,cs),
(218,524,o),
(142,506,o),
(57,468,c),
(113,355,l),
(173,380,o),
(219,391,o),
(258,391,cs),
(327,391,o),
(360,366,o),
(360,316,cs),
(360,274,l),
(314,291,o),
(277,298,o),
(240,298,cs),
(113,298,o),
(39,243,o),
(39,148,cs),
(39,56,o),
(112,-8,o),
(217,-8,cs)
);
},
{
closed = 1;
nodes = (
(188,184,o),
(218,202,o),
(271,202,cs),
(301,202,o),
(330,198,o),
(360,191,c),
(360,125,l),
(332,108,o),
(301,99,o),
(267,99,cs),
(217,99,o),
(188,118,o),
(188,151,cs)
);
}
);
width = 579;
},
{
anchors = (
{
name = bottom;
pos = (435,0);
},
{
name = top;
pos = (249,481);
}
);
layerId = "0B743EE9-64DA-4675-B861-51D53379FCF4";
shapes = (
{
closed = 1;
nodes = (
(291,-10,o),
(344,15,o),
(386,59,c),
(386,0,l),
(435,0,l),
(435,323,ls),
(435,432,o),
(369,489,o),
(256,489,cs),
(201,489,o),
(148,475,o),
(86,444,c),
(106,403,l),
(162,433,o),
(207,447,o),
(254,447,cs),
(339,447,o),
(386,403,o),
(386,314,cs),
(386,239,l),
(344,268,o),
(291,282,o),
(230,282,cs),
(129,282,o),
(52,227,o),
(52,138,cs),
(52,48,o),
(127,-10,o),
(228,-10,cs)
);
},
{
closed = 1;
nodes = (
(101,202,o),
(158,240,o),
(235,240,cs),
(297,240,o),
(343,227,o),
(386,198,c),
(386,98,l),
(345,55,o),
(297,32,o),
(234,32,cs),
(157,32,o),
(101,74,o),
(101,139,cs)
);
}
);
width = 512;
}
);
note = "Version created Mon Aug  6 16:22:34 2018";
unicode = 97;
},
{
glyphname = aogonek;
kernLeft = a;
kernRight = n;
lastChange = "2024-11-12 17:31:02 +0000";
layers = (
{
layerId = m001;
shapes = (
{
closed = 1;
nodes = (
(432,-231,o),
(459,-224,o),
(478,-212,c),
(464,-173,l),
(452,-181,o),
(433,-185,o),
(416,-185,cs),
(374,-185,o),
(349,-164,o),
(349,-128,cs),
(349,-87,o),
(381,-47,o),
(453,0,c),
(453,324,ls),
(453,435,o),
(385,496,o),
(264,496,cs),
(205,496,o),
(147,481,o),
(80,449,c),
(107,393,l),
(164,422,o),
(210,435,o),
(255,435,cs),
(338,435,o),
(381,394,o),
(381,314,cs),
(381,247,l),
(338,273,o),
(288,285,o),
(232,285,cs),
(122,285,o),
(49,227,o),
(49,140,cs),
(49,52,o),
(122,-9,o),
(226,-9,cs),
(286,-9,o),
(338,13,o),
(381,57,c),
(381,0,l),
(398,0,l),
(328,-50,o),
(299,-91,o),
(299,-140,cs),
(299,-195,o),
(341,-231,o),
(405,-231,cs)
);
},
{
closed = 1;
nodes = (
(168,47,o),
(119,85,o),
(119,142,cs),
(119,196,o),
(168,232,o),
(243,232,cs),
(298,232,o),
(340,221,o),
(381,197,c),
(381,103,l),
(341,65,o),
(296,47,o),
(241,47,cs)
);
}
);
width = 526;
},
{
layerId = "1A2B284C-0E56-44A1-A1FF-F0AD058F6D22";
shapes = (
{
closed = 1;
nodes = (
(492,-231,o),
(527,-222,o),
(549,-208,c),
(529,-138,l),
(519,-145,o),
(502,-149,o),
(484,-149,cs),
(454,-149,o),
(435,-132,o),
(435,-103,cs),
(435,-67,o),
(462,-35,o),
(520,0,c),
(520,330,ls),
(520,453,o),
(437,524,o),
(294,524,cs),
(218,524,o),
(142,506,o),
(57,468,c),
(113,355,l),
(173,380,o),
(219,391,o),
(258,391,cs),
(327,391,o),
(360,366,o),
(360,316,cs),
(360,274,l),
(314,291,o),
(277,298,o),
(240,298,cs),
(113,298,o),
(39,243,o),
(39,148,cs),
(39,56,o),
(112,-8,o),
(217,-8,cs),
(272,-8,o),
(315,7,o),
(360,45,c),
(360,0,l),
(436,0,l),
(375,-41,o),
(348,-82,o),
(348,-132,cs),
(348,-191,o),
(391,-231,o),
(456,-231,cs)
);
},
{
closed = 1;
nodes = (
(217,99,o),
(188,118,o),
(188,151,cs),
(188,184,o),
(218,202,o),
(271,202,cs),
(301,202,o),
(330,198,o),
(360,191,c),
(360,125,l),
(332,108,o),
(301,99,o),
(267,99,cs)
);
}
);
width = 579;
},
{
layerId = "0B743EE9-64DA-4675-B861-51D53379FCF4";
shapes = (
{
closed = 1;
nodes = (
(417,-231,o),
(441,-224,o),
(458,-213,c),
(446,-182,l),
(433,-190,o),
(414,-195,o),
(397,-195,cs),
(354,-195,o),
(325,-174,o),
(325,-134,cs),
(325,-97,o),
(351,-56,o),
(435,0,c),
(435,323,ls),
(435,432,o),
(369,489,o),
(256,489,cs),
(201,489,o),
(148,475,o),
(86,444,c),
(106,403,l),
(162,433,o),
(207,447,o),
(254,447,cs),
(339,447,o),
(386,403,o),
(386,314,cs),
(386,239,l),
(344,268,o),
(291,282,o),
(230,282,cs),
(129,282,o),
(52,227,o),
(52,138,cs),
(52,48,o),
(127,-10,o),
(228,-10,cs),
(291,-10,o),
(344,15,o),
(386,59,c),
(386,0,l),
(387,0,l),
(312,-55,o),
(285,-96,o),
(285,-142,cs),
(285,-193,o),
(323,-231,o),
(391,-231,cs)
);
},
{
closed = 1;
nodes = (
(157,32,o),
(101,74,o),
(101,139,cs),
(101,202,o),
(158,240,o),
(235,240,cs),
(297,240,o),
(343,227,o),
(386,198,c),
(386,98,l),
(345,55,o),
(297,32,o),
(234,32,cs)
);
}
);
width = 512;
}
);
unicode = 261;
},
{
glyphname = ae;
kernLeft = a;
kernRight = e;
lastChange = "2024-11-12 17:31:02 +0000";
layers = (
{
layerId = m001;
shapes = (
{
closed = 1;
nodes = (
(310,-9,o),
(376,24,o),
(429,90,c),
(473,29,o),
(542,-10,o),
(623,-10,cs),
(692,-10,o),
(750,11,o),
(806,55,c),
(760,104,l),
(728,73,o),
(677,54,o),
(627,54,cs),
(534,54,o),
(460,128,o),
(453,228,c),
(836,228,l),
(836,250,ls),
(836,390,o),
(740,496,o),
(612,496,cs),
(538,496,o),
(475,462,o),
(434,404,c),
(408,464,o),
(349,496,o),
(264,496,cs),
(205,496,o),
(147,481,o),
(80,449,c),
(107,393,l),
(164,422,o),
(210,435,o),
(255,435,cs),
(338,435,o),
(381,394,o),
(381,314,cs),
(381,248,l),
(338,272,o),
(288,285,o),
(232,285,cs),
(122,285,o),
(50,227,o),
(50,141,cs),
(50,52,o),
(122,-9,o),
(228,-9,cs)
);
},
{
closed = 1;
nodes = (
(468,370,o),
(529,433,o),
(611,433,cs),
(691,433,o),
(753,368,o),
(764,280,c),
(455,280,l)
);
},
{
closed = 1;
nodes = (
(168,47,o),
(119,85,o),
(119,142,cs),
(119,197,o),
(168,233,o),
(243,233,cs),
(299,233,o),
(343,221,o),
(385,195,c),
(389,173,o),
(395,153,o),
(404,134,c),
(362,76,o),
(308,47,o),
(241,47,cs)
);
}
);
width = 886;
},
{
layerId = "1A2B284C-0E56-44A1-A1FF-F0AD058F6D22";
shapes = (
{
closed = 1;
nodes = (
(308,-8,o),
(369,17,o),
(430,76,c),
(480,23,o),
(551,-10,o),
(632,-10,cs),
(719,-10,o),
(782,14,o),
(849,73,c),
(742,162,l),
(719,134,o),
(683,119,o),
(640,119,cs),
(581,119,o),
(534,158,o),
(519,216,c),
(874,216,l),
(874,251,ls),
(874,411,o),
(769,524,o),
(620,524,cs),
(556,524,o),
(499,502,o),
(455,464,c),
(420,503,o),
(365,524,o),
(294,524,cs),
(218,524,o),
(142,506,o),
(57,468,c),
(113,355,l),
(173,380,o),
(219,391,o),
(258,391,cs),
(327,391,o),
(360,366,o),
(360,316,cs),
(360,275,l),
(315,291,o),
(277,298,o),
(240,298,cs),
(114,298,o),
(41,244,o),
(41,151,cs),
(41,57,o),
(115,-8,o),
(223,-8,cs)
);
},
{
closed = 1;
nodes = (
(532,365,o),
(568,398,o),
(619,398,cs),
(671,398,o),
(710,363,o),
(724,308,c),
(519,308,l)
);
},
{
closed = 1;
nodes = (
(217,101,o),
(188,120,o),
(188,154,cs),
(188,187,o),
(217,205,o),
(271,205,cs),
(303,205,o),
(336,201,o),
(368,191,c),
(372,176,o),
(377,162,o),
(383,148,c),
(353,119,o),
(310,101,o),
(266,101,cs)
);
}
);
width = 912;
},
{
guides = (
{
pos = (436,489);
userData = {
UFO.identifier = lKD77M5qcq;
};
}
);
layerId = "0B743EE9-64DA-4675-B861-51D53379FCF4";
shapes = (
{
closed = 1;
nodes = (
(317,-10,o),
(385,27,o),
(434,92,c),
(476,30,o),
(545,-10,o),
(624,-10,cs),
(689,-10,o),
(745,11,o),
(798,52,c),
(768,89,l),
(733,57,o),
(679,36,o),
(626,36,cs),
(523,36,o),
(444,118,o),
(440,231,c),
(829,231,l),
(829,250,ls),
(829,385,o),
(734,489,o),
(612,489,cs),
(537,489,o),
(471,448,o),
(431,383,c),
(410,453,o),
(350,489,o),
(260,489,cs),
(205,489,o),
(152,475,o),
(90,444,c),
(110,403,l),
(166,433,o),
(211,447,o),
(258,447,cs),
(343,447,o),
(390,403,o),
(390,314,cs),
(390,239,l),
(348,268,o),
(295,282,o),
(234,282,cs),
(133,282,o),
(56,227,o),
(56,138,cs),
(56,48,o),
(131,-10,o),
(233,-10,cs)
);
},
{
closed = 1;
nodes = (
(455,372,o),
(526,443,o),
(612,443,cs),
(700,443,o),
(769,370,o),
(778,272,c),
(442,272,l)
);
},
{
closed = 1;
nodes = (
(161,32,o),
(105,74,o),
(105,139,cs),
(105,202,o),
(157,240,o),
(240,240,cs),
(299,240,o),
(349,226,o),
(395,195,c),
(398,171,o),
(405,148,o),
(415,128,c),
(370,68,o),
(314,32,o),
(238,32,cs)
);
}
);
width = 882;
}
);
unicode = 230;
},
{
glyphname = b;
kernLeft = b;
kernRight = o;
lastChange = "2024-11-12 17:31:02 +0000";
layers = (
{
layerId = m001;
shapes = (
{
closed = 1;
nodes = (
(147,0,l),
(147,64,l),
(186,18,o),
(240,-7,o),
(301,-7,cs),
(430,-7,o),
(530,103,o),
(530,244,cs),
(530,384,o),
(432,494,o),
(305,494,cs),
(240,494,o),
(185,467,o),
(148,421,c),
(148,730,l),
(75,715,l),
(75,0,l)
);
},
{
closed = 1;
nodes = (
(231,56,o),
(180,81,o),
(148,124,c),
(148,363,l),
(179,406,o),
(229,430,o),
(287,430,cs),
(385,430,o),
(458,350,o),
(458,243,cs),
(458,136,o),
(385,56,o),
(287,56,cs)
);
}
);
userData = {
com.typemytype.robofont.guideline.magnetic.7bdH26IFfT = 5;
com.typemytype.robofont.guideline.magnetic.M3gx4uTYeh = 5;
com.typemytype.robofont.guideline.magnetic.X3EIA8uaih = 5;
com.typemytype.robofont.guideline.showMeasurements.qYah58DcO3 = 1;
};
width = 583;
},
{
layerId = "1A2B284C-0E56-44A1-A1FF-F0AD058F6D22";
shapes = (
{
closed = 1;
nodes = (
(223,0,l),
(223,63,l),
(258,21,o),
(308,-3,o),
(364,-3,cs),
(498,-3,o),
(604,112,o),
(604,257,cs),
(604,402,o),
(503,519,o),
(376,519,cs),
(315,519,o),
(259,492,o),
(225,450,c),
(225,737,l),
(63,712,l),
(63,0,l)
);
},
{
closed = 1;
nodes = (
(284,130,o),
(250,145,o),
(225,171,c),
(225,343,l),
(251,371,o),
(282,385,o),
(322,385,cs),
(392,385,o),
(445,331,o),
(445,258,cs),
(445,184,o),
(393,130,o),
(322,130,cs)
);
}
);
userData = {
com.typemytype.robofont.guideline.magnetic.7bdH26IFfT = 5;
com.typemytype.robofont.guideline.magnetic.M3gx4uTYeh = 5;
com.typemytype.robofont.guideline.magnetic.X3EIA8uaih = 5;
com.typemytype.robofont.guideline.showMeasurements.qYah58DcO3 = 1;
};
width = 644;
},
{
guides = (
{
angle = 90;
pos = (278,324);
userData = {
UFO.identifier = qYah58DcO3;
};
}
);
layerId = "0B743EE9-64DA-4675-B861-51D53379FCF4";
shapes = (
{
closed = 1;
nodes = (
(127,0,l),
(127,63,l),
(168,15,o),
(224,-8,o),
(284,-8,cs),
(415,-8,o),
(511,103,o),
(511,240,cs),
(511,378,o),
(414,487,o),
(286,487,cs),
(223,487,o),
(168,464,o),
(128,414,c),
(128,737,l),
(78,725,l),
(78,0,l)
);
},
{
closed = 1;
nodes = (
(215,38,o),
(160,67,o),
(128,112,c),
(128,368,l),
(160,413,o),
(214,441,o),
(278,441,cs),
(381,441,o),
(461,356,o),
(461,239,cs),
(461,123,o),
(383,38,o),
(278,38,cs)
);
}
);
userData = {
com.typemytype.robofont.guideline.magnetic.7bdH26IFfT = 5;
com.typemytype.robofont.guideline.magnetic.M3gx4uTYeh = 5;
com.typemytype.robofont.guideline.magnetic.X3EIA8uaih = 5;
com.typemytype.robofont.guideline.showMeasurements.qYah58DcO3 = 1;
};
width = 567;
}
);
unicode = 98;
},
{
glyphname = c;
kernLeft = o;
kernRight = c;
lastChange = "2024-11-12 17:31:02 +0000";
layers = (
{
anchors = (
{
name = bottom;
pos = (296,7);
},
{
name = top;
pos = (295,488);
}
);
layerId = m001;
shapes = (
{
closed = 1;
nodes = (
(366,-8,o),
(434,20,o),
(482,68,c),
(435,119,l),
(400,81,o),
(348,58,o),
(297,58,cs),
(201,58,o),
(126,140,o),
(126,244,cs),
(126,348,o),
(201,430,o),
(297,430,cs),
(348,430,o),
(400,407,o),
(435,369,c),
(482,420,l),
(434,468,o),
(366,496,o),
(294,496,cs),
(158,496,o),
(53,385,o),
(53,244,cs),
(53,103,o),
(158,-8,o),
(294,-8,cs)
);
}
);
userData = {
com.typemytype.robofont.guideline.magnetic.CnWov4v5gS = 5;
com.typemytype.robofont.guideline.magnetic.WieLPXUqwW = 5;
com.typemytype.robofont.guideline.magnetic.zfFd93a0gG = 5;
com.typemytype.robofont.guideline.showMeasurements.rTMX5HjvE5 = 1;
};
width = 509;
},
{
anchors = (
{
name = bottom;
pos = (306,0);
},
{
name = top;
pos = (301,516);
}
);
layerId = "1A2B284C-0E56-44A1-A1FF-F0AD058F6D22";
shapes = (
{
closed = 1;
nodes = (
(392,-10,o),
(470,24,o),
(522,85,c),
(423,184,l),
(390,145,o),
(357,128,o),
(313,128,cs),
(249,128,o),
(201,183,o),
(201,257,cs),
(201,331,o),
(249,386,o),
(313,386,cs),
(357,386,o),
(390,369,o),
(423,330,c),
(522,429,l),
(470,490,o),
(392,524,o),
(307,524,cs),
(156,524,o),
(40,408,o),
(40,257,cs),
(40,106,o),
(156,-10,o),
(307,-10,cs)
);
}
);
userData = {
com.typemytype.robofont.guideline.magnetic.CnWov4v5gS = 5;
com.typemytype.robofont.guideline.magnetic.WieLPXUqwW = 5;
com.typemytype.robofont.guideline.magnetic.zfFd93a0gG = 5;
com.typemytype.robofont.guideline.showMeasurements.rTMX5HjvE5 = 1;
};
width = 539;
},
{
anchors = (
{
name = bottom;
pos = (286,0);
},
{
name = top;
pos = (285,481);
}
);
guides = (
{
angle = 90;
pos = (471,275);
userData = {
UFO.identifier = rTMX5HjvE5;
};
}
);
layerId = "0B743EE9-64DA-4675-B861-51D53379FCF4";
shapes = (
{
closed = 1;
nodes = (
(358,-10,o),
(423,16,o),
(471,62,c),
(440,99,l),
(403,60,o),
(346,36,o),
(293,36,cs),
(187,36,o),
(106,127,o),
(106,240,cs),
(106,353,o),
(187,443,o),
(293,443,cs),
(346,443,o),
(403,419,o),
(440,380,c),
(471,417,l),
(423,463,o),
(358,489,o),
(291,489,cs),
(159,489,o),
(56,380,o),
(56,240,cs),
(56,100,o),
(159,-10,o),
(291,-10,cs)
);
}
);
userData = {
com.typemytype.robofont.guideline.magnetic.CnWov4v5gS = 5;
com.typemytype.robofont.guideline.magnetic.WieLPXUqwW = 5;
com.typemytype.robofont.guideline.magnetic.zfFd93a0gG = 5;
com.typemytype.robofont.guideline.showMeasurements.rTMX5HjvE5 = 1;
};
width = 501;
}
);
unicode = 99;
},
{
glyphname = ccedilla;
kernLeft = o;
kernRight = c;
lastChange = "2024-11-12 17:31:02 +0000";
layers = (
{
layerId = m001;
shapes = (
{
closed = 1;
nodes = (
(353,-232,o),
(399,-193,o),
(399,-139,cs),
(399,-92,o),
(361,-62,o),
(302,-59,c),
(314,-7,l),
(378,-3,o),
(438,24,o),
(482,68,c),
(435,119,l),
(400,81,o),
(348,58,o),
(297,58,cs),
(201,58,o),
(126,140,o),
(126,244,cs),
(126,348,o),
(201,430,o),
(297,430,cs),
(348,430,o),
(400,407,o),
(435,369,c),
(482,420,l),
(434,468,o),
(366,496,o),
(294,496,cs),
(158,496,o),
(53,385,o),
(53,244,cs),
(53,111,o),
(147,5,o),
(271,-7,c),
(250,-92,l),
(279,-92,ls),
(324,-92,o),
(350,-110,o),
(350,-141,cs),
(350,-173,o),
(326,-193,o),
(285,-193,cs),
(256,-193,o),
(229,-183,o),
(206,-164,c),
(178,-196,l),
(205,-220,o),
(243,-232,o),
(288,-232,cs)
);
}
);
width = 509;
},
{
layerId = "1A2B284C-0E56-44A1-A1FF-F0AD058F6D22";
shapes = (
{
closed = 1;
nodes = (
(374,-254,o),
(431,-206,o),
(431,-144,cs),
(431,-95,o),
(392,-63,o),
(329,-58,c),
(341,-8,l),
(413,0,o),
(477,32,o),
(522,85,c),
(423,184,l),
(390,145,o),
(357,128,o),
(313,128,cs),
(249,128,o),
(201,183,o),
(201,257,cs),
(201,331,o),
(249,386,o),
(313,386,cs),
(357,386,o),
(390,369,o),
(423,330,c),
(522,429,l),
(470,490,o),
(392,524,o),
(307,524,cs),
(156,524,o),
(40,408,o),
(40,257,cs),
(40,119,o),
(137,11,o),
(268,-7,c),
(243,-111,l),
(288,-111,ls),
(323,-111,o),
(344,-124,o),
(344,-146,cs),
(344,-170,o),
(325,-183,o),
(290,-183,cs),
(264,-183,o),
(236,-173,o),
(213,-155,c),
(164,-212,l),
(196,-240,o),
(240,-254,o),
(299,-254,cs)
);
}
);
width = 539;
},
{
layerId = "0B743EE9-64DA-4675-B861-51D53379FCF4";
shapes = (
{
closed = 1;
nodes = (
(340,-235,o),
(383,-198,o),
(383,-147,cs),
(383,-100,o),
(345,-70,o),
(287,-68,c),
(300,-10,l),
(364,-8,o),
(425,18,o),
(471,62,c),
(440,99,l),
(403,60,o),
(346,36,o),
(293,36,cs),
(187,36,o),
(106,127,o),
(106,240,cs),
(106,353,o),
(187,443,o),
(293,443,cs),
(346,443,o),
(403,419,o),
(440,380,c),
(471,417,l),
(423,463,o),
(358,489,o),
(291,489,cs),
(159,489,o),
(56,380,o),
(56,240,cs),
(56,109,o),
(147,4,o),
(267,-9,c),
(244,-96,l),
(269,-96,ls),
(317,-96,o),
(345,-115,o),
(345,-149,cs),
(345,-183,o),
(319,-204,o),
(276,-204,cs),
(246,-204,o),
(219,-194,o),
(196,-175,c),
(174,-201,l),
(200,-224,o),
(236,-235,o),
(277,-235,cs)
);
}
);
width = 501;
}
);
unicode = 231;
},
{
glyphname = d;
kernLeft = o;
kernRight = d;
lastChange = "2024-11-12 17:31:02 +0000";
layers = (
{
layerId = m001;
shapes = (
{
closed = 1;
nodes = (
(342,-7,o),
(397,18,o),
(434,65,c),
(434,0,l),
(507,0,l),
(507,737,l),
(434,722,l),
(434,426,l),
(395,470,o),
(342,494,o),
(282,494,cs),
(153,494,o),
(53,384,o),
(53,243,cs),
(53,103,o),
(151,-7,o),
(278,-7,cs)
);
},
{
closed = 1;
nodes = (
(198,57,o),
(125,137,o),
(125,244,cs),
(125,351,o),
(198,430,o),
(296,430,cs),
(351,430,o),
(402,405,o),
(434,364,c),
(434,122,l),
(403,80,o),
(353,57,o),
(296,57,cs)
);
}
);
userData = {
com.typemytype.robofont.guideline.magnetic.24lYX2dHma = 5;
com.typemytype.robofont.guideline.magnetic.NMHBJuJK8F = 5;
com.typemytype.robofont.guideline.magnetic.lFCFGE2miz = 5;
};
width = 582;
},
{
layerId = "1A2B284C-0E56-44A1-A1FF-F0AD058F6D22";
shapes = (
{
closed = 1;
nodes = (
(329,-3,o),
(386,24,o),
(420,67,c),
(420,0,l),
(580,0,l),
(580,737,l),
(418,712,l),
(418,457,l),
(383,497,o),
(334,519,o),
(280,519,cs),
(146,519,o),
(40,404,o),
(40,259,cs),
(40,114,o),
(141,-3,o),
(268,-3,cs)
);
},
{
closed = 1;
nodes = (
(252,131,o),
(199,185,o),
(199,258,cs),
(199,332,o),
(251,386,o),
(322,386,cs),
(359,386,o),
(393,372,o),
(418,346,c),
(418,172,l),
(393,145,o),
(361,131,o),
(322,131,cs)
);
}
);
userData = {
com.typemytype.robofont.guideline.magnetic.24lYX2dHma = 5;
com.typemytype.robofont.guideline.magnetic.NMHBJuJK8F = 5;
com.typemytype.robofont.guideline.magnetic.lFCFGE2miz = 5;
};
width = 643;
},
{
guides = (
{
angle = 90;
pos = (433,320);
userData = {
UFO.identifier = uMzdjQkDXA;
};
}
);
layerId = "0B743EE9-64DA-4675-B861-51D53379FCF4";
shapes = (
{
closed = 1;
nodes = (
(344,-8,o),
(399,15,o),
(439,65,c),
(439,0,l),
(489,0,l),
(489,737,l),
(439,725,l),
(439,417,l),
(398,464,o),
(342,487,o),
(283,487,cs),
(152,487,o),
(56,376,o),
(56,239,cs),
(56,101,o),
(153,-8,o),
(281,-8,cs)
);
},
{
closed = 1;
nodes = (
(186,38,o),
(106,123,o),
(106,240,cs),
(106,356,o),
(184,441,o),
(289,441,cs),
(352,441,o),
(407,412,o),
(439,367,c),
(439,111,l),
(407,66,o),
(353,38,o),
(289,38,cs)
);
}
);
userData = {
com.typemytype.robofont.guideline.magnetic.24lYX2dHma = 5;
com.typemytype.robofont.guideline.magnetic.NMHBJuJK8F = 5;
com.typemytype.robofont.guideline.magnetic.lFCFGE2miz = 5;
};
width = 567;
}
);
unicode = 100;
},
{
glyphname = dcroat;
kernLeft = o;
kernRight = d;
lastChange = "2024-11-12 17:31:02 +0000";
layers = (
{
layerId = m001;
shapes = (
{
closed = 1;
nodes = (
(342,-7,o),
(397,18,o),
(434,65,c),
(434,0,l),
(507,0,l),
(507,573,l),
(568,573,l),
(568,627,l),
(507,627,l),
(507,737,l),
(434,722,l),
(434,627,l),
(288,627,l),
(288,573,l),
(434,573,l),
(434,426,l),
(395,470,o),
(342,494,o),
(282,494,cs),
(153,494,o),
(53,384,o),
(53,243,cs),
(53,103,o),
(151,-7,o),
(278,-7,cs)
);
},
{
closed = 1;
nodes = (
(198,57,o),
(125,137,o),
(125,244,cs),
(125,351,o),
(198,430,o),
(296,430,cs),
(351,430,o),
(402,405,o),
(434,364,c),
(434,122,l),
(403,80,o),
(353,57,o),
(296,57,cs)
);
}
);
width = 588;
},
{
layerId = "1A2B284C-0E56-44A1-A1FF-F0AD058F6D22";
shapes = (
{
closed = 1;
nodes = (
(329,-3,o),
(386,24,o),
(420,67,c),
(420,0,l),
(580,0,l),
(580,560,l),
(637,560,l),
(637,648,l),
(580,648,l),
(580,737,l),
(418,712,l),
(418,648,l),
(313,648,l),
(313,560,l),
(418,560,l),
(418,457,l),
(383,497,o),
(334,519,o),
(280,519,cs),
(146,519,o),
(40,404,o),
(40,259,cs),
(40,114,o),
(141,-3,o),
(268,-3,cs)
);
},
{
closed = 1;
nodes = (
(252,131,o),
(199,185,o),
(199,258,cs),
(199,332,o),
(251,386,o),
(322,386,cs),
(359,386,o),
(393,372,o),
(418,346,c),
(418,172,l),
(393,145,o),
(361,131,o),
(322,131,cs)
);
}
);
width = 651;
},
{
layerId = "0B743EE9-64DA-4675-B861-51D53379FCF4";
shapes = (
{
closed = 1;
nodes = (
(344,-8,o),
(399,15,o),
(439,65,c),
(439,0,l),
(489,0,l),
(489,576,l),
(571,576,l),
(571,616,l),
(489,616,l),
(489,737,l),
(439,725,l),
(439,616,l),
(283,616,l),
(283,576,l),
(439,576,l),
(439,417,l),
(398,464,o),
(342,487,o),
(283,487,cs),
(152,487,o),
(56,376,o),
(56,239,cs),
(56,101,o),
(153,-8,o),
(281,-8,cs)
);
},
{
closed = 1;
nodes = (
(186,38,o),
(106,123,o),
(106,240,cs),
(106,356,o),
(184,441,o),
(289,441,cs),
(352,441,o),
(407,412,o),
(439,367,c),
(439,111,l),
(407,66,o),
(353,38,o),
(289,38,cs)
);
}
);
width = 567;
}
);
unicode = 273;
},
{
glyphname = eth;
kernLeft = o;
kernRight = o;
lastChange = "2024-11-12 17:31:02 +0000";
layers = (
{
layerId = m001;
shapes = (
{
closed = 1;
nodes = (
(436,-10,o),
(534,109,o),
(534,289,cs),
(534,435,o),
(492,553,o),
(412,635,c),
(503,695,l),
(476,737,l),
(373,670,l),
(336,699,o),
(293,721,o),
(244,737,c),
(214,685,l),
(252,673,o),
(287,656,o),
(318,634,c),
(233,579,l),
(262,537,l),
(357,599,l),
(415,541,o),
(453,459,o),
(465,362,c),
(432,430,o),
(362,476,o),
(277,476,cs),
(148,476,o),
(52,375,o),
(52,238,cs),
(52,99,o),
(156,-10,o),
(289,-10,cs)
);
},
{
closed = 1;
nodes = (
(195,54,o),
(124,133,o),
(124,236,cs),
(124,339,o),
(195,418,o),
(291,418,cs),
(387,418,o),
(458,339,o),
(458,236,cs),
(458,133,o),
(387,54,o),
(291,54,cs)
);
}
);
width = 590;
},
{
layerId = "1A2B284C-0E56-44A1-A1FF-F0AD058F6D22";
shapes = (
{
closed = 1;
nodes = (
(454,-10,o),
(556,116,o),
(556,309,cs),
(556,429,o),
(516,537,o),
(444,624,c),
(513,671,l),
(460,747,l),
(377,691,l),
(341,721,o),
(300,747,o),
(255,770,c),
(173,664,l),
(205,649,o),
(234,631,o),
(261,611,c),
(197,568,l),
(250,492,l),
(330,547,l),
(369,501,o),
(394,450,o),
(402,399,c),
(377,437,o),
(320,462,o),
(257,462,cs),
(137,462,o),
(40,361,o),
(40,235,cs),
(40,97,o),
(148,-10,o),
(289,-10,cs)
);
},
{
closed = 1;
nodes = (
(237,128,o),
(190,176,o),
(190,235,cs),
(190,294,o),
(237,342,o),
(295,342,cs),
(353,342,o),
(400,294,o),
(400,235,cs),
(400,176,o),
(353,128,o),
(295,128,cs)
);
}
);
width = 596;
},
{
guides = (
{
pos = (476,665);
userData = {
UFO.identifier = LMqjeUiIHk;
};
}
);
layerId = "0B743EE9-64DA-4675-B861-51D53379FCF4";
shapes = (
{
closed = 1;
nodes = (
(431,-10,o),
(529,106,o),
(529,281,cs),
(529,435,o),
(486,557,o),
(403,641,c),
(504,706,l),
(483,739,l),
(372,668,l),
(335,698,o),
(291,721,o),
(241,737,c),
(225,699,l),
(267,685,o),
(303,667,o),
(334,644,c),
(246,587,l),
(268,553,l),
(366,617,l),
(432,554,o),
(470,465,o),
(482,354,c),
(447,429,o),
(372,480,o),
(282,480,cs),
(154,480,o),
(57,381,o),
(57,239,cs),
(57,99,o),
(159,-10,o),
(289,-10,cs)
);
},
{
closed = 1;
nodes = (
(187,36,o),
(107,123,o),
(107,236,cs),
(107,349,o),
(187,436,o),
(291,436,cs),
(395,436,o),
(475,349,o),
(475,236,cs),
(475,123,o),
(395,36,o),
(291,36,cs)
);
}
);
width = 589;
}
);
unicode = 240;
},
{
glyphname = e;
kernLeft = o;
kernRight = e;
lastChange = "2024-11-12 17:31:02 +0000";
layers = (
{
anchors = (
{
name = bottom;
pos = (371,0);
},
{
name = top;
pos = (287,488);
}
);
layerId = m001;
shapes = (
{
closed = 1;
nodes = (
(363,-10,o),
(422,11,o),
(478,55,c),
(432,104,l),
(399,73,o),
(349,54,o),
(298,54,cs),
(205,54,o),
(131,128,o),
(124,228,c),
(507,228,l),
(507,250,ls),
(507,390,o),
(411,496,o),
(283,496,cs),
(153,496,o),
(53,387,o),
(53,244,cs),
(53,100,o),
(158,-10,o),
(295,-10,cs)
);
},
{
closed = 1;
nodes = (
(139,370,o),
(201,433,o),
(282,433,cs),
(362,433,o),
(424,368,o),
(435,280,c),
(126,280,l)
);
}
);
userData = {
SBAlt = left;
com.typemytype.robofont.guideline.magnetic.3EZO9zNDyF = 5;
com.typemytype.robofont.guideline.magnetic.3jKz4iMjwa = 5;
com.typemytype.robofont.guideline.magnetic.siQwTZGZzn = 5;
};
width = 557;
},
{
anchors = (
{
name = bottom;
pos = (395,0);
},
{
name = top;
pos = (300,516);
}
);
layerId = "1A2B284C-0E56-44A1-A1FF-F0AD058F6D22";
shapes = (
{
closed = 1;
nodes = (
(399,-10,o),
(462,14,o),
(529,73,c),
(422,162,l),
(399,134,o),
(363,119,o),
(320,119,cs),
(261,119,o),
(214,158,o),
(199,216,c),
(554,216,l),
(554,251,ls),
(554,411,o),
(449,524,o),
(300,524,cs),
(152,524,o),
(40,408,o),
(40,257,cs),
(40,107,o),
(160,-10,o),
(312,-10,cs)
);
},
{
closed = 1;
nodes = (
(212,365,o),
(248,398,o),
(299,398,cs),
(351,398,o),
(390,363,o),
(404,308,c),
(199,308,l)
);
}
);
userData = {
SBAlt = left;
com.typemytype.robofont.guideline.magnetic.3EZO9zNDyF = 5;
com.typemytype.robofont.guideline.magnetic.3jKz4iMjwa = 5;
com.typemytype.robofont.guideline.magnetic.siQwTZGZzn = 5;
};
width = 592;
},
{
anchors = (
{
name = bottom;
pos = (356,0);
},
{
name = top;
pos = (277,481);
}
);
layerId = "0B743EE9-64DA-4675-B861-51D53379FCF4";
shapes = (
{
closed = 1;
nodes = (
(355,-10,o),
(411,11,o),
(464,52,c),
(434,89,l),
(399,57,o),
(345,36,o),
(292,36,cs),
(189,36,o),
(110,118,o),
(106,231,c),
(495,231,l),
(495,250,ls),
(495,385,o),
(400,489,o),
(278,489,cs),
(156,489,o),
(56,381,o),
(56,240,cs),
(56,98,o),
(158,-10,o),
(290,-10,cs)
);
},
{
closed = 1;
nodes = (
(121,372,o),
(192,443,o),
(278,443,cs),
(366,443,o),
(435,370,o),
(444,272,c),
(108,272,l)
);
}
);
userData = {
SBAlt = left;
com.typemytype.robofont.guideline.magnetic.3EZO9zNDyF = 5;
com.typemytype.robofont.guideline.magnetic.3jKz4iMjwa = 5;
com.typemytype.robofont.guideline.magnetic.siQwTZGZzn = 5;
};
width = 548;
}
);
unicode = 101;
},
{
glyphname = eogonek;
kernLeft = o;
kernRight = e;
lastChange = "2024-11-12 17:31:02 +0000";
layers = (
{
layerId = m001;
shapes = (
{
closed = 1;
nodes = (
(350,-231,o),
(377,-224,o),
(396,-212,c),
(382,-173,l),
(370,-181,o),
(351,-185,o),
(334,-185,cs),
(292,-185,o),
(267,-164,o),
(267,-128,cs),
(267,-87,o),
(299,-47,o),
(370,0,c),
(408,10,o),
(444,28,o),
(478,55,c),
(432,104,l),
(399,73,o),
(349,54,o),
(298,54,cs),
(205,54,o),
(131,128,o),
(124,228,c),
(507,228,l),
(507,250,ls),
(507,390,o),
(411,496,o),
(283,496,cs),
(153,496,o),
(53,387,o),
(53,244,cs),
(53,98,o),
(163,-15,o),
(302,-10,c),
(242,-56,o),
(217,-93,o),
(217,-140,cs),
(217,-195,o),
(259,-231,o),
(323,-231,cs)
);
},
{
closed = 1;
nodes = (
(139,370,o),
(201,433,o),
(282,433,cs),
(362,433,o),
(424,368,o),
(435,280,c),
(126,280,l)
);
}
);
width = 557;
},
{
layerId = "1A2B284C-0E56-44A1-A1FF-F0AD058F6D22";
shapes = (
{
closed = 1;
nodes = (
(367,-231,o),
(402,-222,o),
(424,-208,c),
(404,-138,l),
(394,-145,o),
(377,-149,o),
(359,-149,cs),
(329,-149,o),
(310,-132,o),
(310,-103,cs),
(310,-68,o),
(336,-36,o),
(393,-1,c),
(442,10,o),
(485,34,o),
(529,73,c),
(422,162,l),
(399,134,o),
(363,119,o),
(320,119,cs),
(261,119,o),
(214,158,o),
(199,216,c),
(554,216,l),
(554,251,ls),
(554,411,o),
(449,524,o),
(300,524,cs),
(152,524,o),
(40,408,o),
(40,257,cs),
(40,112,o),
(152,-3,o),
(298,-10,c),
(246,-47,o),
(223,-86,o),
(223,-132,cs),
(223,-191,o),
(266,-231,o),
(331,-231,cs)
);
},
{
closed = 1;
nodes = (
(212,365,o),
(248,398,o),
(299,398,cs),
(351,398,o),
(390,363,o),
(404,308,c),
(199,308,l)
);
}
);
width = 592;
},
{
layerId = "0B743EE9-64DA-4675-B861-51D53379FCF4";
shapes = (
{
closed = 1;
nodes = (
(338,-231,o),
(362,-224,o),
(379,-213,c),
(367,-182,l),
(354,-190,o),
(335,-195,o),
(318,-195,cs),
(275,-195,o),
(246,-174,o),
(246,-134,cs),
(246,-98,o),
(271,-58,o),
(351,-3,c),
(391,6,o),
(428,24,o),
(464,52,c),
(434,89,l),
(399,57,o),
(345,36,o),
(292,36,cs),
(189,36,o),
(110,118,o),
(106,231,c),
(495,231,l),
(495,250,ls),
(495,385,o),
(400,489,o),
(278,489,cs),
(156,489,o),
(56,381,o),
(56,240,cs),
(56,98,o),
(158,-12,o),
(294,-10,c),
(229,-60,o),
(206,-99,o),
(206,-142,cs),
(206,-193,o),
(244,-231,o),
(312,-231,cs)
);
},
{
closed = 1;
nodes = (
(121,372,o),
(192,443,o),
(278,443,cs),
(366,443,o),
(435,370,o),
(444,272,c),
(108,272,l)
);
}
);
width = 548;
}
);
unicode = 281;
},
{
glyphname = f;
kernLeft = t;
kernRight = f;
lastChange = "2024-11-12 17:31:02 +0000";
layers = (
{
layerId = m001;
shapes = (
{
closed = 1;
nodes = (
(210,0,l),
(210,428,l),
(349,428,l),
(349,488,l),
(210,488,l),
(210,589,ls),
(210,647,o),
(234,674,o),
(290,674,cs),
(312,674,o),
(327,671,o),
(349,665,c),
(349,731,l),
(331,737,o),
(310,740,o),
(283,740,cs),
(189,740,o),
(137,686,o),
(137,590,cs),
(137,488,l),
(28,488,l),
(28,428,l),
(137,428,l),
(137,0,l)
);
}
);
userData = {
com.typemytype.robofont.guideline.magnetic.Mu4vMjs72N = 5;
com.typemytype.robofont.guideline.magnetic.fkoepNy6uj = 5;
com.typemytype.robofont.guideline.magnetic.iRUSRXbtq5 = 5;
};
width = 370;
},
{
layerId = "1A2B284C-0E56-44A1-A1FF-F0AD058F6D22";
shapes = (
{
closed = 1;
nodes = (
(301,0,l),
(301,391,l),
(431,391,l),
(431,516,l),
(301,516,l),
(301,581,ls),
(301,619,o),
(323,637,o),
(369,637,cs),
(387,637,o),
(402,636,o),
(431,631,c),
(431,764,l),
(410,770,o),
(373,774,o),
(345,774,cs),
(212,774,o),
(139,707,o),
(139,584,cs),
(139,516,l),
(32,516,l),
(32,391,l),
(139,391,l),
(139,0,l)
);
}
);
userData = {
com.typemytype.robofont.guideline.magnetic.Mu4vMjs72N = 5;
com.typemytype.robofont.guideline.magnetic.fkoepNy6uj = 5;
com.typemytype.robofont.guideline.magnetic.iRUSRXbtq5 = 5;
};
width = 460;
},
{
layerId = "0B743EE9-64DA-4675-B861-51D53379FCF4";
shapes = (
{
closed = 1;
nodes = (
(186,0,l),
(186,438,l),
(328,438,l),
(328,481,l),
(186,481,l),
(186,597,ls),
(186,662,o),
(212,691,o),
(269,691,cs),
(290,691,o),
(305,688,o),
(328,680,c),
(328,728,l),
(309,735,o),
(291,737,o),
(267,737,cs),
(182,737,o),
(136,686,o),
(136,598,cs),
(136,481,l),
(27,481,l),
(27,438,l),
(136,438,l),
(136,0,l)
);
}
);
userData = {
com.typemytype.robofont.guideline.magnetic.Mu4vMjs72N = 5;
com.typemytype.robofont.guideline.magnetic.fkoepNy6uj = 5;
com.typemytype.robofont.guideline.magnetic.iRUSRXbtq5 = 5;
};
width = 346;
}
);
unicode = 102;
},
{
glyphname = g;
kernLeft = o;
kernRight = q;
lastChange = "2024-11-12 17:31:02 +0000";
layers = (
{
anchors = (
{
name = top;
pos = (286,488);
}
);
layerId = m001;
shapes = (
{
closed = 1;
nodes = (
(434,-219,o),
(507,-152,o),
(507,-31,cs),
(507,488,l),
(435,488,l),
(435,425,l),
(396,470,o),
(343,494,o),
(282,494,c),
(153,494,o),
(53,384,o),
(53,244,cs),
(53,104,o),
(151,-6,o),
(278,-6,c),
(342,-6,o),
(397,19,o),
(434,66,c),
(434,-32,ls),
(434,-114,o),
(387,-157,o),
(298,-157,cs),
(248,-157,o),
(202,-143,o),
(142,-112,c),
(111,-168,l),
(167,-200,o),
(235,-219,o),
(301,-219,cs)
);
},
{
closed = 1;
nodes = (
(198,57,o),
(125,137,o),
(125,244,cs),
(125,351,o),
(198,430,o),
(296,430,c),
(351,430,o),
(402,405,o),
(434,364,c),
(434,123,l),
(403,81,o),
(353,57,o),
(296,57,c)
);
}
);
userData = {
com.typemytype.robofont.guideline.magnetic.6IagpWBbSX = 5;
com.typemytype.robofont.guideline.magnetic.UjGWTJhEKl = 5;
com.typemytype.robofont.guideline.magnetic.nb1LUZMu3t = 5;
};
width = 582;
},
{
anchors = (
{
name = top;
pos = (321,516);
}
);
layerId = "1A2B284C-0E56-44A1-A1FF-F0AD058F6D22";
shapes = (
{
closed = 1;
nodes = (
(483,-219,o),
(579,-142,o),
(579,-3,cs),
(579,516,l),
(420,516,l),
(420,454,l),
(385,496,o),
(335,519,o),
(280,519,c),
(146,519,o),
(40,405,o),
(40,261,cs),
(40,117,o),
(141,1,o),
(268,1,c),
(328,1,o),
(384,27,o),
(418,69,c),
(418,-1,ls),
(418,-64,o),
(378,-96,o),
(301,-96,cs),
(251,-96,o),
(200,-83,o),
(143,-56,c),
(93,-173,l),
(155,-203,o),
(229,-219,o),
(307,-219,cs)
);
},
{
closed = 1;
nodes = (
(252,133,o),
(199,187,o),
(199,260,cs),
(199,333,o),
(251,386,o),
(322,386,c),
(359,386,o),
(393,372,o),
(418,346,c),
(418,174,l),
(393,147,o),
(361,133,o),
(322,133,c)
);
}
);
userData = {
com.typemytype.robofont.guideline.magnetic.6IagpWBbSX = 5;
com.typemytype.robofont.guideline.magnetic.UjGWTJhEKl = 5;
com.typemytype.robofont.guideline.magnetic.nb1LUZMu3t = 5;
};
width = 642;
},
{
anchors = (
{
name = top;
pos = (286,494);
}
);
layerId = "0B743EE9-64DA-4675-B861-51D53379FCF4";
shapes = (
{
closed = 1;
nodes = (
(420,-219,o),
(488,-156,o),
(488,-39,cs),
(488,481,l),
(439,481,l),
(439,417,l),
(398,464,o),
(342,487,o),
(283,487,c),
(152,487,o),
(56,376,o),
(56,239,cs),
(56,101,o),
(153,-8,o),
(281,-8,c),
(343,-8,o),
(398,15,o),
(438,63,c),
(438,-41,ls),
(438,-128,o),
(388,-173,o),
(297,-173,cs),
(245,-173,o),
(199,-158,o),
(142,-127,c),
(116,-167,l),
(168,-199,o),
(235,-219,o),
(300,-219,cs)
);
},
{
closed = 1;
nodes = (
(186,38,o),
(106,123,o),
(106,240,cs),
(106,356,o),
(184,441,o),
(289,441,c),
(352,441,o),
(406,412,o),
(438,369,c),
(438,109,l),
(406,65,o),
(353,38,o),
(289,38,c)
);
}
);
userData = {
com.typemytype.robofont.guideline.magnetic.6IagpWBbSX = 5;
com.typemytype.robofont.guideline.magnetic.UjGWTJhEKl = 5;
com.typemytype.robofont.guideline.magnetic.nb1LUZMu3t = 5;
};
width = 566;
}
);
unicode = 103;
},
{
glyphname = gcommaaccent;
kernLeft = o;
kernRight = q;
lastChange = "2024-11-12 17:31:02 +0000";
layers = (
{
layerId = m001;
shapes = (
{
closed = 1;
nodes = (
(330,797,l),
(261,610,l),
(334,610,l),
(383,797,l)
);
},
{
ref = g;
}
);
width = 582;
},
{
layerId = "1A2B284C-0E56-44A1-A1FF-F0AD058F6D22";
shapes = (
{
closed = 1;
nodes = (
(343,842,l),
(248,627,l),
(392,627,l),
(455,842,l)
);
},
{
ref = g;
}
);
width = 642;
},
{
layerId = "0B743EE9-64DA-4675-B861-51D53379FCF4";
shapes = (
{
closed = 1;
nodes = (
(309,785,l),
(247,605,l),
(301,605,l),
(346,785,l)
);
},
{
ref = g;
}
);
width = 566;
}
);
unicode = 291;
},
{
glyphname = h;
kernLeft = b;
kernRight = n;
lastChange = "2024-11-12 17:31:02 +0000";
layers = (
{
anchors = (
{
name = top;
pos = (111,700);
}
);
layerId = m001;
shapes = (
{
closed = 1;
nodes = (
(148,0,l),
(148,360,l),
(177,409,o),
(222,435,o),
(276,435,cs),
(356,435,o),
(407,381,o),
(407,295,cs),
(407,0,l),
(480,0,l),
(480,316,ls),
(480,423,o),
(408,496,o),
(303,496,cs),
(238,496,o),
(185,467,o),
(148,409,c),
(148,737,l),
(75,722,l),
(75,0,l)
);
}
);
userData = {
com.typemytype.robofont.guideline.magnetic.K38jScB87x = 5;
com.typemytype.robofont.guideline.magnetic.PKmk0XVs7R = 5;
com.typemytype.robofont.guideline.magnetic.ZGYkmx2U9U = 5;
};
width = 552;
},
{
anchors = (
{
name = top;
pos = (139,699);
}
);
layerId = "1A2B284C-0E56-44A1-A1FF-F0AD058F6D22";
shapes = (
{
closed = 1;
nodes = (
(225,0,l),
(225,354,l),
(248,383,o),
(276,397,o),
(311,397,cs),
(363,397,o),
(397,359,o),
(397,301,cs),
(397,0,l),
(559,0,l),
(559,348,ls),
(559,451,o),
(488,524,o),
(388,524,cs),
(321,524,o),
(265,492,o),
(225,432,c),
(225,737,l),
(63,712,l),
(63,0,l)
);
}
);
userData = {
com.typemytype.robofont.guideline.magnetic.K38jScB87x = 5;
com.typemytype.robofont.guideline.magnetic.PKmk0XVs7R = 5;
com.typemytype.robofont.guideline.magnetic.ZGYkmx2U9U = 5;
};
width = 618;
},
{
anchors = (
{
name = top;
pos = (101,700);
}
);
layerId = "0B743EE9-64DA-4675-B861-51D53379FCF4";
shapes = (
{
closed = 1;
nodes = (
(128,0,l),
(128,361,l),
(159,417,o),
(209,445,o),
(267,445,cs),
(355,445,o),
(409,386,o),
(409,293,cs),
(409,0,l),
(459,0,l),
(459,307,ls),
(459,415,o),
(387,489,o),
(281,489,cs),
(214,489,o),
(164,459,o),
(128,404,c),
(128,737,l),
(78,725,l),
(78,0,l)
);
}
);
userData = {
com.typemytype.robofont.guideline.magnetic.K38jScB87x = 5;
com.typemytype.robofont.guideline.magnetic.PKmk0XVs7R = 5;
com.typemytype.robofont.guideline.magnetic.ZGYkmx2U9U = 5;
};
width = 535;
}
);
unicode = 104;
},
{
glyphname = hbar;
kernLeft = b;
kernRight = n;
lastChange = "2024-11-12 17:31:02 +0000";
layers = (
{
layerId = m001;
shapes = (
{
closed = 1;
nodes = (
(154,0,l),
(154,360,l),
(183,409,o),
(228,435,o),
(282,435,cs),
(362,435,o),
(413,381,o),
(413,295,cs),
(413,0,l),
(486,0,l),
(486,316,ls),
(486,423,o),
(414,496,o),
(309,496,cs),
(244,496,o),
(191,467,o),
(154,409,c),
(154,573,l),
(299,573,l),
(299,627,l),
(154,627,l),
(154,737,l),
(81,722,l),
(81,627,l),
(20,627,l),
(20,573,l),
(81,573,l),
(81,0,l)
);
}
);
width = 558;
},
{
layerId = "1A2B284C-0E56-44A1-A1FF-F0AD058F6D22";
shapes = (
{
closed = 1;
nodes = (
(235,0,l),
(235,354,l),
(258,383,o),
(286,397,o),
(321,397,cs),
(373,397,o),
(407,359,o),
(407,301,cs),
(407,0,l),
(569,0,l),
(569,348,ls),
(569,451,o),
(498,524,o),
(398,524,cs),
(331,524,o),
(275,492,o),
(235,432,c),
(235,560,l),
(338,560,l),
(338,648,l),
(235,648,l),
(235,737,l),
(73,712,l),
(73,648,l),
(14,648,l),
(14,560,l),
(73,560,l),
(73,0,l)
);
}
);
width = 628;
},
{
layerId = "0B743EE9-64DA-4675-B861-51D53379FCF4";
shapes = (
{
closed = 1;
nodes = (
(128,0,l),
(128,361,l),
(159,417,o),
(209,445,o),
(267,445,cs),
(355,445,o),
(409,386,o),
(409,293,cs),
(409,0,l),
(459,0,l),
(459,307,ls),
(459,415,o),
(387,489,o),
(281,489,cs),
(214,489,o),
(164,459,o),
(128,404,c),
(128,576,l),
(284,576,l),
(284,616,l),
(128,616,l),
(128,737,l),
(78,725,l),
(78,616,l),
(-4,616,l),
(-4,576,l),
(78,576,l),
(78,0,l)
);
}
);
width = 535;
}
);
unicode = 295;
},
{
glyphname = i;
kernLeft = b;
kernRight = d;
lastChange = "2024-11-12 17:31:02 +0000";
layers = (
{
anchors = (
{
name = bottom;
pos = (147,0);
},
{
name = top;
pos = (111,488);
}
);
layerId = m001;
shapes = (
{
closed = 1;
nodes = (
(147,0,l),
(147,488,l),
(74,488,l),
(74,0,l)
);
},
{
closed = 1;
nodes = (
(140,609,o),
(164,633,o),
(164,661,cs),
(164,689,o),
(140,713,o),
(111,713,cs),
(82,713,o),
(58,689,o),
(58,661,cs),
(58,633,o),
(82,609,o),
(111,609,cs)
);
}
);
userData = {
com.typemytype.robofont.guideline.magnetic.2EOETUQSNI = 5;
com.typemytype.robofont.guideline.magnetic.FLtjidSTm9 = 5;
com.typemytype.robofont.guideline.magnetic.GkPuB0s0GT = 5;
com.typemytype.robofont.guideline.magnetic.SG5YUsRmR0 = 5;
com.typemytype.robofont.guideline.magnetic.yxzd1jiUEn = 5;
};
width = 222;
},
{
anchors = (
{
name = bottom;
pos = (225,0);
},
{
name = top;
pos = (144,516);
}
);
layerId = "1A2B284C-0E56-44A1-A1FF-F0AD058F6D22";
shapes = (
{
closed = 1;
nodes = (
(225,0,l),
(225,516,l),
(63,516,l),
(63,0,l)
);
},
{
closed = 1;
nodes = (
(194,595,o),
(235,636,o),
(235,686,cs),
(235,736,o),
(194,777,o),
(144,777,cs),
(94,777,o),
(53,736,o),
(53,686,cs),
(53,636,o),
(94,595,o),
(144,595,cs)
);
}
);
userData = {
com.typemytype.robofont.guideline.magnetic.2EOETUQSNI = 5;
com.typemytype.robofont.guideline.magnetic.FLtjidSTm9 = 5;
com.typemytype.robofont.guideline.magnetic.GkPuB0s0GT = 5;
com.typemytype.robofont.guideline.magnetic.SG5YUsRmR0 = 5;
com.typemytype.robofont.guideline.magnetic.yxzd1jiUEn = 5;
};
width = 288;
},
{
anchors = (
{
name = bottom;
pos = (128,0);
},
{
name = top;
pos = (103,481);
}
);
layerId = "0B743EE9-64DA-4675-B861-51D53379FCF4";
shapes = (
{
closed = 1;
nodes = (
(128,0,l),
(128,481,l),
(78,481,l),
(78,0,l)
);
},
{
closed = 1;
nodes = (
(128,608,o),
(149,629,o),
(149,654,cs),
(149,679,o),
(128,700,o),
(103,700,cs),
(78,700,o),
(57,679,o),
(57,654,cs),
(57,629,o),
(78,608,o),
(103,608,cs)
);
}
);
userData = {
com.typemytype.robofont.guideline.magnetic.2EOETUQSNI = 5;
com.typemytype.robofont.guideline.magnetic.FLtjidSTm9 = 5;
com.typemytype.robofont.guideline.magnetic.GkPuB0s0GT = 5;
com.typemytype.robofont.guideline.magnetic.SG5YUsRmR0 = 5;
com.typemytype.robofont.guideline.magnetic.yxzd1jiUEn = 5;
};
width = 206;
}
);
unicode = 105;
},
{
color = 0;
glyphname = idotless;
kernLeft = n;
kernRight = q;
lastChange = "2024-11-12 17:50:28 +0000";
layers = (
{
anchors = (
{
name = bottom;
pos = (148,0);
},
{
name = top;
pos = (112,488);
}
);
layerId = m001;
shapes = (
{
closed = 1;
nodes = (
(148,0,l),
(148,488,l),
(75,488,l),
(75,0,l)
);
}
);
userData = {
com.typemytype.robofont.guideline.magnetic.EZaPffbg19 = 5;
com.typemytype.robofont.guideline.magnetic.M6wRxp5ToH = 5;
com.typemytype.robofont.guideline.magnetic.dwvfKtmOtc = 5;
com.typemytype.robofont.guideline.magnetic.jAhDlr1O0n = 5;
com.typemytype.robofont.guideline.magnetic.pruZGvpwic = 5;
};
width = 223;
},
{
anchors = (
{
name = bottom;
pos = (225,0);
},
{
name = top;
pos = (144,516);
}
);
layerId = "1A2B284C-0E56-44A1-A1FF-F0AD058F6D22";
shapes = (
{
closed = 1;
nodes = (
(225,0,l),
(225,516,l),
(63,516,l),
(63,0,l)
);
}
);
userData = {
com.typemytype.robofont.guideline.magnetic.EZaPffbg19 = 5;
com.typemytype.robofont.guideline.magnetic.M6wRxp5ToH = 5;
com.typemytype.robofont.guideline.magnetic.dwvfKtmOtc = 5;
com.typemytype.robofont.guideline.magnetic.jAhDlr1O0n = 5;
com.typemytype.robofont.guideline.magnetic.pruZGvpwic = 5;
};
width = 288;
},
{
anchors = (
{
name = bottom;
pos = (128,0);
},
{
name = top;
pos = (103,481);
}
);
layerId = "0B743EE9-64DA-4675-B861-51D53379FCF4";
shapes = (
{
closed = 1;
nodes = (
(128,0,l),
(128,481,l),
(78,481,l),
(78,0,l)
);
}
);
userData = {
com.typemytype.robofont.guideline.magnetic.EZaPffbg19 = 5;
com.typemytype.robofont.guideline.magnetic.M6wRxp5ToH = 5;
com.typemytype.robofont.guideline.magnetic.dwvfKtmOtc = 5;
com.typemytype.robofont.guideline.magnetic.jAhDlr1O0n = 5;
com.typemytype.robofont.guideline.magnetic.pruZGvpwic = 5;
};
width = 206;
}
);
unicode = 305;
},
{
glyphname = iogonek;
kernLeft = b;
kernRight = d;
lastChange = "2024-11-12 17:31:02 +0000";
layers = (
{
layerId = m001;
shapes = (
{
closed = 1;
nodes = (
(140,609,o),
(164,633,o),
(164,661,cs),
(164,689,o),
(140,713,o),
(111,713,cs),
(82,713,o),
(58,689,o),
(58,661,cs),
(58,633,o),
(82,609,o),
(111,609,cs)
);
},
{
closed = 1;
nodes = (
(126,-231,o),
(153,-224,o),
(172,-212,c),
(158,-173,l),
(146,-181,o),
(127,-185,o),
(110,-185,cs),
(68,-185,o),
(43,-164,o),
(43,-128,cs),
(43,-87,o),
(75,-47,o),
(147,0,c),
(147,488,l),
(74,488,l),
(74,0,l),
(92,0,l),
(22,-50,o),
(-7,-91,o),
(-7,-140,cs),
(-7,-195,o),
(35,-231,o),
(99,-231,cs)
);
}
);
width = 222;
},
{
layerId = "1A2B284C-0E56-44A1-A1FF-F0AD058F6D22";
shapes = (
{
closed = 1;
nodes = (
(194,595,o),
(235,636,o),
(235,686,cs),
(235,736,o),
(194,777,o),
(144,777,cs),
(94,777,o),
(53,736,o),
(53,686,cs),
(53,636,o),
(94,595,o),
(144,595,cs)
);
},
{
closed = 1;
nodes = (
(197,-231,o),
(232,-222,o),
(254,-208,c),
(234,-138,l),
(224,-145,o),
(207,-149,o),
(189,-149,cs),
(159,-149,o),
(140,-132,o),
(140,-103,cs),
(140,-67,o),
(167,-35,o),
(225,0,c),
(225,516,l),
(63,516,l),
(63,0,l),
(141,0,l),
(80,-41,o),
(53,-82,o),
(53,-132,cs),
(53,-191,o),
(96,-231,o),
(161,-231,cs)
);
}
);
width = 288;
},
{
layerId = "0B743EE9-64DA-4675-B861-51D53379FCF4";
shapes = (
{
closed = 1;
nodes = (
(128,608,o),
(149,629,o),
(149,654,cs),
(149,679,o),
(128,700,o),
(103,700,cs),
(78,700,o),
(57,679,o),
(57,654,cs),
(57,629,o),
(78,608,o),
(103,608,cs)
);
},
{
closed = 1;
nodes = (
(110,-231,o),
(134,-224,o),
(151,-213,c),
(139,-182,l),
(126,-190,o),
(107,-195,o),
(90,-195,cs),
(47,-195,o),
(18,-174,o),
(18,-134,cs),
(18,-97,o),
(44,-56,o),
(128,0,c),
(128,481,l),
(78,481,l),
(78,0,l),
(80,0,l),
(5,-55,o),
(-22,-96,o),
(-22,-142,cs),
(-22,-193,o),
(16,-231,o),
(84,-231,cs)
);
}
);
width = 206;
}
);
unicode = 303;
},
{
glyphname = j;
kernLeft = b;
kernRight = d;
lastChange = "2024-11-12 17:31:02 +0000";
layers = (
{
layerId = m001;
shapes = (
{
closed = 1;
nodes = (
(141,609,o),
(165,633,o),
(165,661,cs),
(165,689,o),
(141,713,o),
(112,713,cs),
(83,713,o),
(59,689,o),
(59,661,cs),
(59,633,o),
(83,609,o),
(112,609,cs)
);
},
{
closed = 1;
nodes = (
(105,-219,o),
(148,-173,o),
(148,-94,cs),
(148,488,l),
(75,488,l),
(75,-90,ls),
(75,-135,o),
(58,-154,o),
(16,-154,cs),
(2,-154,o),
(-8,-153,o),
(-20,-150,c),
(-20,-213,l),
(-7,-216,o),
(9,-219,o),
(25,-219,cs)
);
}
);
userData = {
com.typemytype.robofont.guideline.magnetic.BZpMidTNzw = 5;
com.typemytype.robofont.guideline.magnetic.kQQJujAVWi = 5;
com.typemytype.robofont.guideline.magnetic.m1jFi0uvJE = 5;
com.typemytype.robofont.guideline.magnetic.v1md8oxURh = 5;
com.typemytype.robofont.guideline.magnetic.z3l41rt1yv = 5;
};
width = 223;
},
{
layerId = "1A2B284C-0E56-44A1-A1FF-F0AD058F6D22";
shapes = (
{
closed = 1;
nodes = (
(194,595,o),
(235,636,o),
(235,686,cs),
(235,736,o),
(194,777,o),
(144,777,cs),
(94,777,o),
(53,736,o),
(53,686,cs),
(53,636,o),
(94,595,o),
(144,595,cs)
);
},
{
closed = 1;
nodes = (
(160,-219,o),
(225,-158,o),
(225,-53,cs),
(225,516,l),
(63,516,l),
(63,-46,ls),
(63,-76,o),
(47,-90,o),
(11,-90,cs),
(-7,-90,o),
(-20,-89,o),
(-34,-86,c),
(-34,-209,l),
(-17,-215,o),
(18,-219,o),
(46,-219,cs)
);
}
);
userData = {
com.typemytype.robofont.guideline.magnetic.BZpMidTNzw = 5;
com.typemytype.robofont.guideline.magnetic.kQQJujAVWi = 5;
com.typemytype.robofont.guideline.magnetic.m1jFi0uvJE = 5;
com.typemytype.robofont.guideline.magnetic.v1md8oxURh = 5;
com.typemytype.robofont.guideline.magnetic.z3l41rt1yv = 5;
};
width = 288;
},
{
layerId = "0B743EE9-64DA-4675-B861-51D53379FCF4";
shapes = (
{
closed = 1;
nodes = (
(128,608,o),
(149,629,o),
(149,654,cs),
(149,679,o),
(128,700,o),
(103,700,cs),
(78,700,o),
(57,679,o),
(57,654,cs),
(57,629,o),
(78,608,o),
(103,608,cs)
);
},
{
closed = 1;
nodes = (
(90,-219,o),
(128,-177,o),
(128,-105,cs),
(128,481,l),
(78,481,l),
(78,-102,ls),
(78,-151,o),
(61,-173,o),
(17,-173,cs),
(6,-173,o),
(-6,-170,o),
(-16,-167,c),
(-16,-215,l),
(-5,-217,o),
(6,-219,o),
(20,-219,cs)
);
}
);
userData = {
com.typemytype.robofont.guideline.magnetic.BZpMidTNzw = 5;
com.typemytype.robofont.guideline.magnetic.kQQJujAVWi = 5;
com.typemytype.robofont.guideline.magnetic.m1jFi0uvJE = 5;
com.typemytype.robofont.guideline.magnetic.v1md8oxURh = 5;
com.typemytype.robofont.guideline.magnetic.z3l41rt1yv = 5;
};
width = 206;
}
);
unicode = 106;
},
{
color = 0;
glyphname = jdotless;
kernLeft = n;
kernRight = q;
lastChange = "2024-11-12 17:50:28 +0000";
layers = (
{
anchors = (
{
name = top;
pos = (112,488);
}
);
layerId = m001;
shapes = (
{
closed = 1;
nodes = (
(104,-219,o),
(148,-173,o),
(148,-94,cs),
(148,488,l),
(75,488,l),
(75,-90,ls),
(75,-135,o),
(58,-154,o),
(16,-154,cs),
(2,-154,o),
(-8,-153,o),
(-20,-150,c),
(-20,-213,l),
(-7,-216,o),
(9,-219,o),
(25,-219,cs)
);
}
);
userData = {
com.typemytype.robofont.guideline.magnetic.0zglVPJARc = 5;
com.typemytype.robofont.guideline.magnetic.PmAnZPsqDp = 5;
com.typemytype.robofont.guideline.magnetic.TyNOsjluWn = 5;
com.typemytype.robofont.guideline.magnetic.XoSRhrIBvs = 5;
com.typemytype.robofont.guideline.magnetic.ZWHuhzq1DG = 5;
};
width = 223;
},
{
anchors = (
{
name = top;
pos = (144,516);
}
);
layerId = "1A2B284C-0E56-44A1-A1FF-F0AD058F6D22";
shapes = (
{
closed = 1;
nodes = (
(159,-219,o),
(225,-159,o),
(225,-53,cs),
(225,516,l),
(63,516,l),
(63,-46,ls),
(63,-76,o),
(47,-90,o),
(11,-90,cs),
(-6,-90,o),
(-19,-89,o),
(-34,-86,c),
(-34,-209,l),
(-16,-215,o),
(20,-219,o),
(46,-219,cs)
);
}
);
userData = {
com.typemytype.robofont.guideline.magnetic.0zglVPJARc = 5;
com.typemytype.robofont.guideline.magnetic.PmAnZPsqDp = 5;
com.typemytype.robofont.guideline.magnetic.TyNOsjluWn = 5;
com.typemytype.robofont.guideline.magnetic.XoSRhrIBvs = 5;
com.typemytype.robofont.guideline.magnetic.ZWHuhzq1DG = 5;
};
width = 288;
},
{
anchors = (
{
name = top;
pos = (103,481);
}
);
layerId = "0B743EE9-64DA-4675-B861-51D53379FCF4";
shapes = (
{
closed = 1;
nodes = (
(90,-219,o),
(128,-177,o),
(128,-105,cs),
(128,481,l),
(78,481,l),
(78,-102,ls),
(78,-151,o),
(61,-173,o),
(17,-173,cs),
(4,-173,o),
(-5,-170,o),
(-16,-167,c),
(-16,-215,l),
(-4,-217,o),
(6,-219,o),
(20,-219,cs)
);
}
);
userData = {
com.typemytype.robofont.guideline.magnetic.0zglVPJARc = 5;
com.typemytype.robofont.guideline.magnetic.PmAnZPsqDp = 5;
com.typemytype.robofont.guideline.magnetic.TyNOsjluWn = 5;
com.typemytype.robofont.guideline.magnetic.XoSRhrIBvs = 5;
com.typemytype.robofont.guideline.magnetic.ZWHuhzq1DG = 5;
};
width = 206;
}
);
unicode = 567;
},
{
glyphname = k;
kernLeft = b;
kernRight = k;
lastChange = "2024-11-12 17:31:02 +0000";
layers = (
{
anchors = (
{
name = bottom;
pos = (242,0);
}
);
layerId = m001;
shapes = (
{
closed = 1;
nodes = (
(148,0,l),
(148,233,l),
(383,0,l),
(479,0,l),
(220,256,l),
(468,488,l),
(380,488,l),
(148,269,l),
(148,737,l),
(75,722,l),
(75,0,l)
);
}
);
width = 489;
},
{
anchors = (
{
name = bottom;
pos = (311,0);
}
);
layerId = "1A2B284C-0E56-44A1-A1FF-F0AD058F6D22";
shapes = (
{
closed = 1;
nodes = (
(225,0,l),
(225,228,l),
(397,0,l),
(599,0,l),
(374,285,l),
(584,516,l),
(405,516,l),
(225,311,l),
(225,740,l),
(63,715,l),
(63,0,l)
);
}
);
width = 604;
},
{
anchors = (
{
name = bottom;
pos = (242,0);
}
);
layerId = "0B743EE9-64DA-4675-B861-51D53379FCF4";
shapes = (
{
closed = 1;
nodes = (
(128,0,l),
(128,234,l),
(378,0,l),
(448,0,l),
(177,249,l),
(437,481,l),
(372,481,l),
(128,260,l),
(128,737,l),
(78,725,l),
(78,0,l)
);
}
);
width = 459;
}
);
unicode = 107;
},
{
glyphname = kgreenlandic;
kernLeft = n;
kernRight = k;
lastChange = "2024-11-12 17:31:02 +0000";
layers = (
{
layerId = m001;
shapes = (
{
closed = 1;
nodes = (
(148,0,l),
(148,233,l),
(383,0,l),
(479,0,l),
(220,256,l),
(468,488,l),
(380,488,l),
(148,269,l),
(148,488,l),
(75,488,l),
(75,0,l)
);
}
);
width = 489;
},
{
layerId = "1A2B284C-0E56-44A1-A1FF-F0AD058F6D22";
shapes = (
{
closed = 1;
nodes = (
(225,0,l),
(225,228,l),
(397,0,l),
(599,0,l),
(374,285,l),
(584,516,l),
(405,516,l),
(225,311,l),
(225,516,l),
(63,516,l),
(63,0,l)
);
}
);
width = 604;
},
{
layerId = "0B743EE9-64DA-4675-B861-51D53379FCF4";
shapes = (
{
closed = 1;
nodes = (
(128,0,l),
(128,234,l),
(378,0,l),
(448,0,l),
(177,249,l),
(437,481,l),
(372,481,l),
(128,260,l),
(128,481,l),
(78,481,l),
(78,0,l)
);
}
);
width = 459;
}
);
unicode = 312;
},
{
glyphname = l;
kernLeft = b;
kernRight = d;
lastChange = "2024-11-12 17:31:02 +0000";
layers = (
{
anchors = (
{
name = bottom;
pos = (111,0);
},
{
name = top;
pos = (111,700);
}
);
layerId = m001;
shapes = (
{
closed = 1;
nodes = (
(148,0,l),
(148,737,l),
(75,722,l),
(75,0,l)
);
}
);
width = 223;
},
{
anchors = (
{
name = bottom;
pos = (144,0);
},
{
name = top;
pos = (144,695);
}
);
layerId = "1A2B284C-0E56-44A1-A1FF-F0AD058F6D22";
shapes = (
{
closed = 1;
nodes = (
(225,0,l),
(225,737,l),
(63,712,l),
(63,0,l)
);
}
);
width = 288;
},
{
anchors = (
{
name = bottom;
pos = (103,0);
},
{
name = top;
pos = (103,700);
}
);
layerId = "0B743EE9-64DA-4675-B861-51D53379FCF4";
shapes = (
{
closed = 1;
nodes = (
(128,0,l),
(128,737,l),
(78,725,l),
(78,0,l)
);
}
);
width = 206;
}
);
unicode = 108;
},
{
glyphname = lslash;
kernLeft = b;
lastChange = "2024-11-12 17:31:02 +0000";
layers = (
{
layerId = m001;
shapes = (
{
closed = 1;
nodes = (
(178,0,l),
(178,362,l),
(272,437,l),
(272,512,l),
(178,438,l),
(178,737,l),
(105,722,l),
(105,380,l),
(9,304,l),
(9,228,l),
(105,304,l),
(105,0,l)
);
}
);
width = 281;
},
{
layerId = "1A2B284C-0E56-44A1-A1FF-F0AD058F6D22";
shapes = (
{
closed = 1;
nodes = (
(243,0,l),
(243,333,l),
(331,393,l),
(331,545,l),
(243,484,l),
(243,737,l),
(81,712,l),
(81,373,l),
(-9,311,l),
(-9,160,l),
(81,222,l),
(81,0,l)
);
}
);
width = 322;
},
{
layerId = "0B743EE9-64DA-4675-B861-51D53379FCF4";
shapes = (
{
closed = 1;
nodes = (
(146,0,l),
(146,355,l),
(242,435,l),
(242,489,l),
(146,409,l),
(146,737,l),
(96,725,l),
(96,374,l),
(-1,294,l),
(-1,239,l),
(96,320,l),
(96,0,l)
);
}
);
width = 239;
}
);
unicode = 322;
},
{
glyphname = m;
kernLeft = n;
kernRight = n;
lastChange = "2024-11-12 17:31:02 +0000";
layers = (
{
layerId = m001;
shapes = (
{
closed = 1;
nodes = (
(148,0,l),
(148,363,l),
(177,411,o),
(217,435,o),
(267,435,cs),
(341,435,o),
(388,382,o),
(388,297,cs),
(388,0,l),
(461,0,l),
(461,315,ls),
(461,330,o),
(460,344,o),
(457,358,c),
(487,410,o),
(528,435,o),
(579,435,cs),
(653,435,o),
(699,382,o),
(699,297,cs),
(699,0,l),
(772,0,l),
(772,315,ls),
(772,422,o),
(704,496,o),
(606,496,cs),
(535,496,o),
(481,464,o),
(443,401,c),
(416,459,o),
(362,496,o),
(293,496,cs),
(233,496,o),
(185,468,o),
(148,412,c),
(148,488,l),
(75,488,l),
(75,0,l)
);
}
);
userData = {
com.typemytype.robofont.guideline.magnetic.7XKLCk3yWH = 5;
com.typemytype.robofont.guideline.magnetic.me2UDszZcZ = 5;
com.typemytype.robofont.guideline.magnetic.sdgeLg54vJ = 5;
};
width = 845;
},
{
layerId = "1A2B284C-0E56-44A1-A1FF-F0AD058F6D22";
shapes = (
{
closed = 1;
nodes = (
(225,0,l),
(225,357,l),
(246,384,o),
(271,397,o),
(301,397,cs),
(347,397,o),
(378,363,o),
(378,311,cs),
(378,0,l),
(540,0,l),
(540,343,ls),
(540,348,o),
(540,353,o),
(540,358,c),
(561,385,o),
(585,397,o),
(615,397,cs),
(661,397,o),
(692,363,o),
(692,311,cs),
(692,0,l),
(854,0,l),
(854,343,ls),
(854,449,o),
(787,524,o),
(692,524,cs),
(621,524,o),
(563,490,o),
(523,428,c),
(498,487,o),
(445,524,o),
(378,524,cs),
(315,524,o),
(263,493,o),
(225,434,c),
(225,516,l),
(63,516,l),
(63,0,l)
);
}
);
userData = {
com.typemytype.robofont.guideline.magnetic.7XKLCk3yWH = 5;
com.typemytype.robofont.guideline.magnetic.me2UDszZcZ = 5;
com.typemytype.robofont.guideline.magnetic.sdgeLg54vJ = 5;
};
width = 913;
},
{
layerId = "0B743EE9-64DA-4675-B861-51D53379FCF4";
shapes = (
{
closed = 1;
nodes = (
(128,0,l),
(128,365,l),
(158,418,o),
(203,445,o),
(258,445,cs),
(340,445,o),
(390,386,o),
(390,293,cs),
(390,0,l),
(440,0,l),
(440,307,ls),
(440,324,o),
(438,341,o),
(435,357,c),
(464,412,o),
(510,445,o),
(570,445,cs),
(653,445,o),
(702,386,o),
(702,293,cs),
(702,0,l),
(752,0,l),
(752,307,ls),
(752,415,o),
(683,489,o),
(584,489,cs),
(513,489,o),
(459,457,o),
(422,394,c),
(394,453,o),
(339,489,o),
(271,489,cs),
(209,489,o),
(163,460,o),
(128,408,c),
(128,481,l),
(78,481,l),
(78,0,l)
);
}
);
userData = {
com.typemytype.robofont.guideline.magnetic.7XKLCk3yWH = 5;
com.typemytype.robofont.guideline.magnetic.me2UDszZcZ = 5;
com.typemytype.robofont.guideline.magnetic.sdgeLg54vJ = 5;
};
width = 828;
}
);
unicode = 109;
},
{
glyphname = n;
kernLeft = n;
kernRight = n;
lastChange = "2024-11-12 17:31:02 +0000";
layers = (
{
anchors = (
{
name = bottom;
pos = (277,0);
},
{
name = top;
pos = (277,488);
}
);
layerId = m001;
shapes = (
{
closed = 1;
nodes = (
(148,0,l),
(148,360,l),
(177,409,o),
(222,435,o),
(276,435,cs),
(356,435,o),
(407,381,o),
(407,295,cs),
(407,0,l),
(480,0,l),
(480,316,ls),
(480,423,o),
(408,496,o),
(303,496,cs),
(238,496,o),
(185,467,o),
(148,409,c),
(148,488,l),
(75,488,l),
(75,0,l)
);
}
);
userData = {
com.typemytype.robofont.guideline.magnetic.bIR45Rwzbh = 5;
com.typemytype.robofont.guideline.magnetic.gZj1ZQhzgj = 5;
com.typemytype.robofont.guideline.magnetic.jujUAKTJfz = 5;
};
width = 552;
},
{
anchors = (
{
name = bottom;
pos = (308,0);
},
{
name = top;
pos = (308,516);
}
);
layerId = "1A2B284C-0E56-44A1-A1FF-F0AD058F6D22";
shapes = (
{
closed = 1;
nodes = (
(225,0,l),
(225,354,l),
(248,383,o),
(276,397,o),
(311,397,cs),
(363,397,o),
(397,359,o),
(397,301,cs),
(397,0,l),
(559,0,l),
(559,348,ls),
(559,451,o),
(488,524,o),
(388,524,cs),
(321,524,o),
(265,492,o),
(225,432,c),
(225,516,l),
(63,516,l),
(63,0,l)
);
}
);
userData = {
com.typemytype.robofont.guideline.magnetic.bIR45Rwzbh = 5;
com.typemytype.robofont.guideline.magnetic.gZj1ZQhzgj = 5;
com.typemytype.robofont.guideline.magnetic.jujUAKTJfz = 5;
};
width = 618;
},
{
anchors = (
{
name = bottom;
pos = (266,0);
},
{
name = top;
pos = (266,481);
}
);
layerId = "0B743EE9-64DA-4675-B861-51D53379FCF4";
shapes = (
{
closed = 1;
nodes = (
(128,0,l),
(128,361,l),
(159,417,o),
(209,445,o),
(267,445,cs),
(355,445,o),
(409,386,o),
(409,293,cs),
(409,0,l),
(459,0,l),
(459,307,ls),
(459,415,o),
(387,489,o),
(281,489,cs),
(214,489,o),
(164,459,o),
(128,404,c),
(128,481,l),
(78,481,l),
(78,0,l)
);
}
);
userData = {
com.typemytype.robofont.guideline.magnetic.bIR45Rwzbh = 5;
com.typemytype.robofont.guideline.magnetic.gZj1ZQhzgj = 5;
com.typemytype.robofont.guideline.magnetic.jujUAKTJfz = 5;
};
width = 535;
}
);
unicode = 110;
},
{
glyphname = eng;
kernLeft = n;
kernRight = n;
lastChange = "2024-11-12 17:31:02 +0000";
layers = (
{
layerId = m001;
shapes = (
{
closed = 1;
nodes = (
(436,-219,o),
(480,-174,o),
(480,-93,cs),
(480,316,ls),
(480,423,o),
(408,496,o),
(303,496,cs),
(238,496,o),
(185,467,o),
(148,409,c),
(148,488,l),
(75,488,l),
(75,0,l),
(148,0,l),
(148,360,l),
(177,409,o),
(222,435,o),
(276,435,cs),
(356,435,o),
(407,381,o),
(407,295,cs),
(407,-89,ls),
(407,-134,o),
(390,-153,o),
(348,-153,cs),
(334,-153,o),
(324,-152,o),
(312,-149,c),
(312,-213,l),
(331,-217,o),
(344,-219,o),
(357,-219,cs)
);
}
);
width = 552;
},
{
layerId = "1A2B284C-0E56-44A1-A1FF-F0AD058F6D22";
shapes = (
{
closed = 1;
nodes = (
(495,-219,o),
(559,-159,o),
(559,-52,cs),
(559,348,ls),
(559,451,o),
(488,524,o),
(388,524,cs),
(321,524,o),
(265,492,o),
(225,432,c),
(225,516,l),
(63,516,l),
(63,0,l),
(225,0,l),
(225,354,l),
(248,383,o),
(276,397,o),
(311,397,cs),
(363,397,o),
(397,359,o),
(397,301,cs),
(397,-42,ls),
(397,-72,o),
(381,-86,o),
(347,-86,cs),
(328,-86,o),
(315,-85,o),
(301,-82,c),
(301,-209,l),
(318,-215,o),
(354,-219,o),
(381,-219,cs)
);
}
);
width = 618;
},
{
layerId = "0B743EE9-64DA-4675-B861-51D53379FCF4";
shapes = (
{
closed = 1;
nodes = (
(421,-219,o),
(459,-177,o),
(459,-105,cs),
(459,307,ls),
(459,415,o),
(387,489,o),
(281,489,cs),
(214,489,o),
(164,459,o),
(128,404,c),
(128,481,l),
(78,481,l),
(78,0,l),
(128,0,l),
(128,361,l),
(159,417,o),
(209,445,o),
(267,445,cs),
(355,445,o),
(409,386,o),
(409,293,cs),
(409,-102,ls),
(409,-151,o),
(392,-173,o),
(348,-173,cs),
(337,-173,o),
(325,-170,o),
(315,-167,c),
(315,-215,l),
(326,-217,o),
(337,-219,o),
(351,-219,cs)
);
}
);
width = 535;
}
);
unicode = 331;
},
{
glyphname = o;
kernLeft = o;
kernRight = o;
lastChange = "2024-11-12 17:31:02 +0000";
layers = (
{
anchors = (
{
name = top;
pos = (290,488);
}
);
layerId = m001;
shapes = (
{
closed = 1;
nodes = (
(425,-8,o),
(527,100,o),
(527,244,cs),
(527,388,o),
(425,496,o),
(290,496,cs),
(155,496,o),
(53,388,o),
(53,244,cs),
(53,100,o),
(155,-8,o),
(290,-8,cs)
);
},
{
closed = 1;
nodes = (
(195,56,o),
(125,137,o),
(125,244,cs),
(125,351,o),
(195,432,o),
(290,432,cs),
(385,432,o),
(455,351,o),
(455,244,cs),
(455,137,o),
(385,56,o),
(290,56,cs)
);
}
);
userData = {
com.typemytype.robofont.guideline.magnetic.EM0xyAAzrc = 5;
com.typemytype.robofont.guideline.magnetic.qru3NPdahM = 5;
com.typemytype.robofont.guideline.magnetic.rb9WAOtIdN = 5;
com.typemytype.robofont.guideline.showMeasurements.GvYSas6RjR = 1;
};
width = 580;
},
{
anchors = (
{
name = top;
pos = (309,516);
}
);
layerId = "1A2B284C-0E56-44A1-A1FF-F0AD058F6D22";
shapes = (
{
closed = 1;
nodes = (
(462,-10,o),
(578,105,o),
(578,257,cs),
(578,409,o),
(462,524,o),
(309,524,cs),
(156,524,o),
(40,409,o),
(40,257,cs),
(40,105,o),
(156,-10,o),
(309,-10,cs)
);
},
{
closed = 1;
nodes = (
(244,125,o),
(198,180,o),
(198,257,cs),
(198,334,o),
(244,389,o),
(309,389,cs),
(374,389,o),
(420,334,o),
(420,257,cs),
(420,180,o),
(374,125,o),
(309,125,cs)
);
}
);
userData = {
com.typemytype.robofont.guideline.magnetic.EM0xyAAzrc = 5;
com.typemytype.robofont.guideline.magnetic.qru3NPdahM = 5;
com.typemytype.robofont.guideline.magnetic.rb9WAOtIdN = 5;
com.typemytype.robofont.guideline.showMeasurements.GvYSas6RjR = 1;
};
width = 618;
},
{
anchors = (
{
name = top;
pos = (285,481);
}
);
guides = (
{
angle = 90;
pos = (152,235);
userData = {
UFO.identifier = GvYSas6RjR;
};
}
);
layerId = "0B743EE9-64DA-4675-B861-51D53379FCF4";
shapes = (
{
closed = 1;
nodes = (
(416,-10,o),
(516,98,o),
(516,240,cs),
(516,381,o),
(416,489,o),
(286,489,cs),
(156,489,o),
(56,381,o),
(56,240,cs),
(56,98,o),
(156,-10,o),
(286,-10,cs)
);
},
{
closed = 1;
nodes = (
(183,36,o),
(106,123,o),
(106,240,cs),
(106,356,o),
(183,443,o),
(286,443,cs),
(389,443,o),
(466,356,o),
(466,240,cs),
(466,123,o),
(389,36,o),
(286,36,cs)
);
}
);
userData = {
com.typemytype.robofont.guideline.magnetic.EM0xyAAzrc = 5;
com.typemytype.robofont.guideline.magnetic.qru3NPdahM = 5;
com.typemytype.robofont.guideline.magnetic.rb9WAOtIdN = 5;
com.typemytype.robofont.guideline.showMeasurements.GvYSas6RjR = 1;
};
width = 572;
}
);
unicode = 111;
},
{
glyphname = oslash;
kernLeft = o;
kernRight = o;
lastChange = "2024-11-12 17:31:02 +0000";
layers = (
{
layerId = m001;
shapes = (
{
closed = 1;
nodes = (
(425,-8,o),
(527,100,o),
(527,244,cs),
(527,313,o),
(504,373,o),
(465,417,c),
(524,488,l),
(463,488,l),
(431,449,l),
(392,479,o),
(344,496,o),
(290,496,cs),
(155,496,o),
(53,388,o),
(53,244,cs),
(53,175,o),
(76,115,o),
(115,70,c),
(57,0,l),
(118,0,l),
(150,38,l),
(188,9,o),
(237,-8,o),
(290,-8,cs)
);
},
{
closed = 1;
nodes = (
(138,156,o),
(125,198,o),
(125,244,cs),
(125,351,o),
(195,432,o),
(290,432,cs),
(327,432,o),
(361,419,o),
(388,398,c),
(161,124,l)
);
},
{
closed = 1;
nodes = (
(253,56,o),
(220,68,o),
(193,90,c),
(420,363,l),
(442,331,o),
(455,290,o),
(455,244,cs),
(455,137,o),
(385,56,o),
(290,56,cs)
);
}
);
width = 580;
},
{
layerId = "1A2B284C-0E56-44A1-A1FF-F0AD058F6D22";
shapes = (
{
closed = 1;
nodes = (
(462,-10,o),
(578,105,o),
(578,257,cs),
(578,327,o),
(553,389,o),
(512,436,c),
(581,516,l),
(479,516,l),
(453,485,l),
(411,510,o),
(363,524,o),
(309,524,cs),
(156,524,o),
(40,409,o),
(40,257,cs),
(40,188,o),
(64,126,o),
(105,79,c),
(37,0,l),
(139,0,l),
(164,30,l),
(206,4,o),
(255,-10,o),
(309,-10,cs)
);
},
{
closed = 1;
nodes = (
(201,216,o),
(198,236,o),
(198,257,cs),
(198,334,o),
(244,389,o),
(309,389,cs),
(328,389,o),
(345,385,o),
(359,376,c),
(208,199,l)
);
},
{
closed = 1;
nodes = (
(290,125,o),
(273,130,o),
(257,138,c),
(410,316,l),
(416,299,o),
(420,279,o),
(420,257,cs),
(420,180,o),
(374,125,o),
(309,125,cs)
);
}
);
width = 618;
},
{
layerId = "0B743EE9-64DA-4675-B861-51D53379FCF4";
shapes = (
{
closed = 1;
nodes = (
(416,-10,o),
(516,98,o),
(516,240,cs),
(516,308,o),
(493,369,o),
(454,413,c),
(509,481,l),
(454,481,l),
(423,442,l),
(385,472,o),
(338,489,o),
(286,489,cs),
(156,489,o),
(56,381,o),
(56,240,cs),
(56,172,o),
(79,111,o),
(118,67,c),
(63,0,l),
(118,0,l),
(148,37,l),
(186,7,o),
(234,-10,o),
(286,-10,cs)
);
},
{
closed = 1;
nodes = (
(122,140,o),
(106,187,o),
(106,240,cs),
(106,356,o),
(183,443,o),
(286,443,cs),
(327,443,o),
(363,429,o),
(393,406,c),
(148,105,l)
);
},
{
closed = 1;
nodes = (
(245,36,o),
(208,50,o),
(178,74,c),
(423,375,l),
(450,340,o),
(466,293,o),
(466,240,cs),
(466,123,o),
(389,36,o),
(286,36,cs)
);
}
);
width = 572;
}
);
unicode = 248;
},
{
glyphname = oe;
kernLeft = o;
kernRight = e;
lastChange = "2024-11-12 17:31:02 +0000";
layers = (
{
layerId = m001;
shapes = (
{
closed = 1;
nodes = (
(379,-8,o),
(453,41,o),
(492,117,c),
(531,40,o),
(607,-10,o),
(698,-10,cs),
(766,-10,o),
(825,11,o),
(881,55,c),
(835,104,l),
(802,73,o),
(752,54,o),
(701,54,cs),
(608,54,o),
(534,128,o),
(527,228,c),
(910,228,l),
(910,250,ls),
(910,390,o),
(814,496,o),
(686,496,cs),
(601,496,o),
(529,447,o),
(491,372,c),
(452,447,o),
(378,496,o),
(290,496,cs),
(155,496,o),
(53,388,o),
(53,244,cs),
(53,100,o),
(155,-8,o),
(290,-8,cs)
);
},
{
closed = 1;
nodes = (
(195,56,o),
(125,137,o),
(125,244,cs),
(125,351,o),
(195,432,o),
(290,432,cs),
(385,432,o),
(455,351,o),
(455,244,cs),
(455,137,o),
(385,56,o),
(290,56,cs)
);
},
{
closed = 1;
nodes = (
(542,370,o),
(604,433,o),
(685,433,cs),
(765,433,o),
(827,368,o),
(838,280,c),
(529,280,l)
);
}
);
width = 960;
},
{
layerId = "1A2B284C-0E56-44A1-A1FF-F0AD058F6D22";
shapes = (
{
closed = 1;
nodes = (
(386,-10,o),
(453,21,o),
(500,73,c),
(548,22,o),
(617,-10,o),
(695,-10,cs),
(782,-10,o),
(845,14,o),
(912,73,c),
(805,162,l),
(782,134,o),
(746,119,o),
(703,119,cs),
(644,119,o),
(597,158,o),
(582,216,c),
(937,216,l),
(937,251,ls),
(937,412,o),
(832,525,o),
(683,525,cs),
(609,525,o),
(543,494,o),
(498,444,c),
(451,494,o),
(385,524,o),
(309,524,cs),
(156,524,o),
(40,409,o),
(40,257,cs),
(40,106,o),
(156,-10,o),
(309,-10,cs)
);
},
{
closed = 1;
nodes = (
(244,127,o),
(198,181,o),
(198,257,cs),
(198,334,o),
(244,389,o),
(309,389,cs),
(374,389,o),
(421,334,o),
(421,257,cs),
(421,181,o),
(375,127,o),
(309,127,cs)
);
},
{
closed = 1;
nodes = (
(595,365,o),
(631,399,o),
(682,399,cs),
(734,399,o),
(774,364,o),
(787,308,c),
(582,308,l)
);
}
);
width = 975;
},
{
layerId = "0B743EE9-64DA-4675-B861-51D53379FCF4";
shapes = (
{
closed = 1;
nodes = (
(378,-10,o),
(455,46,o),
(491,130,c),
(528,46,o),
(606,-10,o),
(700,-10,cs),
(765,-10,o),
(821,11,o),
(874,52,c),
(844,89,l),
(809,57,o),
(755,36,o),
(702,36,cs),
(599,36,o),
(520,118,o),
(516,231,c),
(905,231,l),
(905,250,ls),
(905,385,o),
(810,489,o),
(688,489,cs),
(602,489,o),
(526,433,o),
(491,350,c),
(455,433,o),
(378,489,o),
(286,489,cs),
(156,489,o),
(56,381,o),
(56,240,cs),
(56,98,o),
(156,-10,o),
(286,-10,cs)
);
},
{
closed = 1;
nodes = (
(183,36,o),
(106,123,o),
(106,240,cs),
(106,356,o),
(183,443,o),
(286,443,cs),
(389,443,o),
(466,356,o),
(466,240,cs),
(466,123,o),
(389,36,o),
(286,36,cs)
);
},
{
closed = 1;
nodes = (
(531,372,o),
(602,443,o),
(688,443,cs),
(776,443,o),
(845,370,o),
(854,272,c),
(518,272,l)
);
}
);
width = 958;
}
);
unicode = 339;
},
{
glyphname = p;
kernLeft = n;
kernRight = o;
lastChange = "2024-11-12 17:31:02 +0000";
layers = (
{
layerId = m001;
shapes = (
{
closed = 1;
nodes = (
(148,-209,l),
(148,61,l),
(186,17,o),
(240,-7,o),
(301,-7,cs),
(430,-7,o),
(530,103,o),
(530,244,cs),
(530,384,o),
(432,494,o),
(305,494,cs),
(240,494,o),
(184,467,o),
(147,418,c),
(147,488,l),
(75,488,l),
(75,-209,l)
);
},
{
closed = 1;
nodes = (
(231,56,o),
(180,81,o),
(148,124,c),
(148,363,l),
(179,406,o),
(229,430,o),
(287,430,cs),
(385,430,o),
(458,350,o),
(458,243,cs),
(458,136,o),
(385,56,o),
(287,56,cs)
);
}
);
userData = {
com.typemytype.robofont.guideline.magnetic.1MAJ8FKo1i = 5;
com.typemytype.robofont.guideline.magnetic.R7Fi1MtPFK = 5;
com.typemytype.robofont.guideline.magnetic.cZqa6db412 = 5;
};
width = 583;
},
{
layerId = "1A2B284C-0E56-44A1-A1FF-F0AD058F6D22";
shapes = (
{
closed = 1;
nodes = (
(225,-209,l),
(225,57,l),
(259,18,o),
(308,-3,o),
(364,-3,cs),
(498,-3,o),
(604,112,o),
(604,257,cs),
(604,402,o),
(503,519,o),
(376,519,cs),
(314,519,o),
(257,490,o),
(223,444,c),
(223,516,l),
(63,516,l),
(63,-209,l)
);
},
{
closed = 1;
nodes = (
(284,130,o),
(250,145,o),
(225,171,c),
(225,343,l),
(251,371,o),
(282,385,o),
(322,385,cs),
(392,385,o),
(445,331,o),
(445,258,cs),
(445,184,o),
(393,130,o),
(322,130,cs)
);
}
);
userData = {
com.typemytype.robofont.guideline.magnetic.1MAJ8FKo1i = 5;
com.typemytype.robofont.guideline.magnetic.R7Fi1MtPFK = 5;
com.typemytype.robofont.guideline.magnetic.cZqa6db412 = 5;
};
width = 644;
},
{
layerId = "0B743EE9-64DA-4675-B861-51D53379FCF4";
shapes = (
{
closed = 1;
nodes = (
(128,-209,l),
(128,62,l),
(169,15,o),
(225,-8,o),
(284,-8,cs),
(415,-8,o),
(511,103,o),
(511,240,cs),
(511,378,o),
(414,487,o),
(286,487,cs),
(223,487,o),
(167,463,o),
(127,413,c),
(127,481,l),
(78,481,l),
(78,-209,l)
);
},
{
closed = 1;
nodes = (
(215,38,o),
(160,67,o),
(128,112,c),
(128,368,l),
(160,413,o),
(214,441,o),
(278,441,cs),
(381,441,o),
(461,356,o),
(461,239,cs),
(461,123,o),
(383,38,o),
(278,38,cs)
);
}
);
userData = {
com.typemytype.robofont.guideline.magnetic.1MAJ8FKo1i = 5;
com.typemytype.robofont.guideline.magnetic.R7Fi1MtPFK = 5;
com.typemytype.robofont.guideline.magnetic.cZqa6db412 = 5;
};
width = 567;
}
);
unicode = 112;
},
{
glyphname = thorn;
kernLeft = b;
kernRight = o;
lastChange = "2024-11-12 17:31:02 +0000";
layers = (
{
layerId = m001;
shapes = (
{
closed = 1;
nodes = (
(148,-209,l),
(148,61,l),
(186,17,o),
(240,-7,o),
(301,-7,cs),
(430,-7,o),
(530,103,o),
(530,244,cs),
(530,384,o),
(432,494,o),
(305,494,cs),
(240,494,o),
(185,467,o),
(148,420,c),
(148,737,l),
(75,722,l),
(75,-209,l)
);
},
{
closed = 1;
nodes = (
(385,430,o),
(458,350,o),
(458,243,cs),
(458,136,o),
(385,56,o),
(287,56,cs),
(231,56,o),
(180,81,o),
(148,124,c),
(148,363,l),
(179,406,o),
(229,430,o),
(287,430,cs)
);
}
);
width = 583;
},
{
layerId = "1A2B284C-0E56-44A1-A1FF-F0AD058F6D22";
shapes = (
{
closed = 1;
nodes = (
(225,-209,l),
(225,57,l),
(259,18,o),
(308,-3,o),
(364,-3,cs),
(498,-3,o),
(604,112,o),
(604,257,cs),
(604,402,o),
(503,519,o),
(376,519,cs),
(315,519,o),
(259,491,o),
(225,447,c),
(225,737,l),
(63,712,l),
(63,-209,l)
);
},
{
closed = 1;
nodes = (
(392,385,o),
(445,331,o),
(445,258,cs),
(445,184,o),
(393,130,o),
(322,130,cs),
(284,130,o),
(250,145,o),
(225,171,c),
(225,343,l),
(251,371,o),
(282,385,o),
(322,385,cs)
);
}
);
width = 642;
},
{
layerId = "0B743EE9-64DA-4675-B861-51D53379FCF4";
shapes = (
{
closed = 1;
nodes = (
(128,-209,l),
(128,62,l),
(169,15,o),
(225,-8,o),
(284,-8,cs),
(415,-8,o),
(511,103,o),
(511,240,cs),
(511,378,o),
(414,487,o),
(286,487,cs),
(223,487,o),
(168,464,o),
(128,414,c),
(128,737,l),
(78,725,l),
(78,-209,l)
);
},
{
closed = 1;
nodes = (
(381,441,o),
(461,356,o),
(461,239,cs),
(461,123,o),
(383,38,o),
(278,38,cs),
(215,38,o),
(160,67,o),
(128,112,c),
(128,368,l),
(160,413,o),
(214,441,o),
(278,441,cs)
);
}
);
width = 567;
}
);
unicode = 254;
},
{
glyphname = q;
kernLeft = o;
kernRight = q;
lastChange = "2024-11-12 17:31:02 +0000";
layers = (
{
layerId = m001;
shapes = (
{
closed = 1;
nodes = (
(507,-209,l),
(507,488,l),
(434,488,l),
(434,426,l),
(395,470,o),
(342,494,o),
(282,494,cs),
(153,494,o),
(53,384,o),
(53,243,cs),
(53,103,o),
(151,-7,o),
(278,-7,cs),
(342,-7,o),
(397,18,o),
(434,65,c),
(434,-209,l)
);
},
{
closed = 1;
nodes = (
(198,57,o),
(125,137,o),
(125,244,cs),
(125,351,o),
(198,430,o),
(296,430,cs),
(351,430,o),
(402,405,o),
(434,364,c),
(434,122,l),
(403,80,o),
(353,57,o),
(296,57,cs)
);
}
);
userData = {
com.typemytype.robofont.guideline.magnetic.8MISu0YrCo = 5;
com.typemytype.robofont.guideline.magnetic.9Cz5FXfcqn = 5;
com.typemytype.robofont.guideline.magnetic.vQiK4JcS1h = 5;
};
width = 582;
},
{
layerId = "1A2B284C-0E56-44A1-A1FF-F0AD058F6D22";
shapes = (
{
closed = 1;
nodes = (
(580,-211,l),
(580,516,l),
(420,516,l),
(420,454,l),
(385,496,o),
(335,519,o),
(280,519,cs),
(146,519,o),
(40,404,o),
(40,259,cs),
(40,114,o),
(141,-3,o),
(268,-3,cs),
(328,-3,o),
(384,23,o),
(418,65,c),
(418,-211,l)
);
},
{
closed = 1;
nodes = (
(252,131,o),
(199,185,o),
(199,258,cs),
(199,332,o),
(251,386,o),
(322,386,cs),
(359,386,o),
(393,372,o),
(418,346,c),
(418,172,l),
(393,145,o),
(361,131,o),
(322,131,cs)
);
}
);
userData = {
com.typemytype.robofont.guideline.magnetic.8MISu0YrCo = 5;
com.typemytype.robofont.guideline.magnetic.9Cz5FXfcqn = 5;
com.typemytype.robofont.guideline.magnetic.vQiK4JcS1h = 5;
};
width = 643;
},
{
layerId = "0B743EE9-64DA-4675-B861-51D53379FCF4";
shapes = (
{
closed = 1;
nodes = (
(489,-209,l),
(489,481,l),
(439,481,l),
(439,417,l),
(398,464,o),
(342,487,o),
(283,487,cs),
(152,487,o),
(56,376,o),
(56,239,cs),
(56,101,o),
(153,-8,o),
(281,-8,cs),
(344,-8,o),
(399,15,o),
(439,65,c),
(439,-209,l)
);
},
{
closed = 1;
nodes = (
(186,38,o),
(106,123,o),
(106,240,cs),
(106,356,o),
(184,441,o),
(289,441,cs),
(352,441,o),
(407,412,o),
(439,367,c),
(439,111,l),
(407,66,o),
(353,38,o),
(289,38,cs)
);
}
);
userData = {
com.typemytype.robofont.guideline.magnetic.8MISu0YrCo = 5;
com.typemytype.robofont.guideline.magnetic.9Cz5FXfcqn = 5;
com.typemytype.robofont.guideline.magnetic.vQiK4JcS1h = 5;
};
width = 567;
}
);
unicode = 113;
},
{
glyphname = r;
kernLeft = n;
kernRight = r;
lastChange = "2024-11-12 17:31:02 +0000";
layers = (
{
anchors = (
{
name = bottom;
pos = (113,0);
},
{
name = top;
pos = (186,488);
}
);
guides = (
{
pos = (111,0);
userData = {
UFO.identifier = htCJGl3CO7;
};
}
);
layerId = m001;
shapes = (
{
closed = 1;
nodes = (
(148,0,l),
(148,333,l),
(173,396,o),
(219,432,o),
(279,432,cs),
(295,432,o),
(314,428,o),
(330,423,c),
(330,489,l),
(315,494,o),
(301,496,o),
(284,496,cs),
(222,496,o),
(173,456,o),
(148,388,c),
(148,488,l),
(75,488,l),
(75,0,l)
);
}
);
userData = {
com.typemytype.robofont.guideline.magnetic.X77cEHiK6B = 5;
com.typemytype.robofont.guideline.magnetic.gqcLvDdX3A = 5;
com.typemytype.robofont.guideline.magnetic.qOWL6mf7H4 = 5;
};
width = 352;
},
{
anchors = (
{
name = bottom;
pos = (142,0);
},
{
name = top;
pos = (266,516);
}
);
layerId = "1A2B284C-0E56-44A1-A1FF-F0AD058F6D22";
shapes = (
{
closed = 1;
nodes = (
(225,0,l),
(225,326,l),
(251,365,o),
(295,390,o),
(343,390,cs),
(371,390,o),
(399,384,o),
(419,374,c),
(419,513,l),
(399,523,o),
(388,525,o),
(365,526,cs),
(304,526,o),
(258,485,o),
(225,399,c),
(225,516,l),
(63,516,l),
(63,0,l)
);
}
);
userData = {
com.typemytype.robofont.guideline.magnetic.X77cEHiK6B = 5;
com.typemytype.robofont.guideline.magnetic.gqcLvDdX3A = 5;
com.typemytype.robofont.guideline.magnetic.qOWL6mf7H4 = 5;
};
width = 442;
},
{
anchors = (
{
name = bottom;
pos = (103,0);
},
{
name = top;
pos = (176,481);
}
);
guides = (
{
angle = 90;
pos = (103,0);
userData = {
UFO.identifier = htCJGl3CO7;
};
}
);
layerId = "0B743EE9-64DA-4675-B861-51D53379FCF4";
shapes = (
{
closed = 1;
nodes = (
(128,0,l),
(128,336,l),
(152,405,o),
(199,443,o),
(262,443,cs),
(277,443,o),
(294,441,o),
(306,437,c),
(306,484,l),
(293,487,o),
(278,489,o),
(263,489,cs),
(201,489,o),
(153,452,o),
(128,390,c),
(128,481,l),
(78,481,l),
(78,0,l)
);
}
);
userData = {
com.typemytype.robofont.guideline.magnetic.X77cEHiK6B = 5;
com.typemytype.robofont.guideline.magnetic.gqcLvDdX3A = 5;
com.typemytype.robofont.guideline.magnetic.qOWL6mf7H4 = 5;
};
width = 328;
}
);
unicode = 114;
},
{
glyphname = s;
kernLeft = s;
kernRight = s;
lastChange = "2024-11-12 17:31:02 +0000";
layers = (
{
anchors = (
{
name = bottom;
pos = (226,0);
},
{
name = top;
pos = (216,488);
}
);
layerId = m001;
shapes = (
{
closed = 1;
nodes = (
(334,-10,o),
(416,56,o),
(416,142,cs),
(416,214,o),
(372,255,o),
(274,273,cs),
(192,288,ls),
(129,299,o),
(108,318,o),
(108,358,cs),
(108,406,o),
(150,436,o),
(214,436,c),
(266,436,o),
(316,420,o),
(367,384,c),
(403,435,l),
(341,477,o),
(284,496,o),
(217,496,c),
(114,496,o),
(41,437,o),
(41,353,cs),
(41,282,o),
(84,242,o),
(179,225,cs),
(259,211,ls),
(321,199,o),
(347,178,o),
(347,138,cs),
(347,86,o),
(295,49,o),
(224,49,cs),
(172,49,o),
(125,67,o),
(67,110,c),
(28,62,l),
(76,15,o),
(146,-10,o),
(226,-10,cs)
);
}
);
userData = {
SBAlt = right;
};
width = 452;
},
{
anchors = (
{
name = bottom;
pos = (257,0);
},
{
name = top;
pos = (244,516);
}
);
layerId = "1A2B284C-0E56-44A1-A1FF-F0AD058F6D22";
shapes = (
{
closed = 1;
nodes = (
(385,-10,o),
(480,66,o),
(480,167,cs),
(480,245,o),
(427,297,o),
(325,316,cs),
(228,334,ls),
(188,341,o),
(175,350,o),
(175,371,cs),
(175,393,o),
(198,406,o),
(237,406,c),
(285,406,o),
(333,392,o),
(385,362,c),
(459,465,l),
(392,504,o),
(321,524,o),
(249,524,c),
(114,524,o),
(33,461,o),
(33,356,cs),
(33,276,o),
(85,225,o),
(185,206,cs),
(284,188,ls),
(317,182,o),
(332,171,o),
(332,151,cs),
(332,125,o),
(304,109,o),
(258,109,cs),
(208,109,o),
(166,122,o),
(92,161,c),
(21,53,l),
(81,12,o),
(164,-10,o),
(258,-10,cs)
);
}
);
userData = {
SBAlt = right;
};
width = 511;
},
{
anchors = (
{
name = bottom;
pos = (216,0);
},
{
name = top;
pos = (216,481);
}
);
guides = (
{
angle = 90;
pos = (447,107);
userData = {
UFO.identifier = q0SnZ654yh;
};
}
);
layerId = "0B743EE9-64DA-4675-B861-51D53379FCF4";
shapes = (
{
closed = 1;
nodes = (
(318,-10,o),
(399,50,o),
(399,135,cs),
(399,202,o),
(358,244,o),
(260,262,cs),
(183,276,ls),
(115,288,o),
(91,312,o),
(91,355,cs),
(91,413,o),
(137,445,o),
(211,445,c),
(261,445,o),
(311,425,o),
(362,389,c),
(388,428,l),
(328,470,o),
(275,489,o),
(211,489,c),
(114,489,o),
(43,434,o),
(43,352,cs),
(43,286,o),
(84,246,o),
(177,230,cs),
(253,217,ls),
(322,204,o),
(351,176,o),
(351,134,cs),
(351,73,o),
(293,34,o),
(215,34,cs),
(157,34,o),
(115,55,o),
(60,100,c),
(30,64,l),
(79,19,o),
(142,-10,o),
(216,-10,cs)
);
}
);
userData = {
SBAlt = right;
};
width = 436;
}
);
note = "Version created Fri Aug  3 17:49:29 2018";
unicode = 115;
},
{
glyphname = scedilla;
kernLeft = s;
kernRight = s;
lastChange = "2024-11-12 17:31:02 +0000";
layers = (
{
layerId = m001;
shapes = (
{
closed = 1;
nodes = (
(283,-239,o),
(329,-200,o),
(329,-146,cs),
(329,-99,o),
(291,-69,o),
(232,-66,c),
(245,-9,l),
(343,-2,o),
(416,61,o),
(416,142,cs),
(416,214,o),
(372,255,o),
(274,273,cs),
(192,288,ls),
(129,299,o),
(108,318,o),
(108,358,cs),
(108,406,o),
(150,436,o),
(214,436,cs),
(266,436,o),
(316,420,o),
(367,384,c),
(403,435,l),
(341,477,o),
(284,496,o),
(217,496,cs),
(114,496,o),
(41,437,o),
(41,353,cs),
(41,282,o),
(84,242,o),
(179,225,cs),
(259,211,ls),
(321,199,o),
(347,178,o),
(347,138,cs),
(347,86,o),
(295,49,o),
(224,49,cs),
(172,49,o),
(125,67,o),
(67,110,c),
(28,62,l),
(71,20,o),
(132,-5,o),
(203,-9,c),
(180,-99,l),
(209,-99,ls),
(254,-99,o),
(280,-117,o),
(280,-148,cs),
(280,-180,o),
(256,-200,o),
(215,-200,cs),
(186,-200,o),
(159,-190,o),
(136,-171,c),
(108,-203,l),
(135,-227,o),
(173,-239,o),
(218,-239,cs)
);
}
);
width = 452;
},
{
layerId = "1A2B284C-0E56-44A1-A1FF-F0AD058F6D22";
shapes = (
{
closed = 1;
nodes = (
(325,-254,o),
(382,-206,o),
(382,-144,cs),
(382,-95,o),
(343,-63,o),
(280,-58,c),
(292,-8,l),
(402,4,o),
(480,75,o),
(480,167,cs),
(480,245,o),
(427,297,o),
(325,316,cs),
(228,334,ls),
(188,341,o),
(175,350,o),
(175,371,cs),
(175,393,o),
(198,406,o),
(237,406,cs),
(285,406,o),
(333,392,o),
(385,362,c),
(459,465,l),
(392,504,o),
(321,524,o),
(249,524,cs),
(114,524,o),
(33,461,o),
(33,356,cs),
(33,276,o),
(85,225,o),
(185,206,cs),
(284,188,ls),
(317,182,o),
(332,171,o),
(332,151,cs),
(332,125,o),
(304,109,o),
(258,109,cs),
(208,109,o),
(166,122,o),
(92,161,c),
(21,53,l),
(73,18,o),
(141,-3,o),
(219,-9,c),
(194,-111,l),
(239,-111,ls),
(274,-111,o),
(295,-124,o),
(295,-146,cs),
(295,-170,o),
(276,-183,o),
(241,-183,cs),
(215,-183,o),
(187,-173,o),
(164,-155,c),
(115,-212,l),
(147,-240,o),
(191,-254,o),
(250,-254,cs)
);
}
);
width = 511;
},
{
layerId = "0B743EE9-64DA-4675-B861-51D53379FCF4";
shapes = (
{
closed = 1;
nodes = (
(270,-235,o),
(313,-198,o),
(313,-147,cs),
(313,-100,o),
(275,-70,o),
(217,-68,c),
(230,-10,l),
(325,-5,o),
(399,53,o),
(399,135,cs),
(399,202,o),
(358,244,o),
(260,262,cs),
(183,276,ls),
(115,288,o),
(91,312,o),
(91,355,cs),
(91,412,o),
(137,443,o),
(212,443,cs),
(261,443,o),
(312,425,o),
(362,389,c),
(388,428,l),
(328,470,o),
(275,489,o),
(212,489,cs),
(114,489,o),
(43,434,o),
(43,352,cs),
(43,286,o),
(84,246,o),
(177,230,cs),
(253,217,ls),
(322,204,o),
(351,176,o),
(351,134,cs),
(351,74,o),
(293,36,o),
(215,36,cs),
(162,36,o),
(114,56,o),
(60,100,c),
(30,64,l),
(71,21,o),
(129,-5,o),
(197,-9,c),
(174,-96,l),
(199,-96,ls),
(247,-96,o),
(275,-115,o),
(275,-149,cs),
(275,-183,o),
(249,-204,o),
(206,-204,cs),
(176,-204,o),
(149,-194,o),
(126,-175,c),
(104,-201,l),
(130,-224,o),
(166,-235,o),
(207,-235,cs)
);
}
);
width = 436;
}
);
unicode = 351;
},
{
glyphname = germandbls;
kernLeft = b;
kernRight = s;
lastChange = "2024-11-12 17:31:02 +0000";
layers = (
{
layerId = m001;
shapes = (
{
closed = 1;
nodes = (
(496,-11,o),
(566,50,o),
(566,140,cs),
(566,210,o),
(529,255,o),
(448,287,cs),
(387,311,ls),
(337,331,o),
(325,343,o),
(325,371,cs),
(325,445,o),
(483,452,o),
(483,576,cs),
(483,668,o),
(406,737,o),
(289,737,cs),
(154,737,o),
(75,644,o),
(75,501,cs),
(75,0,l),
(148,0,l),
(148,502,ls),
(148,607,o),
(198,673,o),
(290,673,cs),
(362,673,o),
(414,633,o),
(414,578,cs),
(414,481,o),
(257,489,o),
(257,371,cs),
(257,315,o),
(284,282,o),
(354,255,cs),
(419,230,ls),
(475,208,o),
(497,184,o),
(497,138,cs),
(497,83,o),
(454,47,o),
(392,47,cs),
(345,47,o),
(303,64,o),
(267,98,c),
(226,50,l),
(273,8,o),
(326,-11,o),
(393,-11,cs)
);
}
);
width = 592;
},
{
layerId = "1A2B284C-0E56-44A1-A1FF-F0AD058F6D22";
shapes = (
{
closed = 1;
nodes = (
(575,-11,o),
(656,56,o),
(656,163,cs),
(656,232,o),
(619,275,o),
(529,314,cs),
(466,341,ls),
(441,352,o),
(433,360,o),
(433,376,cs),
(433,419,o),
(548,432,o),
(548,559,cs),
(548,664,o),
(446,737,o),
(300,737,cs),
(135,737,o),
(26,638,o),
(26,489,cs),
(26,0,l),
(187,0,l),
(187,498,ls),
(187,561,o),
(238,608,o),
(306,608,cs),
(362,608,o),
(402,580,o),
(402,541,cs),
(402,471,o),
(280,471,o),
(280,352,cs),
(280,298,o),
(310,263,o),
(379,237,cs),
(451,210,ls),
(496,193,o),
(509,181,o),
(509,155,cs),
(509,123,o),
(482,103,o),
(440,103,cs),
(405,103,o),
(364,120,o),
(320,154,c),
(252,54,l),
(308,9,o),
(368,-11,o),
(446,-11,cs)
);
}
);
width = 668;
},
{
layerId = "0B743EE9-64DA-4675-B861-51D53379FCF4";
shapes = (
{
closed = 1;
nodes = (
(498,-10,o),
(565,45,o),
(565,127,cs),
(565,199,o),
(533,234,o),
(450,265,cs),
(391,287,ls),
(326,311,o),
(312,324,o),
(312,358,cs),
(312,441,o),
(481,440,o),
(481,575,cs),
(481,667,o),
(406,737,o),
(290,737,cs),
(157,737,o),
(77,645,o),
(77,503,cs),
(77,0,l),
(127,0,l),
(127,502,ls),
(127,618,o),
(181,691,o),
(291,691,cs),
(375,691,o),
(433,641,o),
(433,577,cs),
(433,464,o),
(264,475,o),
(264,356,cs),
(264,299,o),
(290,274,o),
(382,241,cs),
(440,220,ls),
(492,201,o),
(517,175,o),
(517,126,cs),
(517,66,o),
(469,34,o),
(401,34,cs),
(349,34,o),
(302,52,o),
(267,87,c),
(233,53,l),
(279,10,o),
(333,-10,o),
(398,-10,cs)
);
}
);
width = 602;
}
);
unicode = 223;
},
{
glyphname = t;
kernLeft = t;
kernRight = t_1;
lastChange = "2024-11-12 17:31:02 +0000";
layers = (
{
anchors = (
{
name = bottom;
pos = (234,0);
}
);
layerId = m001;
shapes = (
{
closed = 1;
nodes = (
(289,-10,o),
(319,-6,o),
(346,3,c),
(346,68,l),
(319,58,o),
(302,55,o),
(277,55,cs),
(226,55,o),
(206,76,o),
(206,128,cs),
(206,428,l),
(346,428,l),
(346,488,l),
(206,488,l),
(206,639,l),
(133,622,l),
(133,488,l),
(32,488,l),
(32,428,l),
(133,428,l),
(133,109,ls),
(133,31,o),
(177,-10,o),
(261,-10,cs)
);
}
);
userData = {
com.typemytype.robofont.guideline.magnetic.9CK4RHoiOP = 5;
com.typemytype.robofont.guideline.magnetic.jxEEhIp0Ay = 5;
com.typemytype.robofont.guideline.magnetic.y5F9Xedp9t = 5;
};
width = 378;
},
{
anchors = (
{
name = bottom;
pos = (282,0);
}
);
layerId = "1A2B284C-0E56-44A1-A1FF-F0AD058F6D22";
shapes = (
{
closed = 1;
nodes = (
(349,-10,o),
(397,-3,o),
(427,6,c),
(427,137,l),
(395,128,o),
(380,126,o),
(361,126,cs),
(311,126,o),
(293,142,o),
(293,188,cs),
(293,391,l),
(431,391,l),
(431,516,l),
(293,516,l),
(293,692,l),
(131,659,l),
(131,516,l),
(31,516,l),
(31,391,l),
(131,391,l),
(131,156,ls),
(131,46,o),
(194,-10,o),
(316,-10,cs)
);
}
);
userData = {
com.typemytype.robofont.guideline.magnetic.9CK4RHoiOP = 5;
com.typemytype.robofont.guideline.magnetic.jxEEhIp0Ay = 5;
com.typemytype.robofont.guideline.magnetic.y5F9Xedp9t = 5;
};
width = 458;
},
{
anchors = (
{
name = bottom;
pos = (214,0);
}
);
layerId = "0B743EE9-64DA-4675-B861-51D53379FCF4";
shapes = (
{
closed = 1;
nodes = (
(268,-10,o),
(292,-6,o),
(319,3,c),
(319,50,l),
(295,41,o),
(279,36,o),
(250,36,cs),
(198,36,o),
(178,58,o),
(178,113,cs),
(178,438,l),
(319,438,l),
(319,481,l),
(178,481,l),
(178,625,l),
(128,612,l),
(128,481,l),
(27,481,l),
(27,438,l),
(128,438,l),
(128,97,ls),
(128,30,o),
(166,-10,o),
(241,-10,cs)
);
}
);
userData = {
com.typemytype.robofont.guideline.magnetic.9CK4RHoiOP = 5;
com.typemytype.robofont.guideline.magnetic.jxEEhIp0Ay = 5;
com.typemytype.robofont.guideline.magnetic.y5F9Xedp9t = 5;
};
width = 352;
}
);
unicode = 116;
},
{
glyphname = tbar;
kernLeft = t;
kernRight = t_1;
lastChange = "2024-11-12 17:31:02 +0000";
layers = (
{
layerId = m001;
shapes = (
{
closed = 1;
nodes = (
(289,-10,o),
(319,-6,o),
(346,3,c),
(346,68,l),
(319,58,o),
(302,55,o),
(277,55,cs),
(226,55,o),
(206,76,o),
(206,128,cs),
(206,251,l),
(346,251,l),
(346,305,l),
(206,305,l),
(206,428,l),
(346,428,l),
(346,488,l),
(206,488,l),
(206,639,l),
(133,622,l),
(133,488,l),
(32,488,l),
(32,428,l),
(133,428,l),
(133,305,l),
(32,305,l),
(32,251,l),
(133,251,l),
(133,109,ls),
(133,31,o),
(177,-10,o),
(261,-10,cs)
);
}
);
width = 378;
},
{
layerId = "1A2B284C-0E56-44A1-A1FF-F0AD058F6D22";
shapes = (
{
closed = 1;
nodes = (
(349,-10,o),
(397,-3,o),
(427,6,c),
(427,137,l),
(395,128,o),
(380,126,o),
(361,126,cs),
(311,126,o),
(293,142,o),
(293,188,cs),
(293,226,l),
(431,226,l),
(431,314,l),
(293,314,l),
(293,391,l),
(431,391,l),
(431,516,l),
(293,516,l),
(293,692,l),
(131,659,l),
(131,516,l),
(31,516,l),
(31,391,l),
(131,391,l),
(131,314,l),
(31,314,l),
(31,226,l),
(131,226,l),
(131,156,ls),
(131,46,o),
(194,-10,o),
(316,-10,cs)
);
}
);
width = 458;
},
{
layerId = "0B743EE9-64DA-4675-B861-51D53379FCF4";
shapes = (
{
closed = 1;
nodes = (
(268,-10,o),
(292,-6,o),
(319,3,c),
(319,50,l),
(295,41,o),
(279,36,o),
(250,36,cs),
(198,36,o),
(178,58,o),
(178,113,cs),
(178,258,l),
(319,258,l),
(319,298,l),
(178,298,l),
(178,438,l),
(319,438,l),
(319,481,l),
(178,481,l),
(178,625,l),
(128,612,l),
(128,481,l),
(27,481,l),
(27,438,l),
(128,438,l),
(128,298,l),
(27,298,l),
(27,258,l),
(128,258,l),
(128,97,ls),
(128,30,o),
(166,-10,o),
(241,-10,cs)
);
}
);
width = 357;
}
);
unicode = 359;
},
{
glyphname = tcaron;
kernLeft = t;
kernRight = t_1;
lastChange = "2024-11-12 17:31:02 +0000";
layers = (
{
layerId = m001;
shapes = (
{
closed = 1;
nodes = (
(349,587,l),
(374,787,l),
(298,772,l),
(293,587,l)
);
},
{
closed = 1;
nodes = (
(289,-10,o),
(319,-6,o),
(346,3,c),
(346,68,l),
(319,58,o),
(302,55,o),
(277,55,cs),
(226,55,o),
(206,76,o),
(206,128,cs),
(206,428,l),
(346,428,l),
(346,488,l),
(206,488,l),
(206,639,l),
(133,622,l),
(133,488,l),
(32,488,l),
(32,428,l),
(133,428,l),
(133,109,ls),
(133,31,o),
(177,-10,o),
(261,-10,cs)
);
}
);
width = 378;
},
{
layerId = "1A2B284C-0E56-44A1-A1FF-F0AD058F6D22";
shapes = (
{
closed = 1;
nodes = (
(450,602,l),
(490,807,l),
(365,784,l),
(361,602,l)
);
},
{
closed = 1;
nodes = (
(349,-10,o),
(397,-3,o),
(427,6,c),
(427,137,l),
(395,128,o),
(380,126,o),
(361,126,cs),
(311,126,o),
(293,142,o),
(293,188,cs),
(293,391,l),
(431,391,l),
(431,516,l),
(293,516,l),
(293,692,l),
(131,659,l),
(131,516,l),
(31,516,l),
(31,391,l),
(131,391,l),
(131,156,ls),
(131,46,o),
(194,-10,o),
(316,-10,cs)
);
}
);
width = 458;
},
{
layerId = "0B743EE9-64DA-4675-B861-51D53379FCF4";
shapes = (
{
closed = 1;
nodes = (
(280,549,l),
(299,737,l),
(247,725,l),
(244,549,l)
);
},
{
closed = 1;
nodes = (
(268,-10,o),
(292,-6,o),
(319,3,c),
(319,50,l),
(295,41,o),
(279,36,o),
(250,36,cs),
(198,36,o),
(178,58,o),
(178,113,cs),
(178,438,l),
(319,438,l),
(319,481,l),
(178,481,l),
(178,625,l),
(128,612,l),
(128,481,l),
(27,481,l),
(27,438,l),
(128,438,l),
(128,97,ls),
(128,30,o),
(166,-10,o),
(241,-10,cs)
);
}
);
width = 357;
}
);
unicode = 357;
},
{
glyphname = tcedilla;
kernLeft = t;
kernRight = t_1;
lastChange = "2024-11-12 17:31:02 +0000";
layers = (
{
layerId = m001;
shapes = (
{
closed = 1;
nodes = (
(291,-239,o),
(337,-200,o),
(337,-146,cs),
(337,-99,o),
(299,-69,o),
(240,-66,c),
(253,-10,l),
(255,-10,o),
(258,-10,o),
(261,-10,cs),
(289,-10,o),
(319,-6,o),
(346,3,c),
(346,68,l),
(319,58,o),
(302,55,o),
(277,55,cs),
(226,55,o),
(206,76,o),
(206,128,cs),
(206,428,l),
(346,428,l),
(346,488,l),
(206,488,l),
(206,639,l),
(133,622,l),
(133,488,l),
(32,488,l),
(32,428,l),
(133,428,l),
(133,109,ls),
(133,48,o),
(160,10,o),
(212,-4,c),
(188,-99,l),
(217,-99,ls),
(262,-99,o),
(288,-117,o),
(288,-148,cs),
(288,-180,o),
(264,-200,o),
(223,-200,cs),
(194,-200,o),
(167,-190,o),
(144,-171,c),
(116,-203,l),
(143,-227,o),
(181,-239,o),
(226,-239,cs)
);
}
);
width = 378;
},
{
layerId = "1A2B284C-0E56-44A1-A1FF-F0AD058F6D22";
shapes = (
{
closed = 1;
nodes = (
(348,-254,o),
(405,-206,o),
(405,-144,cs),
(405,-95,o),
(366,-63,o),
(303,-58,c),
(315,-10,l),
(315,-10,o),
(316,-10,o),
(316,-10,cs),
(349,-10,o),
(397,-3,o),
(427,6,c),
(427,137,l),
(395,128,o),
(380,126,o),
(361,126,cs),
(311,126,o),
(293,142,o),
(293,188,cs),
(293,391,l),
(431,391,l),
(431,516,l),
(293,516,l),
(293,692,l),
(131,659,l),
(131,516,l),
(31,516,l),
(31,391,l),
(131,391,l),
(131,156,ls),
(131,70,o),
(169,17,o),
(244,-2,c),
(217,-111,l),
(262,-111,ls),
(297,-111,o),
(318,-124,o),
(318,-146,cs),
(318,-170,o),
(299,-183,o),
(264,-183,cs),
(238,-183,o),
(210,-173,o),
(187,-155,c),
(138,-212,l),
(170,-240,o),
(214,-254,o),
(273,-254,cs)
);
}
);
width = 458;
},
{
layerId = "0B743EE9-64DA-4675-B861-51D53379FCF4";
shapes = (
{
closed = 1;
nodes = (
(268,-235,o),
(311,-198,o),
(311,-147,cs),
(311,-100,o),
(273,-70,o),
(215,-68,c),
(228,-10,l),
(232,-10,o),
(236,-10,o),
(241,-10,cs),
(268,-10,o),
(292,-6,o),
(319,3,c),
(319,50,l),
(295,41,o),
(279,36,o),
(250,36,cs),
(198,36,o),
(178,58,o),
(178,113,cs),
(178,438,l),
(319,438,l),
(319,481,l),
(178,481,l),
(178,625,l),
(128,612,l),
(128,481,l),
(27,481,l),
(27,438,l),
(128,438,l),
(128,97,ls),
(128,45,o),
(151,9,o),
(196,-4,c),
(172,-96,l),
(197,-96,ls),
(245,-96,o),
(273,-115,o),
(273,-149,cs),
(273,-183,o),
(247,-204,o),
(204,-204,cs),
(174,-204,o),
(147,-194,o),
(124,-175,c),
(102,-201,l),
(128,-224,o),
(164,-235,o),
(205,-235,cs)
);
}
);
width = 352;
}
);
unicode = 355;
},
{
glyphname = u;
kernLeft = u;
kernRight = q;
lastChange = "2024-11-12 17:31:02 +0000";
layers = (
{
anchors = (
{
name = bottom;
pos = (477,0);
},
{
name = top;
pos = (276,488);
}
);
layerId = m001;
shapes = (
{
closed = 1;
nodes = (
(315,-8,o),
(367,21,o),
(404,79,c),
(404,0,l),
(477,0,l),
(477,488,l),
(404,488,l),
(404,127,l),
(375,79,o),
(330,53,o),
(276,53,cs),
(196,53,o),
(146,107,o),
(146,194,cs),
(146,488,l),
(72,488,l),
(72,173,ls),
(72,66,o),
(144,-8,o),
(249,-8,cs)
);
}
);
userData = {
com.typemytype.robofont.guideline.magnetic.4HFp0sWNGB = 5;
com.typemytype.robofont.guideline.magnetic.UMBzA6yLkO = 5;
com.typemytype.robofont.guideline.magnetic.b72gaY6SvB = 5;
};
width = 552;
},
{
anchors = (
{
name = bottom;
pos = (555,0);
},
{
name = top;
pos = (300,516);
}
);
layerId = "1A2B284C-0E56-44A1-A1FF-F0AD058F6D22";
shapes = (
{
closed = 1;
nodes = (
(297,-8,o),
(353,24,o),
(393,84,c),
(393,0,l),
(555,0,l),
(555,516,l),
(393,516,l),
(393,162,l),
(370,133,o),
(342,119,o),
(307,119,cs),
(255,119,o),
(221,157,o),
(221,215,cs),
(221,516,l),
(59,516,l),
(59,168,ls),
(59,65,o),
(130,-8,o),
(230,-8,cs)
);
}
);
userData = {
com.typemytype.robofont.guideline.magnetic.4HFp0sWNGB = 5;
com.typemytype.robofont.guideline.magnetic.UMBzA6yLkO = 5;
com.typemytype.robofont.guideline.magnetic.b72gaY6SvB = 5;
};
width = 618;
},
{
anchors = (
{
name = bottom;
pos = (457,0);
},
{
name = top;
pos = (266,481);
}
);
layerId = "0B743EE9-64DA-4675-B861-51D53379FCF4";
shapes = (
{
closed = 1;
nodes = (
(321,-8,o),
(371,22,o),
(407,77,c),
(407,0,l),
(457,0,l),
(457,481,l),
(407,481,l),
(407,120,l),
(376,64,o),
(326,36,o),
(268,36,cs),
(180,36,o),
(126,95,o),
(126,188,cs),
(126,481,l),
(76,481,l),
(76,174,ls),
(76,66,o),
(148,-8,o),
(254,-8,cs)
);
}
);
userData = {
com.typemytype.robofont.guideline.magnetic.4HFp0sWNGB = 5;
com.typemytype.robofont.guideline.magnetic.UMBzA6yLkO = 5;
com.typemytype.robofont.guideline.magnetic.b72gaY6SvB = 5;
};
width = 535;
}
);
unicode = 117;
},
{
glyphname = uogonek;
kernLeft = u;
kernRight = q;
lastChange = "2024-11-12 17:31:02 +0000";
layers = (
{
layerId = m001;
shapes = (
{
closed = 1;
nodes = (
(456,-231,o),
(483,-224,o),
(502,-212,c),
(488,-173,l),
(476,-181,o),
(457,-185,o),
(440,-185,cs),
(398,-185,o),
(373,-164,o),
(373,-128,cs),
(373,-87,o),
(405,-47,o),
(477,0,c),
(477,488,l),
(404,488,l),
(404,127,l),
(375,79,o),
(330,53,o),
(276,53,cs),
(196,53,o),
(146,107,o),
(146,194,cs),
(146,488,l),
(72,488,l),
(72,173,ls),
(72,66,o),
(144,-8,o),
(249,-8,cs),
(315,-8,o),
(367,21,o),
(404,79,c),
(404,0,l),
(422,0,l),
(352,-50,o),
(323,-91,o),
(323,-140,cs),
(323,-195,o),
(365,-231,o),
(429,-231,cs)
);
}
);
width = 552;
},
{
layerId = "1A2B284C-0E56-44A1-A1FF-F0AD058F6D22";
shapes = (
{
closed = 1;
nodes = (
(527,-231,o),
(562,-222,o),
(584,-208,c),
(564,-138,l),
(554,-145,o),
(537,-149,o),
(519,-149,cs),
(489,-149,o),
(470,-132,o),
(470,-103,cs),
(470,-67,o),
(497,-35,o),
(555,0,c),
(555,516,l),
(393,516,l),
(393,162,l),
(370,133,o),
(342,119,o),
(307,119,cs),
(255,119,o),
(221,157,o),
(221,215,cs),
(221,516,l),
(59,516,l),
(59,168,ls),
(59,65,o),
(130,-8,o),
(230,-8,cs),
(297,-8,o),
(353,24,o),
(393,84,c),
(393,0,l),
(471,0,l),
(410,-41,o),
(383,-82,o),
(383,-132,cs),
(383,-191,o),
(426,-231,o),
(491,-231,cs)
);
}
);
width = 618;
},
{
layerId = "0B743EE9-64DA-4675-B861-51D53379FCF4";
shapes = (
{
closed = 1;
nodes = (
(439,-231,o),
(463,-224,o),
(480,-213,c),
(468,-182,l),
(455,-190,o),
(436,-195,o),
(419,-195,cs),
(376,-195,o),
(347,-174,o),
(347,-134,cs),
(347,-97,o),
(373,-56,o),
(457,0,c),
(457,481,l),
(407,481,l),
(407,120,l),
(376,64,o),
(326,36,o),
(268,36,cs),
(180,36,o),
(126,95,o),
(126,188,cs),
(126,481,l),
(76,481,l),
(76,174,ls),
(76,66,o),
(148,-8,o),
(254,-8,cs),
(321,-8,o),
(371,22,o),
(407,77,c),
(407,0,l),
(408,0,l),
(333,-55,o),
(307,-96,o),
(307,-142,cs),
(307,-193,o),
(345,-231,o),
(413,-231,cs)
);
}
);
width = 535;
}
);
unicode = 371;
},
{
glyphname = v;
kernRight = v;
lastChange = "2024-11-12 17:31:02 +0000";
layers = (
{
layerId = m001;
shapes = (
{
closed = 1;
nodes = (
(285,0,l),
(486,488,l),
(408,488,l),
(252,91,l),
(94,488,l),
(15,488,l),
(215,0,l)
);
}
);
userData = {
SBAlt = right;
};
width = 501;
},
{
layerId = "1A2B284C-0E56-44A1-A1FF-F0AD058F6D22";
shapes = (
{
closed = 1;
nodes = (
(374,0,l),
(585,516,l),
(418,516,l),
(300,192,l),
(183,516,l),
(7,516,l),
(216,0,l)
);
}
);
userData = {
SBAlt = right;
};
width = 592;
},
{
layerId = "0B743EE9-64DA-4675-B861-51D53379FCF4";
shapes = (
{
closed = 1;
nodes = (
(262,0,l),
(460,481,l),
(407,481,l),
(240,63,l),
(70,481,l),
(17,481,l),
(215,0,l)
);
}
);
userData = {
SBAlt = right;
};
width = 477;
}
);
unicode = 118;
},
{
glyphname = w;
kernLeft = w;
kernRight = w;
lastChange = "2024-11-12 17:31:02 +0000";
layers = (
{
anchors = (
{
name = top;
pos = (350,488);
}
);
guides = (
{
pos = (350,488);
userData = {
UFO.identifier = xcLKGF53Pu;
};
}
);
layerId = m001;
shapes = (
{
closed = 1;
nodes = (
(234,0,l),
(350,394,l),
(466,0,l),
(537,0,l),
(670,488,l),
(601,488,l),
(500,98,l),
(383,488,l),
(318,488,l),
(201,98,l),
(99,488,l),
(28,488,l),
(162,0,l)
);
}
);
width = 698;
},
{
anchors = (
{
name = top;
pos = (393,516);
}
);
layerId = "1A2B284C-0E56-44A1-A1FF-F0AD058F6D22";
shapes = (
{
closed = 1;
nodes = (
(310,0,l),
(392,304,l),
(476,0,l),
(630,0,l),
(767,516,l),
(618,516,l),
(547,209,l),
(461,516,l),
(328,516,l),
(241,208,l),
(169,516,l),
(16,516,l),
(154,0,l)
);
}
);
width = 783;
},
{
anchors = (
{
name = top;
pos = (338,481);
}
);
guides = (
{
pos = (284,72);
userData = {
UFO.identifier = xcLKGF53Pu;
};
},
{
angle = 90;
pos = (338,481);
userData = {
UFO.identifier = vVjKPaYAoW;
};
}
);
layerId = "0B743EE9-64DA-4675-B861-51D53379FCF4";
shapes = (
{
closed = 1;
nodes = (
(214,0,l),
(337,412,l),
(463,0,l),
(512,0,l),
(645,481,l),
(596,481,l),
(486,71,l),
(361,481,l),
(314,481,l),
(191,71,l),
(80,481,l),
(31,481,l),
(164,0,l)
);
}
);
width = 676;
}
);
unicode = 119;
},
{
glyphname = x;
kernRight = k;
lastChange = "2024-11-12 17:31:02 +0000";
layers = (
{
layerId = m001;
shapes = (
{
closed = 1;
nodes = (
(96,0,l),
(241,199,l),
(387,0,l),
(474,0,l),
(286,251,l),
(463,488,l),
(380,488,l),
(246,302,l),
(111,488,l),
(24,488,l),
(200,253,l),
(13,0,l)
);
}
);
userData = {
SBAlt = right;
};
width = 487;
},
{
layerId = "1A2B284C-0E56-44A1-A1FF-F0AD058F6D22";
shapes = (
{
closed = 1;
nodes = (
(189,0,l),
(291,147,l),
(393,0,l),
(581,0,l),
(385,260,l),
(575,516,l),
(395,516,l),
(299,377,l),
(203,516,l),
(16,516,l),
(203,263,l),
(10,0,l)
);
}
);
userData = {
SBAlt = right;
};
width = 591;
},
{
layerId = "0B743EE9-64DA-4675-B861-51D53379FCF4";
shapes = (
{
closed = 1;
nodes = (
(70,0,l),
(228,215,l),
(387,0,l),
(446,0,l),
(259,250,l),
(431,481,l),
(375,481,l),
(230,285,l),
(84,481,l),
(25,481,l),
(199,249,l),
(14,0,l)
);
}
);
userData = {
SBAlt = right;
};
width = 460;
}
);
unicode = 120;
},
{
glyphname = y;
kernLeft = y;
kernRight = v;
lastChange = "2024-11-12 17:31:02 +0000";
layers = (
{
anchors = (
{
name = top;
pos = (249,488);
}
);
layerId = m001;
shapes = (
{
closed = 1;
nodes = (
(168,-219,o),
(203,-190,o),
(236,-111,cs),
(482,488,l),
(401,488,l),
(244,87,l),
(96,488,l),
(15,488,l),
(203,0,l),
(167,-89,ls),
(149,-132,o),
(126,-151,o),
(89,-151,cs),
(78,-151,o),
(62,-150,o),
(49,-147,c),
(49,-212,l),
(66,-217,o),
(82,-219,o),
(96,-219,cs)
);
}
);
width = 498;
},
{
anchors = (
{
name = top;
pos = (290,516);
}
);
layerId = "1A2B284C-0E56-44A1-A1FF-F0AD058F6D22";
shapes = (
{
closed = 1;
nodes = (
(238,-219,o),
(297,-176,o),
(345,-58,cs),
(577,516,l),
(402,516,l),
(284,183,l),
(181,516,l),
(2,516,l),
(192,-10,l),
(184,-27,ls),
(168,-61,o),
(144,-79,o),
(100,-79,cs),
(81,-79,o),
(64,-77,o),
(52,-75,c),
(52,-211,l),
(74,-216,o),
(100,-219,o),
(119,-219,cs)
);
}
);
width = 584;
},
{
anchors = (
{
name = top;
pos = (233,481);
}
);
layerId = "0B743EE9-64DA-4675-B861-51D53379FCF4";
shapes = (
{
closed = 1;
nodes = (
(146,-219,o),
(176,-194,o),
(206,-124,cs),
(457,481,l),
(401,481,l),
(234,64,l),
(74,481,l),
(18,481,l),
(207,3,l),
(162,-105,ls),
(142,-154,o),
(120,-173,o),
(85,-173,cs),
(73,-173,o),
(64,-171,o),
(47,-165,c),
(47,-212,l),
(63,-217,o),
(76,-219,o),
(89,-219,cs)
);
}
);
width = 475;
}
);
unicode = 121;
},
{
glyphname = z;
kernLeft = z;
kernRight = z;
lastChange = "2024-11-12 17:31:02 +0000";
layers = (
{
anchors = (
{
name = top;
pos = (228,488);
}
);
layerId = m001;
shapes = (
{
closed = 1;
nodes = (
(415,0,l),
(415,66,l),
(129,65,l),
(411,431,l),
(411,488,l),
(44,488,l),
(44,421,l),
(322,422,l),
(41,58,l),
(41,0,l)
);
}
);
width = 459;
},
{
anchors = (
{
name = top;
pos = (251,516);
}
);
layerId = "1A2B284C-0E56-44A1-A1FF-F0AD058F6D22";
shapes = (
{
closed = 1;
nodes = (
(474,0,l),
(474,135,l),
(234,133,l),
(466,403,l),
(466,516,l),
(38,516,l),
(38,380,l),
(267,382,l),
(36,113,l),
(36,0,l)
);
}
);
width = 510;
},
{
anchors = (
{
name = top;
pos = (218,481);
}
);
layerId = "0B743EE9-64DA-4675-B861-51D53379FCF4";
shapes = (
{
closed = 1;
nodes = (
(399,0,l),
(399,46,l),
(103,46,l),
(397,438,l),
(397,481,l),
(45,481,l),
(45,435,l),
(336,435,l),
(42,43,l),
(42,0,l)
);
}
);
width = 445;
}
);
unicode = 122;
},
{
glyphname = a.ss01;
kernLeft = o;
kernRight = q;
lastChange = "2024-11-13 20:45:32 +0000";
layers = (
{
anchors = (
{
name = bottom;
pos = (507,0);
},
{
name = top;
pos = (282,488);
}
);
layerId = m001;
shapes = (
{
closed = 1;
nodes = (
(342,-7,o),
(397,18,o),
(434,65,c),
(434,0,l),
(507,0,l),
(507,488,l),
(434,488,l),
(434,426,l),
(395,470,o),
(342,494,o),
(282,494,cs),
(153,494,o),
(53,384,o),
(53,243,cs),
(53,103,o),
(151,-7,o),
(278,-7,cs)
);
},
{
closed = 1;
nodes = (
(198,57,o),
(125,137,o),
(125,244,cs),
(125,351,o),
(198,430,o),
(296,430,cs),
(351,430,o),
(402,405,o),
(434,364,c),
(434,122,l),
(403,80,o),
(353,57,o),
(296,57,cs)
);
}
);
width = 582;
},
{
anchors = (
{
name = bottom;
pos = (580,0);
},
{
name = top;
pos = (309,516);
}
);
layerId = "1A2B284C-0E56-44A1-A1FF-F0AD058F6D22";
shapes = (
{
closed = 1;
nodes = (
(329,-3,o),
(386,24,o),
(420,67,c),
(420,0,l),
(580,0,l),
(580,516,l),
(418,516,l),
(418,457,l),
(383,497,o),
(334,519,o),
(280,519,cs),
(146,519,o),
(40,404,o),
(40,259,cs),
(40,114,o),
(141,-3,o),
(268,-3,cs)
);
},
{
closed = 1;
nodes = (
(252,131,o),
(199,185,o),
(199,258,cs),
(199,332,o),
(251,386,o),
(322,386,cs),
(359,386,o),
(393,372,o),
(418,346,c),
(418,172,l),
(393,145,o),
(361,131,o),
(322,131,cs)
);
}
);
width = 643;
},
{
anchors = (
{
name = bottom;
pos = (488,0);
},
{
name = top;
pos = (291,481);
}
);
layerId = "0B743EE9-64DA-4675-B861-51D53379FCF4";
shapes = (
{
closed = 1;
nodes = (
(343,-8,o),
(398,15,o),
(438,63,c),
(438,0,l),
(488,0,l),
(488,481,l),
(438,481,l),
(438,418,l),
(397,464,o),
(342,487,o),
(283,487,cs),
(152,487,o),
(56,376,o),
(56,239,cs),
(56,101,o),
(153,-8,o),
(281,-8,cs)
);
},
{
closed = 1;
nodes = (
(186,38,o),
(106,123,o),
(106,240,cs),
(106,356,o),
(184,441,o),
(289,441,cs),
(352,441,o),
(406,412,o),
(438,369,c),
(438,109,l),
(406,65,o),
(353,38,o),
(289,38,cs)
);
}
);
width = 566;
}
);
},
{
glyphname = aogonek.ss01;
kernLeft = o;
kernRight = q;
lastChange = "2024-11-13 20:45:32 +0000";
layers = (
{
layerId = m001;
shapes = (
{
closed = 1;
nodes = (
(486,-231,o),
(513,-224,o),
(532,-212,c),
(518,-173,l),
(506,-181,o),
(487,-185,o),
(470,-185,cs),
(428,-185,o),
(403,-164,o),
(403,-128,cs),
(403,-87,o),
(435,-47,o),
(507,0,c),
(507,488,l),
(434,488,l),
(434,426,l),
(395,470,o),
(342,494,o),
(282,494,cs),
(153,494,o),
(53,384,o),
(53,243,cs),
(53,103,o),
(151,-7,o),
(278,-7,cs),
(342,-7,o),
(397,18,o),
(434,65,c),
(434,0,l),
(452,0,l),
(382,-50,o),
(353,-91,o),
(353,-140,cs),
(353,-195,o),
(395,-231,o),
(459,-231,cs)
);
},
{
closed = 1;
nodes = (
(125,351,o),
(198,430,o),
(296,430,cs),
(351,430,o),
(402,405,o),
(434,364,c),
(434,122,l),
(403,80,o),
(353,57,o),
(296,57,cs),
(198,57,o),
(125,137,o),
(125,244,cs)
);
}
);
width = 582;
},
{
layerId = "1A2B284C-0E56-44A1-A1FF-F0AD058F6D22";
shapes = (
{
closed = 1;
nodes = (
(552,-231,o),
(587,-222,o),
(609,-208,c),
(589,-138,l),
(579,-145,o),
(562,-149,o),
(544,-149,cs),
(514,-149,o),
(495,-132,o),
(495,-103,cs),
(495,-67,o),
(522,-35,o),
(580,0,c),
(580,516,l),
(418,516,l),
(418,457,l),
(383,497,o),
(334,519,o),
(280,519,cs),
(146,519,o),
(40,404,o),
(40,259,cs),
(40,114,o),
(141,-3,o),
(268,-3,cs),
(329,-3,o),
(386,24,o),
(420,67,c),
(420,0,l),
(496,0,l),
(435,-41,o),
(408,-82,o),
(408,-132,cs),
(408,-191,o),
(451,-231,o),
(516,-231,cs)
);
},
{
closed = 1;
nodes = (
(199,332,o),
(251,386,o),
(322,386,cs),
(359,386,o),
(393,372,o),
(418,346,c),
(418,172,l),
(393,145,o),
(361,131,o),
(322,131,cs),
(252,131,o),
(199,185,o),
(199,258,cs)
);
}
);
width = 643;
},
{
layerId = "0B743EE9-64DA-4675-B861-51D53379FCF4";
shapes = (
{
closed = 1;
nodes = (
(470,-231,o),
(494,-224,o),
(511,-213,c),
(499,-182,l),
(486,-190,o),
(467,-195,o),
(450,-195,cs),
(407,-195,o),
(378,-174,o),
(378,-134,cs),
(378,-97,o),
(404,-56,o),
(488,0,c),
(488,481,l),
(438,481,l),
(438,418,l),
(397,464,o),
(342,487,o),
(283,487,cs),
(152,487,o),
(56,376,o),
(56,239,cs),
(56,101,o),
(153,-8,o),
(281,-8,cs),
(343,-8,o),
(398,15,o),
(438,63,c),
(438,0,l),
(439,0,l),
(364,-55,o),
(338,-96,o),
(338,-142,cs),
(338,-193,o),
(376,-231,o),
(444,-231,cs)
);
},
{
closed = 1;
nodes = (
(106,356,o),
(184,441,o),
(289,441,cs),
(352,441,o),
(406,412,o),
(438,369,c),
(438,109,l),
(406,65,o),
(353,38,o),
(289,38,cs),
(186,38,o),
(106,123,o),
(106,240,cs)
);
}
);
width = 566;
}
);
},
{
glyphname = g.ss02;
kernLeft = g.alt;
kernRight = g.alt;
lastChange = "2024-11-13 20:46:08 +0000";
layers = (
{
anchors = (
{
name = top;
pos = (266,488);
}
);
layerId = m001;
shapes = (
{
closed = 1;
nodes = (
(421,-219,o),
(521,-160,o),
(521,-68,cs),
(521,-7,o),
(475,29,o),
(393,33,cs),
(207,43,ls),
(168,45,o),
(148,58,o),
(148,83,cs),
(148,110,o),
(171,132,o),
(205,140,c),
(225,135,o),
(245,132,o),
(266,132,cs),
(377,132,o),
(465,213,o),
(465,314,cs),
(465,354,o),
(451,390,o),
(428,420,c),
(440,445,o),
(463,459,o),
(492,459,cs),
(511,459,o),
(525,458,o),
(537,454,c),
(537,525,l),
(530,526,o),
(522,527,o),
(512,527,cs),
(459,527,o),
(421,493,o),
(411,439,c),
(375,474,o),
(324,496,o),
(266,496,cs),
(155,496,o),
(67,415,o),
(67,314,cs),
(67,244,o),
(109,184,o),
(171,154,c),
(118,139,o),
(82,105,o),
(82,66,cs),
(82,29,o),
(104,1,o),
(145,-13,c),
(76,-34,o),
(40,-63,o),
(40,-101,cs),
(40,-176,o),
(121,-219,o),
(261,-219,cs)
);
},
{
closed = 1;
nodes = (
(194,188,o),
(138,243,o),
(138,314,cs),
(138,385,o),
(194,440,o),
(266,440,cs),
(338,440,o),
(394,385,o),
(394,314,cs),
(394,243,o),
(338,188,o),
(266,188,cs)
);
},
{
closed = 1;
nodes = (
(164,-166,o),
(110,-137,o),
(110,-89,cs),
(110,-60,o),
(137,-36,o),
(182,-22,c),
(190,-23,o),
(198,-24,o),
(206,-24,cs),
(385,-33,ls),
(427,-36,o),
(448,-50,o),
(448,-79,cs),
(448,-132,o),
(373,-166,o),
(255,-166,cs)
);
}
);
userData = {
SBAlt = left;
};
width = 537;
},
{
anchors = (
{
name = top;
pos = (302,516);
}
);
layerId = "1A2B284C-0E56-44A1-A1FF-F0AD058F6D22";
shapes = (
{
closed = 1;
nodes = (
(489,-219,o),
(611,-150,o),
(611,-40,cs),
(611,36,o),
(545,81,o),
(435,85,cs),
(258,91,ls),
(223,92,o),
(207,101,o),
(207,120,cs),
(207,132,o),
(215,142,o),
(228,148,c),
(251,143,o),
(276,140,o),
(302,140,cs),
(441,140,o),
(548,225,o),
(548,332,cs),
(548,367,o),
(536,400,o),
(516,428,c),
(532,437,o),
(551,441,o),
(572,441,cs),
(587,441,o),
(606,438,o),
(623,432,c),
(623,558,l),
(611,562,o),
(604,563,o),
(592,563,cs),
(542,563,o),
(506,533,o),
(478,467,c),
(434,502,o),
(372,524,o),
(302,524,cs),
(163,524,o),
(56,439,o),
(56,332,cs),
(56,257,o),
(108,193,o),
(187,161,c),
(119,148,o),
(77,110,o),
(77,59,cs),
(77,20,o),
(99,-9,o),
(141,-27,c),
(68,-38,o),
(23,-67,o),
(23,-106,cs),
(23,-181,o),
(118,-219,o),
(293,-219,cs)
);
},
{
closed = 1;
nodes = (
(248,251,o),
(208,286,o),
(208,332,cs),
(208,378,o),
(248,413,o),
(302,413,cs),
(356,413,o),
(396,378,o),
(396,332,cs),
(396,286,o),
(356,251,o),
(302,251,cs)
);
},
{
closed = 1;
nodes = (
(207,-121,o),
(168,-108,o),
(168,-74,cs),
(168,-60,o),
(176,-49,o),
(191,-41,c),
(211,-45,o),
(234,-47,o),
(259,-48,cs),
(409,-52,ls),
(436,-53,o),
(449,-59,o),
(449,-74,cs),
(449,-103,o),
(390,-121,o),
(293,-121,cs)
);
}
);
userData = {
SBAlt = left;
};
width = 633;
},
{
anchors = (
{
name = top;
pos = (255,480);
}
);
layerId = "0B743EE9-64DA-4675-B861-51D53379FCF4";
shapes = (
{
closed = 1;
nodes = (
(401,-219,o),
(495,-162,o),
(495,-73,cs),
(495,-16,o),
(454,17,o),
(379,21,cs),
(194,32,ls),
(153,34,o),
(133,48,o),
(133,75,cs),
(133,105,o),
(159,130,o),
(198,140,c),
(216,134,o),
(236,131,o),
(256,131,cs),
(360,131,o),
(444,211,o),
(444,310,cs),
(444,349,o),
(431,386,o),
(408,415,c),
(416,446,o),
(439,464,o),
(470,464,cs),
(491,464,o),
(502,463,o),
(513,460,c),
(513,516,l),
(505,517,o),
(496,518,o),
(489,518,cs),
(436,518,o),
(398,483,o),
(393,432,c),
(359,467,o),
(310,489,o),
(256,489,cs),
(152,489,o),
(68,409,o),
(68,310,cs),
(68,242,o),
(107,184,o),
(165,153,c),
(117,139,o),
(83,104,o),
(83,69,cs),
(83,34,o),
(105,7,o),
(142,-7,c),
(76,-32,o),
(45,-61,o),
(45,-99,cs),
(45,-175,o),
(122,-219,o),
(253,-219,cs)
);
},
{
closed = 1;
nodes = (
(179,173,o),
(118,233,o),
(118,310,cs),
(118,387,o),
(179,447,o),
(256,447,cs),
(333,447,o),
(394,387,o),
(394,310,cs),
(394,233,o),
(333,173,o),
(256,173,cs)
);
},
{
closed = 1;
nodes = (
(153,-178,o),
(95,-144,o),
(95,-92,cs),
(95,-60,o),
(126,-33,o),
(178,-16,c),
(183,-16,o),
(187,-17,o),
(192,-17,cs),
(376,-27,ls),
(422,-30,o),
(445,-46,o),
(445,-78,cs),
(445,-139,o),
(367,-178,o),
(245,-178,cs)
);
}
);
userData = {
SBAlt = left;
};
width = 510;
}
);
},
{
glyphname = gcommaaccent.ss02;
kernLeft = g.alt;
kernRight = g.alt;
lastChange = "2024-11-13 20:46:08 +0000";
layers = (
{
layerId = m001;
shapes = (
{
closed = 1;
nodes = (
(312,797,l),
(243,610,l),
(316,610,l),
(365,797,l)
);
},
{
ref = g.ss02;
}
);
width = 537;
},
{
layerId = "1A2B284C-0E56-44A1-A1FF-F0AD058F6D22";
shapes = (
{
closed = 1;
nodes = (
(342,842,l),
(247,627,l),
(391,627,l),
(454,842,l)
);
},
{
ref = g.ss02;
}
);
width = 633;
},
{
layerId = "0B743EE9-64DA-4675-B861-51D53379FCF4";
shapes = (
{
closed = 1;
nodes = (
(309,785,l),
(247,605,l),
(301,605,l),
(346,785,l)
);
},
{
ref = g.ss02;
}
);
width = 510;
}
);
},
{
glyphname = ordfeminine;
kernLeft = _reg;
kernRight = _reg;
lastChange = "2024-11-12 17:31:02 +0000";
layers = (
{
layerId = m001;
shapes = (
{
closed = 1;
nodes = (
(220,319,o),
(258,334,o),
(293,366,c),
(293,326,l),
(354,326,l),
(354,578,ls),
(354,663,o),
(300,711,o),
(203,711,cs),
(157,711,o),
(111,700,o),
(55,673,c),
(78,626,l),
(124,648,o),
(160,658,o),
(196,658,cs),
(260,658,o),
(293,629,o),
(293,571,cs),
(293,522,l),
(260,539,o),
(223,548,o),
(186,548,cs),
(92,548,o),
(33,504,o),
(33,433,cs),
(33,366,o),
(90,319,o),
(173,319,cs)
);
},
{
closed = 1;
nodes = (
(130,367,o),
(93,394,o),
(93,435,cs),
(93,477,o),
(130,504,o),
(188,504,cs),
(230,504,o),
(263,496,o),
(293,477,c),
(293,406,l),
(264,380,o),
(228,367,o),
(185,367,cs)
);
}
);
width = 408;
},
{
layerId = "1A2B284C-0E56-44A1-A1FF-F0AD058F6D22";
shapes = (
{
closed = 1;
nodes = (
(213,298,o),
(245,309,o),
(280,335,c),
(280,305,l),
(405,305,l),
(405,559,ls),
(405,655,o),
(341,711,o),
(229,711,cs),
(170,711,o),
(109,697,o),
(41,667,c),
(86,574,l),
(140,596,o),
(176,605,o),
(206,605,cs),
(255,605,o),
(280,586,o),
(280,548,cs),
(280,529,l),
(250,537,o),
(221,541,o),
(192,541,cs),
(87,541,o),
(27,498,o),
(27,422,cs),
(27,349,o),
(87,298,o),
(172,298,cs)
);
},
{
closed = 1;
nodes = (
(170,387,o),
(148,401,o),
(148,424,cs),
(148,447,o),
(170,460,o),
(211,460,cs),
(235,460,o),
(258,458,o),
(280,453,c),
(280,403,l),
(260,393,o),
(236,387,o),
(207,387,cs)
);
}
);
width = 450;
},
{
layerId = "0B743EE9-64DA-4675-B861-51D53379FCF4";
shapes = (
{
closed = 1;
nodes = (
(222,324,o),
(263,341,o),
(297,374,c),
(297,331,l),
(341,331,l),
(341,583,ls),
(341,665,o),
(290,711,o),
(197,711,cs),
(152,711,o),
(109,700,o),
(59,674,c),
(76,639,l),
(122,662,o),
(158,672,o),
(194,672,cs),
(262,672,o),
(297,640,o),
(297,577,cs),
(297,519,l),
(263,539,o),
(223,550,o),
(185,550,cs),
(94,550,o),
(35,505,o),
(35,436,cs),
(35,370,o),
(92,324,o),
(174,324,cs)
);
},
{
closed = 1;
nodes = (
(120,361,o),
(79,392,o),
(79,438,cs),
(79,485,o),
(120,515,o),
(182,515,cs),
(229,515,o),
(265,505,o),
(297,482,c),
(297,408,l),
(266,377,o),
(227,361,o),
(180,361,cs)
);
}
);
width = 397;
}
);
unicode = 170;
},
{
glyphname = ordmasculine;
kernLeft = _reg;
kernRight = _reg;
lastChange = "2024-11-12 17:31:02 +0000";
layers = (
{
layerId = m001;
shapes = (
{
closed = 1;
nodes = (
(340,317,o),
(426,403,o),
(426,514,cs),
(426,625,o),
(340,711,o),
(232,711,cs),
(124,711,o),
(38,625,o),
(38,514,cs),
(38,403,o),
(124,317,o),
(232,317,cs)
);
},
{
closed = 1;
nodes = (
(158,372,o),
(100,434,o),
(100,514,cs),
(100,594,o),
(158,656,o),
(232,656,cs),
(306,656,o),
(364,594,o),
(364,514,cs),
(364,434,o),
(306,372,o),
(232,372,cs)
);
}
);
userData = {
com.typemytype.robofont.guideline.magnetic.EM0xyAAzrc = 5;
com.typemytype.robofont.guideline.magnetic.qru3NPdahM = 5;
com.typemytype.robofont.guideline.magnetic.rb9WAOtIdN = 5;
com.typemytype.robofont.guideline.showMeasurements.DOoPkU7MI3 = 1;
};
width = 464;
},
{
layerId = "1A2B284C-0E56-44A1-A1FF-F0AD058F6D22";
shapes = (
{
closed = 1;
nodes = (
(367,295,o),
(462,387,o),
(462,503,cs),
(462,619,o),
(367,711,o),
(245,711,cs),
(123,711,o),
(28,619,o),
(28,503,cs),
(28,387,o),
(123,295,o),
(245,295,cs)
);
},
{
closed = 1;
nodes = (
(193,405,o),
(152,448,o),
(152,503,cs),
(152,558,o),
(193,601,o),
(245,601,cs),
(297,601,o),
(338,558,o),
(338,503,cs),
(338,448,o),
(297,405,o),
(245,405,cs)
);
}
);
userData = {
com.typemytype.robofont.guideline.magnetic.EM0xyAAzrc = 5;
com.typemytype.robofont.guideline.magnetic.qru3NPdahM = 5;
com.typemytype.robofont.guideline.magnetic.rb9WAOtIdN = 5;
com.typemytype.robofont.guideline.showMeasurements.DOoPkU7MI3 = 1;
};
width = 490;
},
{
guides = (
{
pos = (237,513);
userData = {
UFO.identifier = DOoPkU7MI3;
};
}
);
layerId = "0B743EE9-64DA-4675-B861-51D53379FCF4";
shapes = (
{
closed = 1;
nodes = (
(334,323,o),
(417,408,o),
(417,517,cs),
(417,626,o),
(334,711,o),
(229,711,cs),
(124,711,o),
(41,626,o),
(41,517,cs),
(41,408,o),
(124,323,o),
(229,323,cs)
);
},
{
closed = 1;
nodes = (
(148,364,o),
(85,432,o),
(85,517,cs),
(85,602,o),
(148,670,o),
(229,670,cs),
(310,670,o),
(373,602,o),
(373,517,cs),
(373,432,o),
(310,364,o),
(229,364,cs)
);
}
);
userData = {
com.typemytype.robofont.guideline.magnetic.EM0xyAAzrc = 5;
com.typemytype.robofont.guideline.magnetic.qru3NPdahM = 5;
com.typemytype.robofont.guideline.magnetic.rb9WAOtIdN = 5;
com.typemytype.robofont.guideline.showMeasurements.DOoPkU7MI3 = 1;
};
width = 458;
}
);
unicode = 186;
},
{
glyphname = .notdef;
lastChange = "2024-11-12 17:31:02 +0000";
layers = (
{
layerId = m001;
shapes = (
{
closed = 1;
nodes = (
(454,-100,l),
(454,750,l),
(60,750,l),
(60,-100,l)
);
}
);
width = 514;
},
{
layerId = "1A2B284C-0E56-44A1-A1FF-F0AD058F6D22";
shapes = (
{
closed = 1;
nodes = (
(454,-100,l),
(454,750,l),
(60,750,l),
(60,-100,l)
);
}
);
width = 514;
},
{
layerId = "0B743EE9-64DA-4675-B861-51D53379FCF4";
shapes = (
{
closed = 1;
nodes = (
(454,-100,l),
(454,750,l),
(60,750,l),
(60,-100,l)
);
}
);
width = 514;
}
);
},
{
glyphname = period;
kernLeft = _period;
kernRight = _period;
lastChange = "2024-11-12 17:31:02 +0000";
layers = (
{
layerId = m001;
shapes = (
{
closed = 1;
nodes = (
(154,-8,o),
(178,16,o),
(178,46,cs),
(178,76,o),
(154,100,o),
(125,100,cs),
(96,100,o),
(72,76,o),
(72,46,cs),
(72,16,o),
(96,-8,o),
(125,-8,cs)
);
}
);
userData = {
com.typemytype.robofont.guideline.magnetic.EXJsMkix66 = 5;
com.typemytype.robofont.guideline.magnetic.PAjAUUtqa2 = 5;
com.typemytype.robofont.guideline.magnetic.mGhCLDtlag = 5;
com.typemytype.robofont.guideline.magnetic.t8WQhhAvi1 = 5;
com.typemytype.robofont.guideline.magnetic.xgF4Jej3yy = 5;
};
width = 250;
},
{
layerId = "1A2B284C-0E56-44A1-A1FF-F0AD058F6D22";
shapes = (
{
closed = 1;
nodes = (
(175,-11,o),
(216,32,o),
(216,84,cs),
(216,136,o),
(175,179,o),
(125,179,cs),
(75,179,o),
(34,136,o),
(34,84,cs),
(34,32,o),
(75,-11,o),
(125,-11,cs)
);
}
);
userData = {
com.typemytype.robofont.guideline.magnetic.EXJsMkix66 = 5;
com.typemytype.robofont.guideline.magnetic.PAjAUUtqa2 = 5;
com.typemytype.robofont.guideline.magnetic.mGhCLDtlag = 5;
com.typemytype.robofont.guideline.magnetic.t8WQhhAvi1 = 5;
com.typemytype.robofont.guideline.magnetic.xgF4Jej3yy = 5;
};
width = 250;
},
{
layerId = "0B743EE9-64DA-4675-B861-51D53379FCF4";
shapes = (
{
closed = 1;
nodes = (
(150,-8,o),
(171,12,o),
(171,39,cs),
(171,64,o),
(150,85,o),
(125,85,cs),
(100,85,o),
(79,64,o),
(79,39,cs),
(79,12,o),
(100,-8,o),
(125,-8,cs)
);
}
);
userData = {
com.typemytype.robofont.guideline.magnetic.EXJsMkix66 = 5;
com.typemytype.robofont.guideline.magnetic.PAjAUUtqa2 = 5;
com.typemytype.robofont.guideline.magnetic.mGhCLDtlag = 5;
com.typemytype.robofont.guideline.magnetic.t8WQhhAvi1 = 5;
com.typemytype.robofont.guideline.magnetic.xgF4Jej3yy = 5;
};
width = 250;
}
);
unicode = 46;
},
{
glyphname = comma;
kernLeft = _period;
kernRight = _period;
lastChange = "2024-11-12 17:31:02 +0000";
layers = (
{
layerId = m001;
shapes = (
{
closed = 1;
nodes = (
(107,-157,l),
(188,74,l),
(110,74,l),
(50,-157,l)
);
}
);
userData = {
com.typemytype.robofont.guideline.magnetic.5dYMziZwJK = 5;
com.typemytype.robofont.guideline.magnetic.GUleMjwm7J = 5;
com.typemytype.robofont.guideline.magnetic.MikayHk25e = 5;
com.typemytype.robofont.guideline.magnetic.Nu4LqXWfO8 = 5;
com.typemytype.robofont.guideline.magnetic.aEQfbk3wLR = 5;
};
width = 250;
},
{
layerId = "1A2B284C-0E56-44A1-A1FF-F0AD058F6D22";
shapes = (
{
closed = 1;
nodes = (
(106,-177,l),
(224,127,l),
(65,127,l),
(-10,-177,l)
);
}
);
userData = {
com.typemytype.robofont.guideline.magnetic.5dYMziZwJK = 5;
com.typemytype.robofont.guideline.magnetic.GUleMjwm7J = 5;
com.typemytype.robofont.guideline.magnetic.MikayHk25e = 5;
com.typemytype.robofont.guideline.magnetic.Nu4LqXWfO8 = 5;
com.typemytype.robofont.guideline.magnetic.aEQfbk3wLR = 5;
};
width = 250;
},
{
layerId = "0B743EE9-64DA-4675-B861-51D53379FCF4";
shapes = (
{
closed = 1;
nodes = (
(98,-152,l),
(170,60,l),
(113,60,l),
(57,-152,l)
);
}
);
userData = {
com.typemytype.robofont.guideline.magnetic.5dYMziZwJK = 5;
com.typemytype.robofont.guideline.magnetic.GUleMjwm7J = 5;
com.typemytype.robofont.guideline.magnetic.MikayHk25e = 5;
com.typemytype.robofont.guideline.magnetic.Nu4LqXWfO8 = 5;
com.typemytype.robofont.guideline.magnetic.aEQfbk3wLR = 5;
};
width = 250;
}
);
unicode = 44;
},
{
glyphname = exclam;
lastChange = "2024-11-12 17:31:02 +0000";
layers = (
{
layerId = m001;
shapes = (
{
closed = 1;
nodes = (
(139,205,l),
(148,727,l),
(73,727,l),
(82,205,l)
);
},
{
closed = 1;
nodes = (
(140,-8,o),
(164,15,o),
(164,45,cs),
(164,75,o),
(140,98,o),
(111,98,cs),
(82,98,o),
(58,75,o),
(58,45,cs),
(58,15,o),
(82,-8,o),
(111,-8,cs)
);
}
);
userData = {
com.typemytype.robofont.guideline.magnetic.0CAGRuIpqt = 5;
com.typemytype.robofont.guideline.magnetic.5dlN5Nvs30 = 5;
com.typemytype.robofont.guideline.magnetic.DQsobub8bC = 5;
com.typemytype.robofont.guideline.magnetic.TeqoRDIg8G = 5;
com.typemytype.robofont.guideline.magnetic.fXICjhHMRZ = 5;
};
width = 222;
},
{
layerId = "1A2B284C-0E56-44A1-A1FF-F0AD058F6D22";
shapes = (
{
closed = 1;
nodes = (
(197,227,l),
(216,727,l),
(60,727,l),
(79,227,l)
);
},
{
closed = 1;
nodes = (
(186,-11,o),
(226,30,o),
(226,80,cs),
(226,130,o),
(186,171,o),
(138,171,cs),
(89,171,o),
(49,130,o),
(49,80,cs),
(49,30,o),
(89,-11,o),
(138,-11,cs)
);
}
);
userData = {
com.typemytype.robofont.guideline.magnetic.0CAGRuIpqt = 5;
com.typemytype.robofont.guideline.magnetic.5dlN5Nvs30 = 5;
com.typemytype.robofont.guideline.magnetic.DQsobub8bC = 5;
com.typemytype.robofont.guideline.magnetic.TeqoRDIg8G = 5;
com.typemytype.robofont.guideline.magnetic.fXICjhHMRZ = 5;
};
width = 275;
},
{
layerId = "0B743EE9-64DA-4675-B861-51D53379FCF4";
shapes = (
{
closed = 1;
nodes = (
(124,199,l),
(130,710,l),
(76,710,l),
(82,199,l)
);
},
{
closed = 1;
nodes = (
(128,-8,o),
(149,12,o),
(149,39,cs),
(149,64,o),
(128,85,o),
(103,85,cs),
(78,85,o),
(57,64,o),
(57,39,cs),
(57,12,o),
(78,-8,o),
(103,-8,cs)
);
}
);
userData = {
com.typemytype.robofont.guideline.magnetic.0CAGRuIpqt = 5;
com.typemytype.robofont.guideline.magnetic.5dlN5Nvs30 = 5;
com.typemytype.robofont.guideline.magnetic.DQsobub8bC = 5;
com.typemytype.robofont.guideline.magnetic.TeqoRDIg8G = 5;
com.typemytype.robofont.guideline.magnetic.fXICjhHMRZ = 5;
};
width = 206;
}
);
unicode = 33;
},
{
glyphname = exclamdown;
lastChange = "2024-11-12 17:31:02 +0000";
layers = (
{
layerId = m001;
shapes = (
{
closed = 1;
nodes = (
(83,284,l),
(74,-238,l),
(149,-238,l),
(140,284,l)
);
},
{
closed = 1;
nodes = (
(82,497,o),
(58,474,o),
(58,444,cs),
(58,414,o),
(82,391,o),
(111,391,cs),
(140,391,o),
(164,414,o),
(164,444,cs),
(164,474,o),
(140,497,o),
(111,497,cs)
);
}
);
userData = {
com.typemytype.robofont.guideline.magnetic.0C2kWGiRmU = 5;
com.typemytype.robofont.guideline.magnetic.CBajzZtwAP = 5;
com.typemytype.robofont.guideline.magnetic.GCmpGkTSpb = 5;
com.typemytype.robofont.guideline.magnetic.SYuR4psgeS = 5;
com.typemytype.robofont.guideline.magnetic.nHXIicSWkU = 5;
};
width = 222;
},
{
layerId = "1A2B284C-0E56-44A1-A1FF-F0AD058F6D22";
shapes = (
{
closed = 1;
nodes = (
(78,265,l),
(59,-235,l),
(215,-235,l),
(196,265,l)
);
},
{
closed = 1;
nodes = (
(89,503,o),
(49,462,o),
(49,412,cs),
(49,362,o),
(89,321,o),
(137,321,cs),
(186,321,o),
(226,362,o),
(226,412,cs),
(226,462,o),
(186,503,o),
(137,503,cs)
);
}
);
userData = {
com.typemytype.robofont.guideline.magnetic.0C2kWGiRmU = 5;
com.typemytype.robofont.guideline.magnetic.CBajzZtwAP = 5;
com.typemytype.robofont.guideline.magnetic.GCmpGkTSpb = 5;
com.typemytype.robofont.guideline.magnetic.SYuR4psgeS = 5;
com.typemytype.robofont.guideline.magnetic.nHXIicSWkU = 5;
};
width = 275;
},
{
layerId = "0B743EE9-64DA-4675-B861-51D53379FCF4";
shapes = (
{
closed = 1;
nodes = (
(82,302,l),
(76,-209,l),
(130,-209,l),
(124,302,l)
);
},
{
closed = 1;
nodes = (
(78,509,o),
(57,489,o),
(57,462,cs),
(57,437,o),
(78,416,o),
(103,416,cs),
(128,416,o),
(149,437,o),
(149,462,cs),
(149,489,o),
(128,509,o),
(103,509,cs)
);
}
);
userData = {
com.typemytype.robofont.guideline.magnetic.0C2kWGiRmU = 5;
com.typemytype.robofont.guideline.magnetic.CBajzZtwAP = 5;
com.typemytype.robofont.guideline.magnetic.GCmpGkTSpb = 5;
com.typemytype.robofont.guideline.magnetic.SYuR4psgeS = 5;
com.typemytype.robofont.guideline.magnetic.nHXIicSWkU = 5;
};
width = 206;
}
);
unicode = 161;
},
{
glyphname = question;
lastChange = "2024-11-12 17:31:02 +0000";
layers = (
{
layerId = m001;
shapes = (
{
closed = 1;
nodes = (
(256,207,l),
(252,267,o),
(269,305,o),
(315,339,cs),
(347,363,ls),
(432,424,o),
(459,466,o),
(459,535,cs),
(459,634,o),
(371,708,o),
(254,708,cs),
(166,708,o),
(88,666,o),
(34,590,c),
(90,552,l),
(133,611,o),
(188,642,o),
(251,642,cs),
(328,642,o),
(388,595,o),
(388,534,cs),
(388,489,o),
(368,458,o),
(313,416,cs),
(271,385,ls),
(209,339,o),
(188,290,o),
(193,207,c)
);
},
{
closed = 1;
nodes = (
(255,-8,o),
(278,16,o),
(278,45,cs),
(278,75,o),
(255,98,o),
(226,98,cs),
(196,98,o),
(173,75,o),
(173,45,cs),
(173,16,o),
(196,-8,o),
(226,-8,cs)
);
}
);
userData = {
com.typemytype.robofont.guideline.magnetic.BaVW0HmWLc = 5;
com.typemytype.robofont.guideline.magnetic.Zvs565BcIQ = 5;
com.typemytype.robofont.guideline.magnetic.abECkWyFJv = 5;
com.typemytype.robofont.guideline.magnetic.kZOgC7cPlN = 5;
com.typemytype.robofont.guideline.magnetic.mqO0JKjalA = 5;
};
width = 512;
},
{
layerId = "1A2B284C-0E56-44A1-A1FF-F0AD058F6D22";
shapes = (
{
closed = 1;
nodes = (
(311,229,l),
(310,271,o),
(321,292,o),
(359,319,cs),
(383,336,ls),
(474,401,o),
(503,446,o),
(503,519,cs),
(503,628,o),
(403,711,o),
(271,711,cs),
(153,711,o),
(54,645,o),
(18,542,c),
(143,493,l),
(161,544,o),
(209,577,o),
(265,577,cs),
(316,577,o),
(352,548,o),
(352,509,cs),
(352,488,o),
(337,466,o),
(305,440,cs),
(253,400,ls),
(193,354,o),
(177,314,o),
(182,229,c)
);
},
{
closed = 1;
nodes = (
(296,-11,o),
(336,30,o),
(336,80,cs),
(336,130,o),
(296,171,o),
(247,171,cs),
(198,171,o),
(158,130,o),
(158,80,cs),
(158,30,o),
(198,-11,o),
(247,-11,cs)
);
}
);
userData = {
com.typemytype.robofont.guideline.magnetic.BaVW0HmWLc = 5;
com.typemytype.robofont.guideline.magnetic.Zvs565BcIQ = 5;
com.typemytype.robofont.guideline.magnetic.abECkWyFJv = 5;
com.typemytype.robofont.guideline.magnetic.kZOgC7cPlN = 5;
com.typemytype.robofont.guideline.magnetic.mqO0JKjalA = 5;
};
width = 537;
},
{
guides = (
{
angle = 90;
pos = (219,201);
userData = {
UFO.identifier = v1cGfuixOY;
};
}
);
layerId = "0B743EE9-64DA-4675-B861-51D53379FCF4";
shapes = (
{
closed = 1;
nodes = (
(242,201,l),
(237,261,o),
(251,306,o),
(303,344,cs),
(338,370,ls),
(413,426,o),
(447,465,o),
(447,539,cs),
(447,638,o),
(361,711,o),
(250,711,cs),
(170,711,o),
(99,674,o),
(39,603,c),
(77,568,l),
(128,631,o),
(183,663,o),
(248,663,cs),
(331,663,o),
(397,609,o),
(397,539,cs),
(397,484,o),
(371,452,o),
(315,410,cs),
(276,381,ls),
(210,333,o),
(191,280,o),
(196,201,c)
);
},
{
closed = 1;
nodes = (
(242,-8,o),
(262,10,o),
(262,35,cs),
(262,60,o),
(242,78,o),
(219,78,cs),
(196,78,o),
(176,60,o),
(176,35,cs),
(176,10,o),
(196,-8,o),
(219,-8,cs)
);
}
);
userData = {
com.typemytype.robofont.guideline.magnetic.BaVW0HmWLc = 5;
com.typemytype.robofont.guideline.magnetic.Zvs565BcIQ = 5;
com.typemytype.robofont.guideline.magnetic.abECkWyFJv = 5;
com.typemytype.robofont.guideline.magnetic.kZOgC7cPlN = 5;
com.typemytype.robofont.guideline.magnetic.mqO0JKjalA = 5;
};
width = 505;
}
);
unicode = 63;
},
{
glyphname = questiondown;
lastChange = "2024-11-12 17:31:02 +0000";
layers = (
{
layerId = m001;
shapes = (
{
closed = 1;
nodes = (
(256,282,l),
(260,222,o),
(243,184,o),
(197,150,cs),
(165,126,ls),
(80,65,o),
(53,23,o),
(53,-46,cs),
(53,-145,o),
(141,-219,o),
(258,-219,cs),
(346,-219,o),
(424,-177,o),
(478,-101,c),
(422,-63,l),
(379,-122,o),
(324,-153,o),
(261,-153,cs),
(184,-153,o),
(124,-106,o),
(124,-45,cs),
(124,0,o),
(144,31,o),
(199,73,cs),
(241,104,ls),
(303,150,o),
(324,199,o),
(319,282,c)
);
},
{
closed = 1;
nodes = (
(257,497,o),
(234,473,o),
(234,444,cs),
(234,414,o),
(257,391,o),
(286,391,cs),
(316,391,o),
(339,414,o),
(339,444,cs),
(339,473,o),
(316,497,o),
(286,497,cs)
);
}
);
userData = {
com.typemytype.robofont.guideline.magnetic.IMaz5fMtzt = 5;
com.typemytype.robofont.guideline.magnetic.cziLJTzKvC = 5;
com.typemytype.robofont.guideline.magnetic.dciOJGCLsF = 5;
com.typemytype.robofont.guideline.magnetic.gtoWSp4rHE = 5;
com.typemytype.robofont.guideline.magnetic.j2JtakW70K = 5;
};
width = 512;
},
{
layerId = "1A2B284C-0E56-44A1-A1FF-F0AD058F6D22";
shapes = (
{
closed = 1;
nodes = (
(226,263,l),
(227,221,o),
(216,200,o),
(178,173,cs),
(154,156,ls),
(63,91,o),
(34,46,o),
(34,-27,cs),
(34,-136,o),
(134,-219,o),
(266,-219,cs),
(384,-219,o),
(483,-153,o),
(519,-50,c),
(394,-1,l),
(376,-52,o),
(328,-85,o),
(272,-85,cs),
(221,-85,o),
(185,-56,o),
(185,-17,cs),
(185,4,o),
(200,26,o),
(232,52,cs),
(284,92,ls),
(344,138,o),
(360,178,o),
(355,263,c)
);
},
{
closed = 1;
nodes = (
(241,503,o),
(201,462,o),
(201,412,cs),
(201,362,o),
(241,321,o),
(290,321,cs),
(339,321,o),
(379,362,o),
(379,412,cs),
(379,462,o),
(339,503,o),
(290,503,cs)
);
}
);
userData = {
com.typemytype.robofont.guideline.magnetic.IMaz5fMtzt = 5;
com.typemytype.robofont.guideline.magnetic.cziLJTzKvC = 5;
com.typemytype.robofont.guideline.magnetic.dciOJGCLsF = 5;
com.typemytype.robofont.guideline.magnetic.gtoWSp4rHE = 5;
com.typemytype.robofont.guideline.magnetic.j2JtakW70K = 5;
};
width = 537;
},
{
layerId = "0B743EE9-64DA-4675-B861-51D53379FCF4";
shapes = (
{
closed = 1;
nodes = (
(263,291,l),
(268,231,o),
(254,186,o),
(202,148,cs),
(167,122,ls),
(92,66,o),
(58,27,o),
(58,-47,cs),
(58,-146,o),
(144,-219,o),
(255,-219,cs),
(335,-219,o),
(406,-182,o),
(466,-111,c),
(428,-76,l),
(377,-139,o),
(322,-171,o),
(257,-171,cs),
(174,-171,o),
(108,-117,o),
(108,-47,cs),
(108,8,o),
(134,40,o),
(190,82,cs),
(229,111,ls),
(295,159,o),
(314,212,o),
(309,291,c)
);
},
{
closed = 1;
nodes = (
(263,500,o),
(243,482,o),
(243,457,cs),
(243,432,o),
(263,414,o),
(286,414,cs),
(309,414,o),
(329,432,o),
(329,457,cs),
(329,482,o),
(309,500,o),
(286,500,cs)
);
}
);
userData = {
com.typemytype.robofont.guideline.magnetic.IMaz5fMtzt = 5;
com.typemytype.robofont.guideline.magnetic.cziLJTzKvC = 5;
com.typemytype.robofont.guideline.magnetic.dciOJGCLsF = 5;
com.typemytype.robofont.guideline.magnetic.gtoWSp4rHE = 5;
com.typemytype.robofont.guideline.magnetic.j2JtakW70K = 5;
};
width = 505;
}
);
unicode = 191;
},
{
color = (0,0,255,191);
glyphname = periodcentered;
lastChange = "2024-11-12 17:31:02 +0000";
layers = (
{
layerId = m001;
shapes = (
{
closed = 1;
nodes = (
(157,229,o),
(181,253,o),
(181,283,cs),
(181,313,o),
(157,337,o),
(128,337,cs),
(99,337,o),
(75,313,o),
(75,283,cs),
(75,253,o),
(99,229,o),
(128,229,cs)
);
}
);
width = 250;
},
{
layerId = "1A2B284C-0E56-44A1-A1FF-F0AD058F6D22";
shapes = (
{
closed = 1;
nodes = (
(175,194,o),
(216,237,o),
(216,289,cs),
(216,341,o),
(175,384,o),
(125,384,cs),
(75,384,o),
(34,341,o),
(34,289,cs),
(34,237,o),
(75,194,o),
(125,194,cs)
);
}
);
width = 250;
},
{
layerId = "0B743EE9-64DA-4675-B861-51D53379FCF4";
shapes = (
{
closed = 1;
nodes = (
(150,237,o),
(171,257,o),
(171,284,cs),
(171,309,o),
(150,330,o),
(125,330,cs),
(100,330,o),
(79,309,o),
(79,284,cs),
(79,257,o),
(100,237,o),
(125,237,cs)
);
}
);
width = 250;
}
);
unicode = 183;
},
{
glyphname = bullet;
lastChange = "2024-11-12 17:31:02 +0000";
layers = (
{
layerId = m001;
shapes = (
{
closed = 1;
nodes = (
(225,252,o),
(271,296,o),
(271,353,cs),
(271,410,o),
(225,454,o),
(171,454,cs),
(117,454,o),
(71,410,o),
(71,353,cs),
(71,296,o),
(117,252,o),
(171,252,cs)
);
}
);
width = 342;
},
{
layerId = "1A2B284C-0E56-44A1-A1FF-F0AD058F6D22";
shapes = (
{
closed = 1;
nodes = (
(255,201,o),
(307,254,o),
(307,323,cs),
(307,392,o),
(255,445,o),
(189,445,cs),
(123,445,o),
(71,392,o),
(71,323,cs),
(71,254,o),
(123,201,o),
(189,201,cs)
);
}
);
width = 378;
},
{
layerId = "0B743EE9-64DA-4675-B861-51D53379FCF4";
shapes = (
{
closed = 1;
nodes = (
(218,266,o),
(262,307,o),
(262,361,cs),
(262,415,o),
(218,456,o),
(167,456,cs),
(116,456,o),
(72,415,o),
(72,361,cs),
(72,307,o),
(116,266,o),
(167,266,cs)
);
}
);
width = 334;
}
);
unicode = 8226;
},
{
glyphname = asterisk;
kernLeft = _reg;
kernRight = _reg;
lastChange = "2024-11-12 17:31:02 +0000";
layers = (
{
layerId = m001;
shapes = (
{
closed = 1;
nodes = (
(253,341,l),
(251,479,l),
(363,406,l),
(393,451,l),
(274,524,l),
(389,596,l),
(359,640,l),
(252,570,l),
(253,700,l),
(201,700,l),
(202,569,l),
(94,640,l),
(66,596,l),
(180,524,l),
(62,451,l),
(91,406,l),
(203,479,l),
(201,341,l)
);
}
);
width = 455;
},
{
layerId = "1A2B284C-0E56-44A1-A1FF-F0AD058F6D22";
shapes = (
{
closed = 1;
nodes = (
(296,306,l),
(294,412,l),
(387,351,l),
(442,438,l),
(339,501,l),
(444,567,l),
(389,652,l),
(294,589,l),
(296,700,l),
(198,700,l),
(200,590,l),
(105,652,l),
(51,567,l),
(156,501,l),
(53,438,l),
(106,351,l),
(200,412,l),
(198,306,l)
);
}
);
width = 493;
},
{
layerId = "0B743EE9-64DA-4675-B861-51D53379FCF4";
shapes = (
{
closed = 1;
nodes = (
(242,350,l),
(240,496,l),
(357,420,l),
(379,453,l),
(257,530,l),
(375,604,l),
(351,637,l),
(240,565,l),
(242,700,l),
(202,700,l),
(204,564,l),
(91,637,l),
(70,604,l),
(187,531,l),
(64,454,l),
(87,420,l),
(204,496,l),
(202,350,l)
);
}
);
width = 444;
}
);
unicode = 42;
},
{
glyphname = numbersign;
lastChange = "2024-11-12 17:31:02 +0000";
layers = (
{
layerId = m001;
shapes = (
{
closed = 1;
nodes = (
(132,0,l),
(207,219,l),
(394,219,l),
(319,0,l),
(385,0,l),
(460,219,l),
(598,219,l),
(598,277,l),
(480,277,l),
(530,423,l),
(646,423,l),
(646,481,l),
(550,481,l),
(625,700,l),
(559,700,l),
(484,481,l),
(297,481,l),
(372,700,l),
(306,700,l),
(231,481,l),
(92,481,l),
(92,423,l),
(211,423,l),
(161,277,l),
(44,277,l),
(44,219,l),
(141,219,l),
(66,0,l)
);
},
{
closed = 1;
nodes = (
(277,423,l),
(464,423,l),
(414,277,l),
(227,277,l)
);
}
);
width = 690;
},
{
layerId = "1A2B284C-0E56-44A1-A1FF-F0AD058F6D22";
shapes = (
{
closed = 1;
nodes = (
(192,0,l),
(255,184,l),
(381,184,l),
(318,0,l),
(455,0,l),
(518,184,l),
(659,184,l),
(659,298,l),
(557,298,l),
(593,402,l),
(707,402,l),
(707,516,l),
(632,516,l),
(695,700,l),
(558,700,l),
(495,516,l),
(369,516,l),
(432,700,l),
(294,700,l),
(231,516,l),
(90,516,l),
(90,402,l),
(192,402,l),
(156,298,l),
(43,298,l),
(43,184,l),
(117,184,l),
(54,0,l)
);
},
{
closed = 1;
nodes = (
(330,402,l),
(456,402,l),
(420,298,l),
(294,298,l)
);
}
);
width = 750;
},
{
layerId = "0B743EE9-64DA-4675-B861-51D53379FCF4";
shapes = (
{
closed = 1;
nodes = (
(116,0,l),
(194,228,l),
(397,228,l),
(319,0,l),
(366,0,l),
(444,228,l),
(582,228,l),
(582,271,l),
(459,271,l),
(513,429,l),
(630,429,l),
(630,472,l),
(528,472,l),
(606,700,l),
(559,700,l),
(481,472,l),
(278,472,l),
(356,700,l),
(309,700,l),
(231,472,l),
(92,472,l),
(92,429,l),
(216,429,l),
(162,271,l),
(44,271,l),
(44,228,l),
(147,228,l),
(69,0,l)
);
},
{
closed = 1;
nodes = (
(263,429,l),
(466,429,l),
(412,271,l),
(209,271,l)
);
}
);
width = 674;
}
);
unicode = 35;
},
{
glyphname = slash;
lastChange = "2024-11-12 17:31:02 +0000";
layers = (
{
layerId = m001;
shapes = (
{
closed = 1;
nodes = (
(24,-209,l),
(424,700,l),
(351,700,l),
(-48,-209,l)
);
}
);
width = 466;
},
{
layerId = "1A2B284C-0E56-44A1-A1FF-F0AD058F6D22";
shapes = (
{
closed = 1;
nodes = (
(102,-209,l),
(503,700,l),
(349,700,l),
(-53,-209,l)
);
}
);
width = 534;
},
{
layerId = "0B743EE9-64DA-4675-B861-51D53379FCF4";
shapes = (
{
closed = 1;
nodes = (
(5,-209,l),
(403,700,l),
(351,700,l),
(-47,-209,l)
);
}
);
width = 448;
}
);
unicode = 47;
},
{
glyphname = backslash;
lastChange = "2024-11-12 17:31:02 +0000";
layers = (
{
layerId = m001;
shapes = (
{
closed = 1;
nodes = (
(519,-209,l),
(119,700,l),
(43,700,l),
(443,-209,l)
);
}
);
width = 471;
},
{
layerId = "1A2B284C-0E56-44A1-A1FF-F0AD058F6D22";
shapes = (
{
closed = 1;
nodes = (
(596,-209,l),
(194,700,l),
(31,700,l),
(434,-209,l)
);
}
);
width = 543;
},
{
layerId = "0B743EE9-64DA-4675-B861-51D53379FCF4";
shapes = (
{
closed = 1;
nodes = (
(499,-209,l),
(100,700,l),
(46,700,l),
(445,-209,l)
);
}
);
width = 452;
}
);
unicode = 92;
},
{
glyphname = exclamdown.cap;
lastChange = "2024-11-12 17:31:02 +0000";
layers = (
{
layerId = m001;
shapes = (
{
closed = 1;
nodes = (
(83,522,l),
(74,0,l),
(149,0,l),
(140,522,l)
);
},
{
closed = 1;
nodes = (
(82,735,o),
(58,712,o),
(58,682,cs),
(58,652,o),
(82,629,o),
(111,629,cs),
(140,629,o),
(164,652,o),
(164,682,cs),
(164,712,o),
(140,735,o),
(111,735,cs)
);
}
);
userData = {
com.typemytype.robofont.guideline.magnetic.0C2kWGiRmU = 5;
com.typemytype.robofont.guideline.magnetic.CBajzZtwAP = 5;
com.typemytype.robofont.guideline.magnetic.GCmpGkTSpb = 5;
com.typemytype.robofont.guideline.magnetic.SYuR4psgeS = 5;
com.typemytype.robofont.guideline.magnetic.nHXIicSWkU = 5;
};
width = 222;
},
{
layerId = "1A2B284C-0E56-44A1-A1FF-F0AD058F6D22";
shapes = (
{
closed = 1;
nodes = (
(78,473,l),
(59,-27,l),
(215,-27,l),
(196,473,l)
);
},
{
closed = 1;
nodes = (
(89,711,o),
(49,670,o),
(49,620,cs),
(49,570,o),
(89,529,o),
(137,529,cs),
(186,529,o),
(226,570,o),
(226,620,cs),
(226,670,o),
(186,711,o),
(137,711,cs)
);
}
);
userData = {
com.typemytype.robofont.guideline.magnetic.0C2kWGiRmU = 5;
com.typemytype.robofont.guideline.magnetic.CBajzZtwAP = 5;
com.typemytype.robofont.guideline.magnetic.GCmpGkTSpb = 5;
com.typemytype.robofont.guideline.magnetic.SYuR4psgeS = 5;
com.typemytype.robofont.guideline.magnetic.nHXIicSWkU = 5;
};
width = 275;
},
{
layerId = "0B743EE9-64DA-4675-B861-51D53379FCF4";
shapes = (
{
closed = 1;
nodes = (
(83,506,l),
(77,-5,l),
(131,-5,l),
(125,506,l)
);
},
{
closed = 1;
nodes = (
(79,713,o),
(58,693,o),
(58,666,cs),
(58,641,o),
(79,620,o),
(104,620,cs),
(129,620,o),
(150,641,o),
(150,666,cs),
(150,693,o),
(129,713,o),
(104,713,cs)
);
}
);
userData = {
com.typemytype.robofont.guideline.magnetic.0C2kWGiRmU = 5;
com.typemytype.robofont.guideline.magnetic.CBajzZtwAP = 5;
com.typemytype.robofont.guideline.magnetic.GCmpGkTSpb = 5;
com.typemytype.robofont.guideline.magnetic.SYuR4psgeS = 5;
com.typemytype.robofont.guideline.magnetic.nHXIicSWkU = 5;
};
width = 189;
}
);
},
